<svg width="500" height="500" viewBox="0 0 500 500" fill="none" xmlns="http://www.w3.org/2000/svg">
<path d="M449.9 398.49H416.78V398.74H449.9V398.49Z" fill="#E0E0E0"/>
<path d="M331.22 401.21H322.53V401.46H331.22V401.21Z" fill="#E0E0E0"/>
<path d="M415.78 389.21H396.59V389.46H415.78V389.21Z" fill="#E0E0E0"/>
<path d="M95.65 390.89H52.46V391.14H95.65V390.89Z" fill="#E0E0E0"/>
<path d="M110.89 390.89H104.56V391.14H110.89V390.89Z" fill="#E0E0E0"/>
<path d="M225.15 395.11H131.47V395.36H225.15V395.11Z" fill="#E0E0E0"/>
<path d="M237 337.8H43.92C42.4056 337.8 40.9532 337.198 39.8824 336.128C38.8115 335.057 38.21 333.604 38.21 332.09V60.66C38.2231 59.1543 38.8305 57.7147 39.9 56.6547C40.9694 55.5947 42.4142 54.9999 43.92 55H237C238.514 55 239.967 55.6016 241.038 56.6724C242.108 57.7433 242.71 59.1956 242.71 60.71V332.09C242.71 333.604 242.108 335.057 241.038 336.128C239.967 337.198 238.514 337.8 237 337.8ZM43.92 55.2C42.4727 55.2026 41.0855 55.7787 40.0621 56.8021C39.0387 57.8255 38.4626 59.2127 38.46 60.66V332.09C38.4626 333.537 39.0387 334.924 40.0621 335.948C41.0855 336.971 42.4727 337.547 43.92 337.55H237C238.447 337.547 239.834 336.971 240.858 335.948C241.881 334.924 242.457 333.537 242.46 332.09V60.66C242.457 59.2127 241.881 57.8255 240.858 56.8021C239.834 55.7787 238.447 55.2026 237 55.2H43.92Z" fill="#E0E0E0"/>
<path d="M453.31 337.8H260.21C258.696 337.797 257.246 337.195 256.175 336.125C255.105 335.054 254.503 333.604 254.5 332.09V60.66C254.516 59.1551 255.124 57.7171 256.193 56.6576C257.262 55.5981 258.705 55.0025 260.21 55H453.31C454.812 55.0052 456.252 55.6022 457.317 56.6617C458.382 57.7212 458.987 59.1578 459 60.66V332.09C459 333.601 458.401 335.05 457.335 336.121C456.268 337.191 454.821 337.795 453.31 337.8ZM260.21 55.2C258.763 55.2026 257.375 55.7787 256.352 56.8021C255.329 57.8255 254.753 59.2127 254.75 60.66V332.09C254.753 333.537 255.329 334.924 256.352 335.948C257.375 336.971 258.763 337.547 260.21 337.55H453.31C454.757 337.547 456.145 336.971 457.168 335.948C458.191 334.924 458.767 333.537 458.77 332.09V60.66C458.767 59.2127 458.191 57.8255 457.168 56.8021C456.145 55.7787 454.757 55.2026 453.31 55.2H260.21Z" fill="#E0E0E0"/>
<path d="M500 382.4H0V382.65H500V382.4Z" fill="#E0E0E0"/>
<path d="M339.16 178.88V170C338.952 169.977 338.759 169.879 338.62 169.723C338.48 169.567 338.402 169.365 338.402 169.155C338.402 168.946 338.48 168.743 338.62 168.587C338.759 168.432 338.952 168.333 339.16 168.31C342.53 168.31 345.9 168.31 349.27 168.31V180.57H339.16C338.952 180.547 338.759 180.449 338.62 180.293C338.48 180.137 338.402 179.935 338.402 179.725C338.402 179.516 338.48 179.313 338.62 179.158C338.759 179.002 338.952 178.903 339.16 178.88Z" fill="#E0E0E0"/>
<path d="M347.02 170.04H339.16V178.87H347.02V170.04Z" fill="#F5F5F5"/>
<path d="M345.37 179.73H372.6C374.47 179.73 375.99 177.37 375.99 174.46C375.99 171.55 374.47 169.19 372.6 169.19H345.37V179.73Z" fill="#F9F9F9"/>
<path d="M345.37 168.35C354.29 168.35 363.22 168.19 372.13 168.35C378.24 168.46 378.57 180.16 372.58 180.57C368.4 180.86 364.11 180.57 359.92 180.57H345.37C345.162 180.547 344.969 180.448 344.83 180.292C344.69 180.137 344.612 179.934 344.612 179.725C344.612 179.515 344.69 179.313 344.83 179.157C344.969 179.001 345.162 178.903 345.37 178.88H370.72C372.72 178.88 374.08 178.88 374.83 176.55C375.49 174.55 375.28 170.48 372.6 170.04C372.297 170.015 371.993 170.015 371.69 170.04H345.37C345.162 170.017 344.969 169.918 344.83 169.762C344.69 169.607 344.612 169.404 344.612 169.195C344.612 168.985 344.69 168.783 344.83 168.627C344.969 168.471 345.162 168.373 345.37 168.35Z" fill="#D2D2D2"/>
<path d="M153.96 147.49H146L145.61 142.34H154.34L153.96 147.49Z" fill="#E0E0E0"/>
<path d="M154.63 147.84H145.32V157.28H154.63V147.84Z" fill="#E0E0E0"/>
<path d="M154.48 180.7C156.68 180.7 158.56 178.42 158.75 175.41C158.75 175.13 158.75 174.83 158.75 174.54V160.92C158.75 156.27 156 152.49 152.61 152.49H147.3C143.91 152.49 141.16 156.27 141.16 160.92V174.54C141.16 174.83 141.16 175.13 141.16 175.41C141.35 178.41 143.23 180.7 145.43 180.7H154.48Z" fill="#F5F5F5"/>
<path d="M156.19 147.84H143.77C143.34 147.84 142.99 147.37 142.99 146.78C142.99 146.19 143.34 145.71 143.77 145.71H156.19C156.62 145.71 156.96 146.19 156.96 146.78C157 147.37 156.62 147.84 156.19 147.84Z" fill="#F5F5F5"/>
<path d="M386.81 180.48H141.71V187.53H386.81V180.48Z" fill="#F5F5F5"/>
<path d="M143.54 180.48H88.6396V187.53H143.54V180.48Z" fill="#E0E0E0"/>
<path d="M95.3398 204.65V187.52H112.47L95.3398 204.65Z" fill="#D2D2D2"/>
<path d="M103.91 204.65L121.03 187.52H112.47L95.3398 204.65H103.91Z" fill="#F5F5F5"/>
<path d="M352.77 204.65V187.52H369.9L352.77 204.65Z" fill="#DBDBDB"/>
<path d="M361.34 204.65L378.47 187.52H369.9L352.77 204.65H361.34Z" fill="#F9F9F9"/>
<path d="M130.64 150.4H121.12L120.66 145.7H131.11L130.64 150.4Z" fill="#E0E0E0"/>
<path d="M131.46 150.72H120.31V159.34H131.46V150.72Z" fill="#F5F5F5"/>
<path d="M131.27 180.7C132.57 180.681 133.816 180.175 134.762 179.283C135.708 178.391 136.285 177.177 136.38 175.88C136.38 175.61 136.38 175.35 136.38 175.08V162.66C136.426 160.664 135.677 158.732 134.299 157.289C132.921 155.845 131.026 155.007 129.03 154.96H122.68C120.685 155.007 118.789 155.845 117.411 157.289C116.033 158.732 115.284 160.664 115.33 162.66V175.08C115.33 175.35 115.33 175.61 115.33 175.88C115.423 177.178 115.999 178.393 116.946 179.286C117.892 180.179 119.139 180.683 120.44 180.7H131.27Z" fill="#FCFCFC"/>
<path d="M133.31 150.72H118.45C118.197 150.702 117.96 150.589 117.787 150.403C117.615 150.218 117.519 149.973 117.52 149.72C117.519 149.466 117.615 149.222 117.787 149.036C117.96 148.851 118.197 148.738 118.45 148.72H133.31C133.562 148.738 133.799 148.851 133.972 149.036C134.144 149.222 134.24 149.466 134.24 149.72C134.24 149.973 134.144 150.218 133.972 150.403C133.799 150.589 133.562 150.702 133.31 150.72Z" fill="#FCFCFC"/>
<path d="M386.81 114.63H141.71V121.68H386.81V114.63Z" fill="#F5F5F5"/>
<path d="M143.54 114.63H88.6396V121.68H143.54V114.63Z" fill="#E0E0E0"/>
<path d="M95.3398 138.81V121.68H112.47L95.3398 138.81Z" fill="#D2D2D2"/>
<path d="M103.91 138.81L121.03 121.68H112.47L95.3398 138.81H103.91Z" fill="#F5F5F5"/>
<path d="M352.77 138.81V121.68H369.9L352.77 138.81Z" fill="#DBDBDB"/>
<path d="M361.34 138.81L378.47 121.68H369.9L352.77 138.81H361.34Z" fill="#F9F9F9"/>
<path d="M127.86 115.59H121.41C120.721 115.59 120.038 115.452 119.403 115.183C118.768 114.914 118.194 114.52 117.714 114.025C117.235 113.529 116.86 112.943 116.612 112.299C116.364 111.656 116.248 110.969 116.27 110.28L117.09 86H132.17L133 110.32C133.018 111.006 132.898 111.688 132.647 112.327C132.397 112.966 132.021 113.548 131.542 114.039C131.063 114.53 130.49 114.92 129.858 115.187C129.226 115.453 128.546 115.59 127.86 115.59Z" fill="#FCFCFC"/>
<path d="M175.506 100.194C181.099 94.6013 181.099 85.5344 175.506 79.9421C169.914 74.3498 160.847 74.3498 155.255 79.9421C149.662 85.5344 149.662 94.6013 155.255 100.194C160.847 105.786 169.914 105.786 175.506 100.194Z" fill="#FCFCFC"/>
<path d="M166.38 115.38H164.38V105.89H165.38C169.576 105.89 173.599 104.223 176.566 101.256C179.533 98.2896 181.2 94.2657 181.2 90.07C181.2 85.8743 179.533 81.8504 176.566 78.8836C173.599 75.9167 169.576 74.25 165.38 74.25V72.25C170.014 72.2586 174.462 74.0719 177.781 77.3052C181.1 80.5386 183.03 84.9378 183.16 89.5697C183.29 94.2017 181.611 98.7022 178.478 102.117C175.345 105.531 171.006 107.591 166.38 107.86V115.38Z" fill="#E0E0E0"/>
<path d="M173.79 115.59H156.79C156.793 114.579 157.196 113.61 157.912 112.895C158.629 112.181 159.599 111.78 160.61 111.78H170C171.011 111.78 171.982 112.181 172.698 112.895C173.414 113.61 173.817 114.579 173.82 115.59H173.79Z" fill="#E0E0E0"/>
<path d="M126.9 115.59L140.35 102.14L153.81 115.59H126.9Z" fill="#F5F5F5"/>
<path d="M140.35 102.14L126.9 115.59H140.35V102.14Z" fill="#D2D2D2"/>
<path d="M234.14 98C234.07 99.28 234.03 100.29 234.03 101C234.029 103.786 234.635 106.539 235.808 109.066C236.981 111.593 238.691 113.833 240.82 115.63H264.47C266.599 113.833 268.31 111.593 269.482 109.066C270.655 106.539 271.262 103.786 271.26 101C271.26 100.32 271.26 99.31 271.15 98H234.14Z" fill="#F5F5F5"/>
<path d="M237.37 102.92C237.363 102.326 237.121 101.759 236.698 101.341C236.275 100.924 235.705 100.69 235.11 100.69H221.64C221.047 100.692 220.478 100.927 220.056 101.344C219.633 101.761 219.391 102.327 219.38 102.92V103.08C218.895 102.927 218.39 102.846 217.88 102.84C215.67 102.84 214.19 104.56 214.19 107.13C214.19 109.7 216.77 111.42 219.08 111.42C219.312 111.417 219.543 111.394 219.77 111.35C220.311 112.999 221.297 114.467 222.62 115.59H234.14C235.177 114.716 236.009 113.625 236.579 112.395C237.149 111.165 237.443 109.826 237.44 108.47C237.44 107.57 237.41 105.49 237.37 102.92ZM219.08 110C217.51 110 215.62 108.73 215.62 107.15C215.62 106.48 215.79 104.29 217.88 104.29C218.388 104.303 218.889 104.418 219.35 104.63C219.35 106.4 219.35 107.8 219.35 108.49C219.353 108.989 219.397 109.488 219.48 109.98L219.08 110Z" fill="#E0E0E0"/>
<path d="M344.05 115.59L342.17 94.04H369.5L371.38 115.59H344.05Z" fill="#FCFCFC"/>
<path d="M344.05 115.59L342.17 94.04H340.69L342.58 115.59H344.05Z" fill="#DBDBDB"/>
<path d="M346.65 113.4L345.14 96.24H366.9L368.41 113.4H346.65Z" fill="#F9F9F9"/>
<path d="M348.31 111.98L347.06 97.6499H365.24L366.49 111.98H348.31Z" fill="#E0E0E0"/>
<path d="M313.24 115.59H340.69L337.65 80.77H310.19L313.24 115.59Z" fill="#FCFCFC"/>
<path d="M313.24 115.59H311.93L308.88 80.77H310.19L313.24 115.59Z" fill="#DBDBDB"/>
<path d="M315.72 112.04H337.58L335.16 84.3201H313.3L315.72 112.04Z" fill="#DBDBDB"/>
<path d="M317.32 109.76H335.58L333.56 86.6101H315.3L317.32 109.76Z" fill="#F9F9F9"/>
<path d="M323.568 91.0228L320.535 94.0563C319.293 95.2982 319.293 97.3117 320.535 98.5535L323.568 101.587C324.81 102.829 326.824 102.829 328.065 101.587L331.099 98.5535C332.341 97.3117 332.341 95.2982 331.099 94.0563L328.065 91.0228C326.824 89.781 324.81 89.781 323.568 91.0228Z" fill="#E0E0E0"/>
<path d="M325.392 98.5632L323.263 100.692C322.021 101.933 322.021 103.947 323.263 105.189L325.392 107.317C326.634 108.559 328.647 108.559 329.889 107.317L332.017 105.189C333.259 103.947 333.259 101.933 332.017 100.692L329.889 98.5632C328.647 97.3213 326.634 97.3213 325.392 98.5632Z" fill="#D2D2D2"/>
<path d="M245.18 423.71C352.263 423.71 439.07 418.642 439.07 412.39C439.07 406.138 352.263 401.07 245.18 401.07C138.098 401.07 51.29 406.138 51.29 412.39C51.29 418.642 138.098 423.71 245.18 423.71Z" fill="#A3C7EA"/>
<path d="M373.34 158.83L360.84 178.83L336 191.93L326.06 195.03C325.337 195.253 324.72 195.729 324.32 196.37C324.32 196.37 318.85 203.85 318.48 206.74C318.39 207.49 320.97 206.28 321.48 205.74C322.56 204.64 324.92 201.33 324.92 201.33C324.92 201.33 329.92 203.65 331.64 203.5C333.55 203.34 337.02 201.28 338.42 199.97C339.491 198.761 340.493 197.493 341.42 196.17C341.42 196.17 363.75 190.09 369.42 185.17C373.92 181.28 381.25 164.5 381.25 164.5L373.34 158.83Z" fill="#CE7A63"/>
<path d="M386.09 141C386.09 141 378.49 142.61 368.14 160.63L381.78 168.29C381.78 168.29 393.81 143.75 386.09 141Z" fill="#263238"/>
<path d="M368.35 159.82L381.9 167.63C382.198 167.799 382.42 168.075 382.522 168.402C382.624 168.728 382.598 169.082 382.45 169.39L381.91 170.51C381.829 170.675 381.715 170.823 381.575 170.943C381.435 171.063 381.272 171.153 381.096 171.208C380.921 171.263 380.735 171.282 380.552 171.264C380.369 171.245 380.191 171.189 380.03 171.1L366.29 163.46C366.133 163.374 365.996 163.257 365.885 163.117C365.774 162.977 365.691 162.816 365.643 162.644C365.595 162.472 365.581 162.292 365.603 162.114C365.625 161.937 365.681 161.765 365.77 161.61L366.49 160.33C366.578 160.174 366.696 160.037 366.838 159.927C366.979 159.817 367.141 159.736 367.314 159.688C367.487 159.641 367.667 159.628 367.845 159.651C368.023 159.673 368.194 159.731 368.35 159.82Z" fill="#263238"/>
<path opacity="0.8" d="M368.35 159.82L381.9 167.63C382.198 167.799 382.42 168.075 382.522 168.402C382.624 168.728 382.598 169.082 382.45 169.39L381.91 170.51C381.829 170.675 381.715 170.823 381.575 170.943C381.435 171.063 381.272 171.153 381.096 171.208C380.921 171.263 380.735 171.282 380.552 171.264C380.369 171.245 380.191 171.189 380.03 171.1L366.29 163.46C366.133 163.374 365.996 163.257 365.885 163.117C365.774 162.977 365.691 162.816 365.643 162.644C365.595 162.472 365.581 162.292 365.603 162.114C365.625 161.937 365.681 161.765 365.77 161.61L366.49 160.33C366.578 160.174 366.696 160.037 366.838 159.927C366.979 159.817 367.141 159.736 367.314 159.688C367.487 159.641 367.667 159.628 367.845 159.651C368.023 159.673 368.194 159.731 368.35 159.82Z" fill="black"/>
<path opacity="0.2" d="M381.78 168.26C381.78 168.26 383.91 163.91 385.78 158.67L385.3 156.52L379.46 149C376.606 153.391 374.153 158.03 372.13 162.86L381.78 168.26Z" fill="black"/>
<path d="M441 380.9C441.65 389.48 442 395.09 442 395.09L432.5 396.5C432.5 396.5 431.39 390.73 429.72 381.87L441 380.9Z" fill="#CE7A63"/>
<path d="M428 394C426.81 394 425.58 393.86 425.17 393.36C425.063 393.215 425.005 393.04 425.005 392.86C425.005 392.68 425.063 392.505 425.17 392.36C425.244 392.226 425.344 392.109 425.464 392.014C425.584 391.92 425.722 391.85 425.87 391.81C427.45 391.31 430.87 393.1 430.99 393.18C431.031 393.202 431.064 393.236 431.085 393.277C431.107 393.318 431.115 393.364 431.11 393.41C431.101 393.457 431.08 393.5 431.048 393.535C431.016 393.571 430.975 393.596 430.93 393.61C429.966 393.821 428.986 393.952 428 394ZM426.42 392.19C426.274 392.193 426.129 392.217 425.99 392.26C425.897 392.28 425.809 392.319 425.733 392.376C425.657 392.433 425.595 392.506 425.55 392.59C425.4 392.88 425.46 393.01 425.55 393.09C426.01 393.69 428.42 393.63 430.19 393.35C429.012 392.725 427.726 392.328 426.4 392.18L426.42 392.19Z" fill="#13599E"/>
<path d="M430.859 393.61H430.759C429.599 393.14 427.239 391.15 427.399 390.07C427.399 389.81 427.599 389.49 428.219 389.4C428.445 389.368 428.675 389.383 428.895 389.443C429.115 389.503 429.321 389.608 429.499 389.75C430.749 390.7 431.089 393.27 431.109 393.39C431.111 393.431 431.103 393.471 431.085 393.507C431.068 393.544 431.042 393.576 431.009 393.6C430.963 393.623 430.909 393.626 430.859 393.61ZM428.389 389.83H428.259C427.849 389.88 427.829 390.04 427.819 390.1C427.819 390.75 429.339 392.32 430.549 392.98C430.399 391.899 429.921 390.891 429.179 390.09C428.958 389.909 428.675 389.819 428.389 389.84V389.83Z" fill="#13599E"/>
<path d="M431.82 392.25L442.25 391.89C442.44 391.886 442.627 391.946 442.779 392.06C442.931 392.174 443.041 392.336 443.09 392.52L445.26 400.94C445.307 401.118 445.318 401.304 445.293 401.486C445.268 401.668 445.207 401.844 445.114 402.003C445.022 402.161 444.898 402.3 444.752 402.411C444.605 402.523 444.438 402.604 444.26 402.65C444.164 402.66 444.067 402.66 443.97 402.65C440.21 402.71 436.86 402.65 432.18 402.79C426.66 402.97 428.08 403.59 421.59 403.9C417.68 404.08 416.82 399.66 418.47 399.39C426.03 398.18 426.74 395.86 429.57 393.04C430.198 392.511 430.999 392.23 431.82 392.25Z" fill="#263238"/>
<path opacity="0.2" d="M441 380.9L429.76 381.9C430 383.22 430.24 384.45 430.46 385.62L441.29 384.87C441.17 383.61 441.07 382.3 441 380.9Z" fill="black"/>
<path d="M393.12 379.26C392.25 387.82 391.65 393.42 391.65 393.42L382.05 393.14C382.05 393.14 381.97 387.25 381.88 378.24L393.12 379.26Z" fill="#CE7A63"/>
<path d="M377.72 391.46C376.53 391.46 375.29 391.31 374.89 390.81C374.781 390.666 374.723 390.491 374.723 390.31C374.723 390.13 374.781 389.954 374.89 389.81C374.963 389.677 375.061 389.56 375.18 389.466C375.298 389.371 375.434 389.302 375.58 389.26C377.17 388.77 380.58 390.58 380.7 390.66C380.742 390.684 380.775 390.719 380.797 390.762C380.818 390.805 380.826 390.853 380.82 390.9C380.811 390.945 380.789 390.987 380.757 391.021C380.725 391.054 380.685 391.078 380.64 391.09C379.68 391.299 378.702 391.423 377.72 391.46ZM376.14 389.64C375.995 389.649 375.851 389.672 375.71 389.71C375.619 389.731 375.533 389.771 375.459 389.828C375.385 389.885 375.324 389.958 375.28 390.04C375.12 390.33 375.18 390.46 375.28 390.54C375.74 391.15 378.15 391.09 379.92 390.83C378.747 390.197 377.464 389.793 376.14 389.64Z" fill="#13599E"/>
<path d="M380.59 391.11C380.561 391.12 380.529 391.12 380.5 391.11C379.34 390.64 376.99 388.63 377.16 387.55C377.16 387.29 377.37 386.97 377.99 386.89C378.214 386.859 378.443 386.874 378.661 386.935C378.879 386.995 379.083 387.099 379.26 387.24C380.5 388.24 380.83 390.77 380.85 390.89C380.854 390.931 380.846 390.972 380.829 391.009C380.811 391.046 380.784 391.077 380.75 391.1C380.7 391.123 380.643 391.127 380.59 391.11ZM378.15 387.3H378C377.59 387.3 377.57 387.51 377.56 387.56C377.56 388.21 379.07 389.79 380.27 390.46C380.131 389.38 379.659 388.37 378.92 387.57C378.698 387.388 378.417 387.292 378.13 387.3H378.15Z" fill="#13599E"/>
<path d="M381.57 389.74L391.99 389.45C392.181 389.442 392.369 389.5 392.522 389.615C392.675 389.73 392.784 389.894 392.83 390.08L394.95 398.51C394.997 398.688 395.008 398.873 394.983 399.056C394.958 399.238 394.897 399.413 394.804 399.572C394.711 399.731 394.588 399.87 394.442 399.981C394.295 400.092 394.128 400.173 393.95 400.22C393.854 400.23 393.756 400.23 393.66 400.22C389.9 400.22 386.55 400.15 381.87 400.29C376.35 400.44 377.77 401.06 371.28 401.34C367.37 401.5 366.53 397.07 368.18 396.81C375.75 395.64 376.47 393.32 379.32 390.52C379.953 390 380.751 389.723 381.57 389.74Z" fill="#263238"/>
<path opacity="0.2" d="M381.93 382.53L392.74 382.99C392.86 381.82 392.99 380.58 393.12 379.26L381.88 378.26C381.9 379.77 381.91 381.19 381.93 382.53Z" fill="black"/>
<path d="M376.51 222.22L377.17 287.55L380.88 376.27L395.23 377.83C398.434 361.099 400.191 344.123 400.48 327.09C400.65 316.47 398.17 305.85 398.18 296.09C398.18 288.89 400.69 283.55 403.18 267.75C405.58 252.75 408 234.84 408.32 221.89L376.51 222.22Z" fill="#13599E"/>
<path opacity="0.2" d="M405 256.19L402.77 247.57L397.56 246.5C397.56 246.5 396.45 272.12 398.97 289C399.9 284.13 401.57 278.25 403.25 267.75C403.81 264 404.41 260.14 405 256.19Z" fill="black"/>
<path d="M393.109 222.22L406.249 294.44L428.569 381.77L441.699 380.77C441.16 363.14 439.426 345.566 436.509 328.17C434.359 315.9 429.509 304 427.059 293.11C425.399 285.71 426.399 279.67 425.729 262.82C425.209 249.76 426.449 234.67 421.999 222.2L393.109 222.22Z" fill="#13599E"/>
<path d="M375.85 167.22C377.52 149.22 380.85 138.22 396.52 138.89C412.19 139.56 427.52 137.89 424.85 159.22C422.18 180.55 423.85 223.12 423.85 223.12H375.52C375.52 223.12 375.94 207.8 376.02 190.96C376.06 182.15 375.28 173.41 375.85 167.22Z" fill="#263238"/>
<path d="M391.54 139.12C395.92 138.33 397.41 136.63 397 132.91C396.91 131.981 396.76 131.059 396.55 130.15L403.36 124.46L408.36 120.32C407.01 126.37 406.31 139.04 409.93 139.92C408.23 141.41 406.62 144.07 404.31 145.21C402.25 146.21 399.31 146.42 396.56 146.42C394.73 146.17 392.72 145.72 391.98 144.71C390.33 142.47 391.54 139.12 391.54 139.12Z" fill="#CE7A63"/>
<path opacity="0.2" d="M396.55 130.15C396.76 131.059 396.91 131.981 397 132.91C399.56 132.41 403.4 130.13 403.75 127.25C403.73 126.308 403.599 125.372 403.36 124.46L396.55 130.15Z" fill="black"/>
<path d="M407.839 108.08C408.839 116.25 409.909 120.97 406.599 125.98C401.689 133.51 391.129 131.98 387.719 124.29C384.609 117.43 383.519 105.21 390.719 100.29C392.27 99.1945 394.08 98.5238 395.971 98.3445C397.861 98.1652 399.765 98.4837 401.494 99.2683C403.223 100.053 404.716 101.276 405.826 102.817C406.936 104.358 407.623 106.162 407.819 108.05L407.839 108.08Z" fill="#CE7A63"/>
<path d="M396 113.06C396.13 113.73 395.88 114.33 395.45 114.42C395.02 114.51 394.58 114.06 394.45 113.42C394.32 112.78 394.57 112.15 394.99 112.06C395.41 111.97 395.91 112.41 396 113.06Z" fill="#263238"/>
<path d="M388.36 114.52C388.49 115.18 388.24 115.79 387.82 115.87C387.4 115.95 386.95 115.51 386.82 114.87C386.69 114.23 386.94 113.6 387.37 113.51C387.8 113.42 388.24 113.86 388.36 114.52Z" fill="#263238"/>
<path d="M391.37 114.43C391.01 116.295 390.44 118.114 389.67 119.85C390.119 120.053 390.607 120.158 391.1 120.158C391.593 120.158 392.08 120.053 392.53 119.85L391.37 114.43Z" fill="#BA4D3C"/>
<path d="M397 109.36C397.05 109.322 397.089 109.27 397.11 109.21C397.13 109.163 397.14 109.113 397.14 109.063C397.14 109.012 397.13 108.963 397.11 108.916C397.09 108.869 397.062 108.827 397.026 108.792C396.99 108.757 396.947 108.729 396.9 108.71C396.335 108.477 395.721 108.384 395.112 108.437C394.503 108.491 393.916 108.691 393.4 109.02C393.36 109.05 393.325 109.089 393.3 109.133C393.274 109.176 393.258 109.225 393.251 109.275C393.245 109.326 393.248 109.377 393.262 109.426C393.275 109.475 393.299 109.52 393.33 109.56C393.36 109.601 393.398 109.636 393.441 109.663C393.484 109.689 393.533 109.707 393.583 109.714C393.634 109.722 393.685 109.719 393.734 109.706C393.784 109.694 393.83 109.671 393.87 109.64C394.279 109.378 394.746 109.219 395.231 109.177C395.715 109.135 396.202 109.212 396.65 109.4C396.707 109.423 396.769 109.431 396.83 109.424C396.891 109.417 396.95 109.395 397 109.36Z" fill="#263238"/>
<path d="M388.53 110.07C388.563 110.018 388.587 109.961 388.6 109.9C388.607 109.85 388.604 109.799 388.591 109.751C388.578 109.702 388.555 109.656 388.525 109.616C388.494 109.576 388.456 109.542 388.412 109.517C388.368 109.492 388.32 109.476 388.27 109.47C387.665 109.387 387.05 109.45 386.475 109.656C385.9 109.861 385.384 110.202 384.97 110.65C384.936 110.688 384.911 110.732 384.896 110.78C384.881 110.828 384.877 110.879 384.882 110.928C384.888 110.978 384.904 111.027 384.929 111.07C384.955 111.113 384.989 111.151 385.03 111.18C385.069 111.213 385.114 111.238 385.163 111.253C385.212 111.268 385.264 111.274 385.315 111.269C385.366 111.265 385.416 111.25 385.461 111.226C385.507 111.202 385.547 111.17 385.58 111.13C385.906 110.771 386.316 110.498 386.773 110.336C387.23 110.174 387.72 110.127 388.2 110.2C388.261 110.208 388.324 110.2 388.381 110.177C388.439 110.155 388.49 110.118 388.53 110.07Z" fill="#263238"/>
<path d="M406.63 116.23C406.63 116.23 404.55 116.23 404.13 112.56C403.867 110.325 403.217 108.153 402.21 106.14C402.21 106.14 397.38 106.14 395.63 103.73C395.63 103.73 383.77 110.17 379.96 105.56C376.38 101.23 384.86 100.73 384.86 100.73C384.86 100.73 380.8 96.1401 383.21 93.9801C385.62 91.8201 391.71 95.3901 391.71 95.3901C391.71 95.3901 390.42 90.8101 395.23 91.3101C400.04 91.8101 401.3 95.1401 401.3 95.1401C401.3 95.1401 407.8 92.5601 410.55 95.9801C412.33 98.1901 409.6 100.56 409.6 100.56C409.6 100.56 413.21 100.67 414.13 103.73C414.88 106.23 412.33 108.01 411.55 108.56C409.27 110.14 408.85 118.31 408.85 118.31L406.63 116.23Z" fill="#263238"/>
<path d="M384.669 103.06C384.669 103.06 378.979 105.77 380.109 109.51C381.239 113.25 385.029 112.51 386.269 111.51C387.789 110.23 390.189 104.6 390.189 104.6L384.669 103.06Z" fill="#263238"/>
<path d="M412.349 115C411.903 116.988 410.774 118.757 409.159 120C407.089 121.53 405.519 119.68 405.629 117.08C405.739 114.74 406.939 111.08 409.229 110.65C411.519 110.22 412.909 112.46 412.349 115Z" fill="#CE7A63"/>
<path d="M396.999 122.49C397.35 122.31 397.685 122.099 397.999 121.86C398.045 121.826 398.075 121.776 398.085 121.72C398.094 121.664 398.081 121.607 398.049 121.56C398.031 121.54 398.008 121.525 397.983 121.514C397.958 121.503 397.931 121.498 397.904 121.498C397.877 121.498 397.85 121.503 397.825 121.514C397.801 121.525 397.778 121.54 397.759 121.56C397.051 122.11 396.223 122.487 395.343 122.661C394.463 122.834 393.554 122.8 392.689 122.56C392.638 122.54 392.58 122.542 392.53 122.565C392.479 122.587 392.439 122.629 392.419 122.68C392.399 122.733 392.401 122.792 392.423 122.844C392.445 122.896 392.487 122.938 392.539 122.96C394.031 123.386 395.629 123.217 396.999 122.49Z" fill="#263238"/>
<path d="M393.29 138.52C393.32 138.516 393.35 138.52 393.378 138.533C393.405 138.545 393.429 138.565 393.446 138.59C393.462 138.615 393.472 138.644 393.472 138.674C393.473 138.704 393.465 138.734 393.45 138.76C392.6 140.13 389.39 145.99 396.89 146.1C404.89 146.22 408.89 139.91 409.37 139.1C409.385 139.075 409.408 139.055 409.435 139.043C409.461 139.03 409.491 139.026 409.52 139.03L411.67 139.24C411.715 139.246 411.758 139.261 411.797 139.284C411.836 139.307 411.87 139.338 411.897 139.374C411.924 139.41 411.944 139.452 411.954 139.496C411.965 139.54 411.967 139.585 411.96 139.63C410.839 144.655 407.814 149.05 403.52 151.89C402.987 150.477 402.058 149.247 400.846 148.346C399.633 147.445 398.187 146.912 396.68 146.81C391.43 146.47 387.27 150.72 387.27 150.72C387.27 150.72 385.62 143.63 390.89 138.92C390.942 138.871 391.009 138.839 391.08 138.83L393.29 138.52Z" fill="#263238"/>
<path opacity="0.8" d="M393.29 138.52C393.32 138.516 393.35 138.52 393.378 138.533C393.405 138.545 393.429 138.565 393.446 138.59C393.462 138.615 393.472 138.644 393.472 138.674C393.473 138.704 393.465 138.734 393.45 138.76C392.6 140.13 389.39 145.99 396.89 146.1C404.89 146.22 408.89 139.91 409.37 139.1C409.385 139.075 409.408 139.055 409.435 139.043C409.461 139.03 409.491 139.026 409.52 139.03L411.67 139.24C411.715 139.246 411.758 139.261 411.797 139.284C411.836 139.307 411.87 139.338 411.897 139.374C411.924 139.41 411.944 139.452 411.954 139.496C411.965 139.54 411.967 139.585 411.96 139.63C410.839 144.655 407.814 149.05 403.52 151.89C402.987 150.477 402.058 149.247 400.846 148.346C399.633 147.445 398.187 146.912 396.68 146.81C391.43 146.47 387.27 150.72 387.27 150.72C387.27 150.72 385.62 143.63 390.89 138.92C390.942 138.871 391.009 138.839 391.08 138.83L393.29 138.52Z" fill="black"/>
<path opacity="0.2" d="M415 151C415 151 414.47 173.44 423.44 181.83C423.63 173.47 424.04 165.41 424.81 159.26C425.026 157.602 425.122 155.931 425.1 154.26L420.79 151H415Z" fill="black"/>
<path d="M419.9 169C419.9 169 407.67 142.1 416.64 141.45C425.61 140.8 434.39 159.29 434.39 159.29L419.9 169Z" fill="#263238"/>
<path d="M422.1 166.6C422.1 166.6 427.98 181.97 429.1 191.28C428.17 201.257 426.499 211.151 424.1 220.88C424.1 220.88 420.1 225.28 419.29 228.72C418.48 232.16 417.29 233.46 421.29 234.93C425.29 236.4 428.29 235.09 429.79 233.13C431.29 231.17 430.61 221.36 430.61 221.36C430.61 221.36 438.45 197.82 438.94 189.49C439.43 181.16 430.94 160.39 430.94 160.39L422.1 166.6Z" fill="#CE7A63"/>
<path d="M418.399 167.48L419.229 169.61C419.284 169.746 419.368 169.868 419.476 169.967C419.583 170.067 419.71 170.141 419.85 170.186C419.989 170.231 420.136 170.245 420.281 170.226C420.426 170.208 420.566 170.158 420.689 170.08L435.349 160.29C435.554 160.146 435.697 159.931 435.751 159.687C435.805 159.442 435.765 159.187 435.639 158.97L434.459 156.97C434.389 156.858 434.297 156.761 434.189 156.684C434.081 156.608 433.959 156.553 433.829 156.524C433.7 156.496 433.566 156.493 433.436 156.516C433.305 156.539 433.181 156.588 433.069 156.66L418.769 166.28C418.58 166.408 418.44 166.597 418.373 166.815C418.305 167.033 418.315 167.268 418.399 167.48Z" fill="#263238"/>
<path opacity="0.8" d="M418.399 167.48L419.229 169.61C419.284 169.746 419.368 169.868 419.476 169.967C419.583 170.067 419.71 170.141 419.85 170.186C419.989 170.231 420.136 170.245 420.281 170.226C420.426 170.208 420.566 170.158 420.689 170.08L435.349 160.29C435.554 160.146 435.697 159.931 435.751 159.687C435.805 159.442 435.765 159.187 435.639 158.97L434.459 156.97C434.389 156.858 434.297 156.761 434.189 156.684C434.081 156.608 433.959 156.553 433.829 156.524C433.7 156.496 433.566 156.493 433.436 156.516C433.305 156.539 433.181 156.588 433.069 156.66L418.769 166.28C418.58 166.408 418.44 166.597 418.373 166.815C418.305 167.033 418.315 167.268 418.399 167.48Z" fill="black"/>
<path d="M444.379 380.91L427.109 382.63L425.649 376.93L444.689 375.03L444.379 380.91Z" fill="#13599E"/>
<path opacity="0.3" d="M444.379 380.91L427.109 382.63L425.649 376.93L444.689 375.03L444.379 380.91Z" fill="black"/>
<path d="M396.59 379.77L379.56 379.04L378.76 373.23L397.89 374.05L396.59 379.77Z" fill="#13599E"/>
<path opacity="0.3" d="M396.59 379.77L379.56 379.04L378.76 373.23L397.89 374.05L396.59 379.77Z" fill="black"/>
<path d="M345.64 159.64C345.698 160.177 345.642 160.72 345.474 161.234C345.306 161.747 345.031 162.219 344.667 162.618C344.303 163.017 343.858 163.335 343.362 163.549C342.866 163.763 342.33 163.869 341.79 163.86H339.22L331.86 171.93L323.08 163.86H310.67C309.522 163.839 308.42 163.398 307.575 162.621C306.729 161.843 306.197 160.783 306.08 159.64L303.36 128.52C303.302 127.983 303.358 127.441 303.526 126.928C303.694 126.415 303.969 125.943 304.334 125.545C304.698 125.147 305.143 124.83 305.639 124.618C306.135 124.405 306.67 124.3 307.21 124.31H338.33C339.476 124.331 340.575 124.771 341.419 125.546C342.262 126.322 342.793 127.38 342.91 128.52L345.64 159.64Z" stroke="#13599E" stroke-miterlimit="10"/>
<path d="M337.87 156.137C341.471 152.375 341.063 146.14 336.957 142.21C332.852 138.28 326.605 138.144 323.003 141.906C319.402 145.668 319.81 151.904 323.916 155.834C328.021 159.764 334.268 159.9 337.87 156.137Z" fill="#13599E"/>
<path d="M328.018 156.143C331.62 152.38 331.211 146.145 327.106 142.215C323.001 138.285 316.753 138.149 313.152 141.911C309.55 145.673 309.959 151.909 314.064 155.839C318.169 159.769 324.417 159.905 328.018 156.143Z" fill="#13599E"/>
<path d="M314.79 139.16C315.071 141.823 316.315 144.291 318.286 146.103C320.258 147.914 322.823 148.944 325.5 149C326.762 149.023 328.014 148.777 329.174 148.278C330.333 147.78 331.373 147.04 332.225 146.108C333.076 145.176 333.719 144.074 334.112 142.874C334.504 141.674 334.636 140.405 334.5 139.15C334.22 136.486 332.978 134.015 331.006 132.201C329.034 130.388 326.468 129.356 323.79 129.3C322.527 129.277 321.273 129.523 320.113 130.022C318.953 130.522 317.912 131.262 317.06 132.195C316.209 133.128 315.566 134.232 315.174 135.433C314.783 136.634 314.652 137.904 314.79 139.16Z" fill="#13599E"/>
<path opacity="0.3" d="M337.87 156.137C341.471 152.375 341.063 146.14 336.957 142.21C332.852 138.28 326.605 138.144 323.003 141.906C319.402 145.668 319.81 151.904 323.916 155.834C328.021 159.764 334.268 159.9 337.87 156.137Z" fill="white"/>
<path opacity="0.2" d="M328.018 156.143C331.62 152.38 331.211 146.145 327.106 142.215C323.001 138.285 316.753 138.149 313.152 141.911C309.55 145.673 309.959 151.909 314.064 155.839C318.169 159.769 324.417 159.905 328.018 156.143Z" fill="black"/>
<path opacity="0.6" d="M314.79 139.16C315.071 141.823 316.315 144.291 318.286 146.103C320.258 147.914 322.823 148.944 325.5 149C326.762 149.023 328.014 148.777 329.174 148.278C330.333 147.78 331.373 147.04 332.225 146.108C333.076 145.176 333.719 144.074 334.112 142.874C334.504 141.674 334.636 140.405 334.5 139.15C334.22 136.486 332.978 134.015 331.006 132.201C329.034 130.388 326.468 129.356 323.79 129.3C322.527 129.277 321.273 129.523 320.113 130.022C318.953 130.522 317.912 131.262 317.06 132.195C316.209 133.128 315.566 134.232 315.174 135.433C314.783 136.634 314.652 137.904 314.79 139.16Z" fill="white"/>
<path d="M298.88 145.53C298.924 145.932 298.882 146.338 298.757 146.722C298.631 147.106 298.426 147.459 298.153 147.757C297.881 148.055 297.547 148.292 297.176 148.451C296.805 148.61 296.404 148.688 296 148.68H292.93L286.79 155.41L279.47 148.68H268.06C267.201 148.665 266.377 148.337 265.743 147.757C265.11 147.176 264.71 146.384 264.62 145.53L262.18 117.58C262.136 117.178 262.178 116.771 262.303 116.387C262.429 116.002 262.634 115.649 262.907 115.35C263.179 115.051 263.512 114.814 263.883 114.653C264.255 114.493 264.656 114.413 265.06 114.42H293C293.858 114.44 294.68 114.771 295.311 115.353C295.943 115.935 296.34 116.726 296.43 117.58L298.88 145.53Z" stroke="#13599E" stroke-miterlimit="10"/>
<path d="M291.22 131H287.48C287.172 129.314 286.321 127.774 285.057 126.615C283.794 125.456 282.187 124.742 280.48 124.58L280.15 120.84C280.133 120.683 280.06 120.538 279.944 120.432C279.828 120.325 279.677 120.264 279.52 120.26C279.446 120.26 279.372 120.275 279.305 120.305C279.237 120.334 279.176 120.378 279.126 120.432C279.076 120.487 279.038 120.552 279.015 120.622C278.991 120.692 278.983 120.766 278.99 120.84L279.32 124.58C277.707 124.697 276.201 125.428 275.111 126.623C274.021 127.817 273.43 129.383 273.46 131H269.72C269.646 131 269.573 131.015 269.506 131.044C269.439 131.074 269.378 131.118 269.329 131.173C269.28 131.228 269.243 131.292 269.221 131.363C269.198 131.433 269.191 131.507 269.2 131.58C269.215 131.737 269.287 131.884 269.403 131.991C269.52 132.098 269.672 132.158 269.83 132.16H273.56C273.87 133.846 274.721 135.385 275.984 136.543C277.247 137.702 278.853 138.417 280.56 138.58L280.89 142.32C280.907 142.477 280.98 142.622 281.096 142.728C281.212 142.835 281.362 142.896 281.52 142.9C281.594 142.902 281.668 142.888 281.737 142.859C281.805 142.83 281.867 142.786 281.917 142.731C281.967 142.676 282.005 142.611 282.028 142.54C282.051 142.469 282.058 142.394 282.05 142.32L281.72 138.58C283.333 138.465 284.841 137.735 285.931 136.54C287.022 135.345 287.612 133.777 287.58 132.16H291.32C291.394 132.162 291.468 132.148 291.537 132.119C291.605 132.09 291.667 132.046 291.717 131.991C291.767 131.936 291.805 131.871 291.828 131.8C291.851 131.729 291.858 131.654 291.85 131.58C291.833 131.423 291.76 131.278 291.644 131.172C291.528 131.065 291.377 131.004 291.22 131ZM286.32 131H285C284.774 129.998 284.248 129.09 283.492 128.395C282.736 127.7 281.787 127.252 280.77 127.11L280.65 125.74C282.028 125.909 283.318 126.508 284.336 127.452C285.354 128.397 286.048 129.638 286.32 131ZM279.9 131H277.18C277.232 130.336 277.505 129.707 277.954 129.215C278.403 128.722 279.003 128.393 279.66 128.28L279.9 131ZM280 132.16L280.24 134.88C279.54 134.754 278.892 134.431 278.369 133.949C277.847 133.467 277.472 132.847 277.29 132.16H280ZM281.16 132.16H283.88C283.827 132.824 283.555 133.453 283.106 133.945C282.657 134.438 282.057 134.767 281.4 134.88L281.16 132.16ZM281.06 131L280.82 128.28C281.525 128.404 282.181 128.726 282.712 129.207C283.243 129.688 283.627 130.31 283.82 131H281.06ZM279.44 125.74L279.56 127.11C278.596 127.216 277.703 127.67 277.048 128.385C276.393 129.101 276.021 130.03 276 131H274.63C274.622 129.676 275.112 128.397 276.003 127.417C276.894 126.437 278.121 125.828 279.44 125.71V125.74ZM274.74 132.16H276.11C276.337 133.161 276.863 134.069 277.619 134.764C278.374 135.459 279.323 135.907 280.34 136.05L280.46 137.42C279.067 137.262 277.761 136.664 276.733 135.713C275.704 134.761 275.006 133.506 274.74 132.13V132.16ZM281.62 137.42L281.5 136C282.464 135.894 283.357 135.44 284.012 134.725C284.666 134.009 285.039 133.08 285.06 132.11H286.42C286.43 133.432 285.942 134.71 285.052 135.688C284.162 136.667 282.937 137.274 281.62 137.39V137.42Z" fill="#13599E"/>
<path opacity="0.5" d="M291.22 131H287.48C287.172 129.314 286.321 127.774 285.057 126.615C283.794 125.456 282.187 124.742 280.48 124.58L280.15 120.84C280.133 120.683 280.06 120.538 279.944 120.432C279.828 120.325 279.677 120.264 279.52 120.26C279.446 120.26 279.372 120.275 279.305 120.305C279.237 120.334 279.176 120.378 279.126 120.432C279.076 120.487 279.038 120.552 279.015 120.622C278.991 120.692 278.983 120.766 278.99 120.84L279.32 124.58C277.707 124.697 276.201 125.428 275.111 126.623C274.021 127.817 273.43 129.383 273.46 131H269.72C269.646 131 269.573 131.015 269.506 131.044C269.439 131.074 269.378 131.118 269.329 131.173C269.28 131.228 269.243 131.292 269.221 131.363C269.198 131.433 269.191 131.507 269.2 131.58C269.215 131.737 269.287 131.884 269.403 131.991C269.52 132.098 269.672 132.158 269.83 132.16H273.56C273.87 133.846 274.721 135.385 275.984 136.543C277.247 137.702 278.853 138.417 280.56 138.58L280.89 142.32C280.907 142.477 280.98 142.622 281.096 142.728C281.212 142.835 281.362 142.896 281.52 142.9C281.594 142.902 281.668 142.888 281.737 142.859C281.805 142.83 281.867 142.786 281.917 142.731C281.967 142.676 282.005 142.611 282.028 142.54C282.051 142.469 282.058 142.394 282.05 142.32L281.72 138.58C283.333 138.465 284.841 137.735 285.931 136.54C287.022 135.345 287.612 133.777 287.58 132.16H291.32C291.394 132.162 291.468 132.148 291.537 132.119C291.605 132.09 291.667 132.046 291.717 131.991C291.767 131.936 291.805 131.871 291.828 131.8C291.851 131.729 291.858 131.654 291.85 131.58C291.833 131.423 291.76 131.278 291.644 131.172C291.528 131.065 291.377 131.004 291.22 131ZM286.32 131H285C284.774 129.998 284.248 129.09 283.492 128.395C282.736 127.7 281.787 127.252 280.77 127.11L280.65 125.74C282.028 125.909 283.318 126.508 284.336 127.452C285.354 128.397 286.048 129.638 286.32 131ZM279.9 131H277.18C277.232 130.336 277.505 129.707 277.954 129.215C278.403 128.722 279.003 128.393 279.66 128.28L279.9 131ZM280 132.16L280.24 134.88C279.54 134.754 278.892 134.431 278.369 133.949C277.847 133.467 277.472 132.847 277.29 132.16H280ZM281.16 132.16H283.88C283.827 132.824 283.555 133.453 283.106 133.945C282.657 134.438 282.057 134.767 281.4 134.88L281.16 132.16ZM281.06 131L280.82 128.28C281.525 128.404 282.181 128.726 282.712 129.207C283.243 129.688 283.627 130.31 283.82 131H281.06ZM279.44 125.74L279.56 127.11C278.596 127.216 277.703 127.67 277.048 128.385C276.393 129.101 276.021 130.03 276 131H274.63C274.622 129.676 275.112 128.397 276.003 127.417C276.894 126.437 278.121 125.828 279.44 125.71V125.74ZM274.74 132.16H276.11C276.337 133.161 276.863 134.069 277.619 134.764C278.374 135.459 279.323 135.907 280.34 136.05L280.46 137.42C279.067 137.262 277.761 136.664 276.733 135.713C275.704 134.761 275.006 133.506 274.74 132.13V132.16ZM281.62 137.42L281.5 136C282.464 135.894 283.357 135.44 284.012 134.725C284.666 134.009 285.039 133.08 285.06 132.11H286.42C286.43 133.432 285.942 134.71 285.052 135.688C284.162 136.667 282.937 137.274 281.62 137.39V137.42Z" fill="#13599E"/>
<path d="M266.15 123.78C265.968 123.776 265.793 123.706 265.659 123.583C265.525 123.46 265.44 123.291 265.42 123.11L264.9 117.11H270.9C271.085 117.114 271.263 117.185 271.399 117.31C271.535 117.436 271.621 117.606 271.64 117.79C271.649 117.876 271.639 117.963 271.612 118.044C271.584 118.126 271.54 118.201 271.481 118.265C271.422 118.328 271.351 118.378 271.272 118.412C271.192 118.445 271.107 118.462 271.02 118.46H266.41L266.81 123.08C266.824 123.172 266.817 123.265 266.79 123.354C266.762 123.443 266.715 123.524 266.651 123.591C266.588 123.659 266.509 123.711 266.423 123.744C266.336 123.776 266.243 123.789 266.15 123.78Z" fill="#13599E"/>
<path d="M287.07 117.82C287.058 117.734 287.065 117.646 287.091 117.563C287.117 117.48 287.16 117.404 287.218 117.339C287.276 117.275 287.347 117.223 287.427 117.189C287.507 117.155 287.593 117.138 287.68 117.14H293.68L294.21 123.14C294.218 123.226 294.209 123.313 294.181 123.394C294.154 123.476 294.109 123.551 294.051 123.615C293.992 123.678 293.921 123.728 293.841 123.762C293.762 123.795 293.676 123.812 293.59 123.81C293.407 123.806 293.233 123.736 293.098 123.613C292.964 123.489 292.879 123.321 292.86 123.14L292.45 118.52H287.8C287.613 118.516 287.434 118.441 287.299 118.312C287.164 118.182 287.082 118.007 287.07 117.82Z" fill="#13599E"/>
<path d="M294.91 139.32C295.093 139.324 295.269 139.396 295.404 139.521C295.539 139.646 295.622 139.817 295.64 140L296.17 146H290.17C289.987 145.996 289.813 145.926 289.678 145.803C289.544 145.679 289.459 145.511 289.44 145.33C289.43 145.243 289.438 145.156 289.465 145.073C289.492 144.99 289.536 144.913 289.595 144.849C289.654 144.784 289.725 144.733 289.806 144.699C289.886 144.665 289.972 144.648 290.06 144.65H294.67L294.26 140.04C294.244 139.948 294.25 139.854 294.276 139.764C294.303 139.675 294.349 139.593 294.411 139.523C294.474 139.454 294.551 139.4 294.637 139.365C294.723 139.33 294.817 139.314 294.91 139.32Z" fill="#13599E"/>
<path d="M274 145.29C274.009 145.376 273.999 145.463 273.972 145.544C273.944 145.626 273.9 145.701 273.841 145.764C273.783 145.828 273.711 145.878 273.632 145.912C273.552 145.945 273.467 145.962 273.38 145.96H267.38L266.86 139.96C266.851 139.874 266.859 139.787 266.885 139.705C266.911 139.623 266.955 139.547 267.012 139.483C267.07 139.418 267.141 139.367 267.22 139.332C267.299 139.297 267.384 139.279 267.47 139.28C267.655 139.284 267.833 139.355 267.969 139.48C268.105 139.605 268.191 139.776 268.21 139.96L268.61 144.57H273.22C273.319 144.566 273.417 144.581 273.51 144.615C273.602 144.65 273.687 144.701 273.76 144.768C273.832 144.835 273.891 144.916 273.932 145.005C273.973 145.095 273.997 145.192 274 145.29Z" fill="#13599E"/>
<g opacity="0.5">
<path d="M266.15 123.78C265.968 123.776 265.793 123.706 265.659 123.583C265.525 123.46 265.44 123.291 265.42 123.11L264.9 117.11H270.9C271.085 117.114 271.263 117.185 271.399 117.31C271.535 117.436 271.621 117.606 271.64 117.79C271.649 117.876 271.639 117.963 271.612 118.044C271.584 118.126 271.54 118.201 271.481 118.265C271.422 118.328 271.351 118.378 271.272 118.412C271.192 118.445 271.107 118.462 271.02 118.46H266.41L266.81 123.08C266.824 123.172 266.817 123.265 266.79 123.354C266.762 123.443 266.715 123.524 266.651 123.591C266.588 123.659 266.509 123.711 266.423 123.744C266.336 123.776 266.243 123.789 266.15 123.78Z" fill="#13599E"/>
</g>
<g opacity="0.5">
<path d="M287.07 117.82C287.058 117.734 287.065 117.646 287.091 117.563C287.117 117.48 287.16 117.404 287.218 117.339C287.276 117.275 287.347 117.223 287.427 117.189C287.507 117.155 287.593 117.138 287.68 117.14H293.68L294.21 123.14C294.218 123.226 294.209 123.313 294.181 123.394C294.154 123.476 294.109 123.551 294.051 123.615C293.992 123.678 293.921 123.728 293.841 123.762C293.762 123.795 293.676 123.812 293.59 123.81C293.407 123.806 293.233 123.736 293.098 123.613C292.964 123.489 292.879 123.321 292.86 123.14L292.45 118.52H287.8C287.613 118.516 287.434 118.441 287.299 118.312C287.164 118.182 287.082 118.007 287.07 117.82Z" fill="#13599E"/>
</g>
<g opacity="0.5">
<path d="M294.91 139.32C295.093 139.324 295.269 139.396 295.404 139.521C295.539 139.646 295.622 139.817 295.64 140L296.17 146H290.17C289.987 145.996 289.813 145.926 289.678 145.803C289.544 145.679 289.459 145.511 289.44 145.33C289.43 145.243 289.438 145.156 289.465 145.073C289.492 144.99 289.536 144.913 289.595 144.849C289.654 144.784 289.725 144.733 289.806 144.699C289.886 144.665 289.972 144.648 290.06 144.65H294.67L294.26 140.04C294.244 139.948 294.25 139.854 294.276 139.764C294.303 139.675 294.349 139.593 294.411 139.523C294.474 139.454 294.551 139.4 294.637 139.365C294.723 139.33 294.817 139.314 294.91 139.32Z" fill="#13599E"/>
</g>
<g opacity="0.5">
<path d="M274 145.29C274.009 145.376 273.999 145.463 273.972 145.544C273.944 145.626 273.9 145.701 273.841 145.764C273.783 145.828 273.711 145.878 273.632 145.912C273.552 145.945 273.467 145.962 273.38 145.96H267.38L266.86 139.96C266.851 139.874 266.859 139.787 266.885 139.705C266.911 139.623 266.955 139.547 267.012 139.483C267.07 139.418 267.141 139.367 267.22 139.332C267.299 139.297 267.384 139.279 267.47 139.28C267.655 139.284 267.833 139.355 267.969 139.48C268.105 139.605 268.191 139.776 268.21 139.96L268.61 144.57H273.22C273.319 144.566 273.417 144.581 273.51 144.615C273.602 144.65 273.687 144.701 273.76 144.768C273.832 144.835 273.891 144.916 273.932 145.005C273.973 145.095 273.997 145.192 274 145.29Z" fill="#13599E"/>
</g>
<path d="M377.921 281.84H213.561V406.81H377.921V281.84Z" fill="#13599E"/>
<path opacity="0.8" d="M377.921 281.84H213.561V406.81H377.921V281.84Z" fill="white"/>
<path d="M224.27 281.84H156.9V406.81H224.27V281.84Z" fill="#13599E"/>
<path opacity="0.7" d="M224.27 281.84H156.9V406.81H224.27V281.84Z" fill="white"/>
<path d="M365.4 296.82H237.23V326.46H365.4V296.82Z" fill="#13599E"/>
<path opacity="0.7" d="M365.4 296.82H237.23V326.46H365.4V296.82Z" fill="white"/>
<path d="M365.4 330.62H237.23V360.26H365.4V330.62Z" fill="#13599E"/>
<path opacity="0.7" d="M365.4 330.62H237.23V360.26H365.4V330.62Z" fill="white"/>
<path d="M365.4 364.41H237.23V394.05H365.4V364.41Z" fill="#13599E"/>
<path opacity="0.7" d="M365.4 364.41H237.23V394.05H365.4V364.41Z" fill="white"/>
<path d="M309.26 303.72H293.36C292.187 303.718 291.044 303.351 290.089 302.67C289.134 301.989 288.414 301.028 288.03 299.92L286.95 296.82H315.67L314.59 299.92C314.207 301.029 313.488 301.991 312.533 302.672C311.577 303.353 310.434 303.72 309.26 303.72Z" fill="#13599E"/>
<path opacity="0.5" d="M309.26 303.72H293.36C292.187 303.718 291.044 303.351 290.089 302.67C289.134 301.989 288.414 301.028 288.03 299.92L286.95 296.82H315.67L314.59 299.92C314.207 301.029 313.488 301.991 312.533 302.672C311.577 303.353 310.434 303.72 309.26 303.72Z" fill="white"/>
<path d="M309.73 296.82L308.65 299.92C308.266 301.028 307.547 301.989 306.592 302.67C305.637 303.351 304.493 303.718 303.32 303.72H309.26C310.434 303.72 311.578 303.353 312.533 302.672C313.488 301.991 314.208 301.029 314.59 299.92L315.67 296.82H309.73Z" fill="#13599E"/>
<path opacity="0.6" d="M309.73 296.82L308.65 299.92C308.266 301.028 307.547 301.989 306.592 302.67C305.637 303.351 304.493 303.718 303.32 303.72H309.26C310.434 303.72 311.578 303.353 312.533 302.672C313.488 301.991 314.208 301.029 314.59 299.92L315.67 296.82H309.73Z" fill="white"/>
<path d="M309.26 337.52H293.36C292.187 337.518 291.044 337.152 290.089 336.471C289.134 335.79 288.414 334.828 288.03 333.72L286.95 330.62H315.67L314.59 333.72C314.207 334.829 313.488 335.791 312.533 336.472C311.577 337.154 310.434 337.52 309.26 337.52Z" fill="#13599E"/>
<path opacity="0.5" d="M309.26 337.52H293.36C292.187 337.518 291.044 337.152 290.089 336.471C289.134 335.79 288.414 334.828 288.03 333.72L286.95 330.62H315.67L314.59 333.72C314.207 334.829 313.488 335.791 312.533 336.472C311.577 337.154 310.434 337.52 309.26 337.52Z" fill="white"/>
<path d="M309.73 330.62L308.65 333.72C308.266 334.828 307.547 335.79 306.592 336.471C305.637 337.152 304.493 337.518 303.32 337.52H309.26C310.434 337.52 311.578 337.154 312.533 336.472C313.488 335.791 314.208 334.829 314.59 333.72L315.67 330.62H309.73Z" fill="#13599E"/>
<path opacity="0.6" d="M309.73 330.62L308.65 333.72C308.266 334.828 307.547 335.79 306.592 336.471C305.637 337.152 304.493 337.518 303.32 337.52H309.26C310.434 337.52 311.578 337.154 312.533 336.472C313.488 335.791 314.208 334.829 314.59 333.72L315.67 330.62H309.73Z" fill="white"/>
<path d="M309.26 371.32H293.36C292.187 371.318 291.044 370.952 290.089 370.271C289.134 369.59 288.414 368.628 288.03 367.52L287 364.41H315.72L314.64 367.52C314.254 368.637 313.528 369.605 312.562 370.287C311.597 370.969 310.442 371.33 309.26 371.32Z" fill="#13599E"/>
<path opacity="0.5" d="M309.26 371.32H293.36C292.187 371.318 291.044 370.952 290.089 370.271C289.134 369.59 288.414 368.628 288.03 367.52L287 364.41H315.72L314.64 367.52C314.254 368.637 313.528 369.605 312.562 370.287C311.597 370.969 310.442 371.33 309.26 371.32Z" fill="white"/>
<path d="M309.73 364.41L308.65 367.52C308.266 368.628 307.547 369.59 306.592 370.271C305.637 370.952 304.493 371.318 303.32 371.32H309.26C310.434 371.32 311.578 370.954 312.533 370.273C313.488 369.591 314.208 368.629 314.59 367.52L315.67 364.41H309.73Z" fill="#13599E"/>
<path opacity="0.6" d="M309.73 364.41L308.65 367.52C308.266 368.628 307.547 369.59 306.592 370.271C305.637 370.952 304.493 371.318 303.32 371.32H309.26C310.434 371.32 311.578 370.954 312.533 370.273C313.488 369.591 314.208 368.629 314.59 367.52L315.67 364.41H309.73Z" fill="white"/>
<path d="M381.67 281.84H227.33V288.6H381.67V281.84Z" fill="#13599E"/>
<path opacity="0.9" d="M381.67 281.84H227.33V288.6H381.67V281.84Z" fill="white"/>
<path d="M229.73 281.84H153.15V288.6H229.73V281.84Z" fill="#13599E"/>
<path opacity="0.8" d="M229.73 281.84H153.15V288.6H229.73V281.84Z" fill="white"/>
<path opacity="0.1" d="M292.841 281.67H357.621V306.5C357.621 307.367 357.45 308.225 357.118 309.026C356.787 309.826 356.301 310.554 355.688 311.167C355.075 311.78 354.347 312.266 353.547 312.598C352.746 312.929 351.888 313.1 351.021 313.1H302.381C301.128 313.1 299.887 312.853 298.73 312.374C297.573 311.894 296.521 311.192 295.635 310.306C294.749 309.42 294.046 308.368 293.567 307.211C293.088 306.053 292.841 304.813 292.841 303.56V281.67Z" fill="black"/>
<path d="M297.47 218.45H298.33C298.565 218.458 298.799 218.413 299.014 218.317C299.229 218.221 299.42 218.078 299.571 217.898C299.722 217.717 299.83 217.505 299.888 217.277C299.945 217.048 299.949 216.81 299.9 216.58L292.41 169.29C292.318 168.776 292.053 168.31 291.657 167.969C291.262 167.629 290.762 167.435 290.24 167.42H174.45L182.53 218.42L297.47 218.45Z" fill="#263238"/>
<path opacity="0.5" d="M297.47 218.45H298.33C298.565 218.458 298.799 218.413 299.014 218.317C299.229 218.221 299.42 218.078 299.571 217.898C299.722 217.717 299.83 217.505 299.888 217.277C299.945 217.048 299.949 216.81 299.9 216.58L292.41 169.29C292.318 168.776 292.053 168.31 291.657 167.969C291.262 167.629 290.762 167.435 290.24 167.42H174.45L182.53 218.42L297.47 218.45Z" fill="white"/>
<path d="M183.001 218.45C182.36 218.43 181.745 218.191 181.259 217.773C180.773 217.354 180.445 216.781 180.331 216.15L172.981 169.72C172.922 169.437 172.928 169.144 172.998 168.864C173.068 168.583 173.201 168.323 173.387 168.101C173.573 167.88 173.807 167.703 174.071 167.585C174.335 167.467 174.622 167.411 174.911 167.42C175.552 167.441 176.166 167.681 176.651 168.099C177.137 168.518 177.465 169.089 177.581 169.72L184.931 216.15C184.988 216.433 184.981 216.725 184.91 217.004C184.838 217.284 184.705 217.544 184.52 217.765C184.334 217.986 184.101 218.162 183.839 218.281C183.576 218.399 183.289 218.457 183.001 218.45Z" fill="#263238"/>
<path opacity="0.2" d="M183.001 218.45C182.36 218.43 181.745 218.191 181.259 217.773C180.773 217.354 180.445 216.781 180.331 216.15L172.981 169.72C172.922 169.437 172.928 169.144 172.998 168.864C173.068 168.583 173.201 168.323 173.387 168.101C173.573 167.88 173.807 167.703 174.071 167.585C174.335 167.467 174.622 167.411 174.911 167.42C175.552 167.441 176.166 167.681 176.651 168.099C177.137 168.518 177.465 169.089 177.581 169.72L184.931 216.15C184.988 216.433 184.981 216.725 184.91 217.004C184.838 217.284 184.705 217.544 184.52 217.765C184.334 217.986 184.101 218.162 183.839 218.281C183.576 218.399 183.289 218.457 183.001 218.45Z" fill="white"/>
<path d="M343.07 281.76H194.28L202.78 206.54H341.38C342.658 206.546 343.92 206.821 345.084 207.347C346.248 207.873 347.289 208.638 348.138 209.593C348.987 210.547 349.625 211.67 350.011 212.888C350.398 214.105 350.523 215.391 350.38 216.66L343.07 281.76Z" fill="#13599E"/>
<path opacity="0.2" d="M341.38 206.54H205.2V215H350.45C350.288 212.704 349.263 210.555 347.58 208.985C345.897 207.416 343.682 206.542 341.38 206.54Z" fill="white"/>
<path d="M210.4 281.76H169.66V214.16C169.66 212.139 170.463 210.201 171.892 208.772C173.321 207.343 175.259 206.54 177.28 206.54H208.71C209.988 206.546 211.25 206.821 212.414 207.347C213.578 207.873 214.618 208.638 215.467 209.593C216.316 210.547 216.955 211.67 217.341 212.888C217.728 214.105 217.853 215.391 217.71 216.66L210.4 281.76Z" fill="#13599E"/>
<path opacity="0.4" d="M210.4 281.76H169.66V214.16C169.66 212.139 170.463 210.201 171.892 208.772C173.321 207.343 175.259 206.54 177.28 206.54H208.71C209.988 206.546 211.25 206.821 212.414 207.347C213.578 207.873 214.618 208.638 215.467 209.593C216.316 210.547 216.955 211.67 217.341 212.888C217.728 214.105 217.853 215.391 217.71 216.66L210.4 281.76Z" fill="black"/>
<path d="M333.661 279.14L336.351 255.34H224.571L221.881 279.14H333.661Z" fill="#263238"/>
<path d="M267.25 275.31H380.32C380.765 275.318 381.189 275.499 381.503 275.814C381.817 276.13 381.995 276.555 382 277V277.41C382 277.864 381.82 278.298 381.499 278.619C381.178 278.94 380.744 279.12 380.29 279.12H267.25V275.29V275.31Z" fill="#263238"/>
<path opacity="0.1" d="M267.25 275.31H380.32C380.765 275.318 381.189 275.499 381.503 275.814C381.817 276.13 381.995 276.555 382 277V277.41C382 277.864 381.82 278.298 381.499 278.619C381.178 278.94 380.744 279.12 380.29 279.12H267.25V275.29V275.31Z" fill="white"/>
<path d="M334.091 275.31H364.641C364.641 273.169 363.791 271.117 362.277 269.603C360.764 268.09 358.711 267.24 356.571 267.24H335.001L334.091 275.31Z" fill="#263238"/>
<path opacity="0.3" d="M334.091 275.31H364.641C364.641 273.169 363.791 271.117 362.277 269.603C360.764 268.09 358.711 267.24 356.571 267.24H335.001L334.091 275.31Z" fill="white"/>
<path opacity="0.1" d="M201.071 206.54H270.531L265.821 167.42H196.351L201.071 206.54Z" fill="black"/>
<path d="M316.15 275.3C318.047 275.341 319.93 274.971 321.67 274.216C323.411 273.46 324.967 272.337 326.233 270.923C327.498 269.51 328.442 267.839 329.001 266.026C329.56 264.213 329.72 262.3 329.47 260.42C329.218 258.54 329.377 256.627 329.934 254.814C330.492 253.001 331.435 251.33 332.7 249.916C333.965 248.502 335.521 247.379 337.261 246.624C339.001 245.868 340.883 245.498 342.78 245.54H279.1C277.203 245.499 275.32 245.869 273.58 246.624C271.839 247.379 270.283 248.502 269.017 249.916C267.752 251.33 266.807 253 266.249 254.813C265.69 256.626 265.53 258.539 265.78 260.42C266.03 262.3 265.87 264.213 265.311 266.026C264.752 267.839 263.808 269.51 262.543 270.923C261.277 272.337 259.721 273.46 257.98 274.216C256.24 274.971 254.357 275.341 252.46 275.3H316.15Z" fill="#13599E"/>
<path opacity="0.7" d="M316.15 275.3C318.047 275.341 319.93 274.971 321.67 274.216C323.411 273.46 324.967 272.337 326.233 270.923C327.498 269.51 328.442 267.839 329.001 266.026C329.56 264.213 329.72 262.3 329.47 260.42C329.218 258.54 329.377 256.627 329.934 254.814C330.492 253.001 331.435 251.33 332.7 249.916C333.965 248.502 335.521 247.379 337.261 246.624C339.001 245.868 340.883 245.498 342.78 245.54H279.1C277.203 245.499 275.32 245.869 273.58 246.624C271.839 247.379 270.283 248.502 269.017 249.916C267.752 251.33 266.807 253 266.249 254.813C265.69 256.626 265.53 258.539 265.78 260.42C266.03 262.3 265.87 264.213 265.311 266.026C264.752 267.839 263.808 269.51 262.543 270.923C261.277 272.337 259.721 273.46 257.98 274.216C256.24 274.971 254.357 275.341 252.46 275.3H316.15Z" fill="white"/>
<path d="M373.241 302.51C370.616 302.453 368.1 301.452 366.153 299.69C364.207 297.929 362.96 295.526 362.641 292.92L359.231 260.42C358.736 256.376 356.801 252.646 353.78 249.913C350.758 247.18 346.854 245.628 342.781 245.54H279.101C283.172 245.628 287.076 247.181 290.096 249.914C293.115 252.647 295.048 256.377 295.541 260.42L298.961 292.92C299.276 295.527 300.522 297.933 302.469 299.695C304.417 301.457 306.935 302.457 309.561 302.51H373.241Z" fill="#13599E"/>
<path opacity="0.9" d="M373.241 302.51C370.616 302.453 368.1 301.452 366.153 299.69C364.207 297.929 362.96 295.526 362.641 292.92L359.231 260.42C358.736 256.376 356.801 252.646 353.78 249.913C350.758 247.18 346.854 245.628 342.781 245.54H279.101C283.172 245.628 287.076 247.181 290.096 249.914C293.115 252.647 295.048 256.377 295.541 260.42L298.961 292.92C299.276 295.527 300.522 297.933 302.469 299.695C304.417 301.457 306.935 302.457 309.561 302.51H373.241Z" fill="white"/>
<path d="M373.241 302.51C374.463 302.537 375.677 302.298 376.798 301.811C377.92 301.325 378.923 300.601 379.738 299.689C380.553 298.778 381.161 297.701 381.521 296.533C381.88 295.364 381.983 294.132 381.821 292.92H318.131C318.293 294.132 318.19 295.364 317.831 296.533C317.471 297.701 316.863 298.778 316.048 299.689C315.233 300.601 314.23 301.325 313.108 301.811C311.987 302.298 310.773 302.537 309.551 302.51H373.241Z" fill="#13599E"/>
<path opacity="0.6" d="M373.241 302.51C374.463 302.537 375.677 302.298 376.798 301.811C377.92 301.325 378.923 300.601 379.738 299.689C380.553 298.778 381.161 297.701 381.521 296.533C381.88 295.364 381.983 294.132 381.821 292.92H318.131C318.293 294.132 318.19 295.364 317.831 296.533C317.471 297.701 316.863 298.778 316.048 299.689C315.233 300.601 314.23 301.325 313.108 301.811C311.987 302.298 310.773 302.537 309.551 302.51H373.241Z" fill="white"/>
<path d="M270.93 275.31H262.32C262.32 274.249 262.111 273.199 261.705 272.219C261.299 271.239 260.704 270.349 259.953 269.6C259.203 268.85 258.312 268.256 257.332 267.851C256.351 267.446 255.301 267.238 254.24 267.24H223.24L222.33 275.31L221.9 279.14H270.95C271.335 279.14 271.704 278.987 271.976 278.715C272.248 278.443 272.4 278.074 272.4 277.69V276.77C272.402 276.577 272.365 276.386 272.291 276.207C272.218 276.029 272.109 275.867 271.972 275.731C271.835 275.595 271.673 275.488 271.494 275.415C271.315 275.343 271.123 275.307 270.93 275.31Z" fill="#263238"/>
<path opacity="0.3" d="M270.93 275.31H262.32C262.32 274.249 262.111 273.199 261.705 272.219C261.299 271.239 260.704 270.349 259.953 269.6C259.203 268.85 258.312 268.256 257.332 267.851C256.351 267.446 255.301 267.238 254.24 267.24H223.24L222.33 275.31L221.9 279.14H270.95C271.335 279.14 271.704 278.987 271.976 278.715C272.248 278.443 272.4 278.074 272.4 277.69V276.77C272.402 276.577 272.365 276.386 272.291 276.207C272.218 276.029 272.109 275.867 271.972 275.731C271.835 275.595 271.673 275.488 271.494 275.415C271.315 275.343 271.123 275.307 270.93 275.31Z" fill="white"/>
<path d="M203.991 242.59H158.311V281.76H203.991V242.59Z" fill="#13599E"/>
<path d="M165.001 242.59H158.311V281.76H165.001V242.59Z" fill="#13599E"/>
<path opacity="0.2" d="M165.001 242.59H158.311V281.76H165.001V242.59Z" fill="white"/>
<path d="M165.001 268.15H158.311V281.77H165.001V268.15Z" fill="#263238"/>
<path d="M203.99 242.59H185.07V281.76H203.99V242.59Z" fill="#13599E"/>
<path opacity="0.7" d="M203.99 242.59H185.07V281.76H203.99V242.59Z" fill="white"/>
<path d="M203.99 259.92H185.07V281.76H203.99V259.92Z" fill="#13599E"/>
<path d="M185.071 242.59H178.381V281.76H185.071V242.59Z" fill="#13599E"/>
<path opacity="0.5" d="M185.071 242.59H178.381V281.76H185.071V242.59Z" fill="white"/>
<path d="M185.071 259.92H178.381V281.76H185.071V259.92Z" fill="#13599E"/>
<path opacity="0.2" d="M185.071 259.92H178.381V281.76H185.071V259.92Z" fill="black"/>
<path d="M178.38 242.59H171.69V281.76H178.38V242.59Z" fill="#13599E"/>
<path opacity="0.4" d="M178.38 242.59H171.69V281.76H178.38V242.59Z" fill="white"/>
<path d="M178.38 264.74H171.69V281.76H178.38V264.74Z" fill="#13599E"/>
<path opacity="0.4" d="M178.38 264.74H171.69V281.76H178.38V264.74Z" fill="black"/>
<path d="M171.69 242.59H165V281.76H171.69V242.59Z" fill="#13599E"/>
<path opacity="0.3" d="M171.69 242.59H165V281.76H171.69V242.59Z" fill="white"/>
<path d="M171.69 262.18H165V281.77H171.69V262.18Z" fill="#13599E"/>
<path opacity="0.6" d="M171.69 262.18H165V281.77H171.69V262.18Z" fill="black"/>
<path d="M183.501 277.84C183.469 278.247 183.284 278.626 182.985 278.903C182.686 279.179 182.293 279.333 181.885 279.333C181.478 279.333 181.085 279.179 180.786 278.903C180.487 278.626 180.303 278.247 180.271 277.84C180.271 276.95 181.881 274.95 181.881 274.95C181.881 274.95 183.501 277 183.501 277.84Z" fill="white"/>
<path d="M182.86 278C182.86 278.138 182.805 278.27 182.708 278.368C182.61 278.465 182.478 278.52 182.34 278.52C182.05 278.52 182.23 278.29 182.23 278C182.23 277.71 182.05 277.48 182.34 277.48C182.478 277.48 182.61 277.535 182.708 277.632C182.805 277.73 182.86 277.862 182.86 278Z" fill="#13599E"/>
<path d="M176.64 277.84C176.64 278.267 176.47 278.677 176.168 278.979C175.866 279.281 175.457 279.45 175.03 279.45C174.603 279.45 174.193 279.281 173.891 278.979C173.59 278.677 173.42 278.267 173.42 277.84C173.42 276.95 175.03 274.95 175.03 274.95C175.03 274.95 176.64 277 176.64 277.84Z" fill="white"/>
<path d="M176.001 278C176.001 278.068 175.987 278.136 175.961 278.199C175.935 278.262 175.897 278.319 175.848 278.368C175.8 278.416 175.743 278.454 175.68 278.48C175.617 278.507 175.549 278.52 175.481 278.52C175.191 278.52 175.371 278.29 175.371 278C175.371 277.71 175.191 277.48 175.481 277.48C175.549 277.48 175.617 277.493 175.68 277.52C175.743 277.546 175.8 277.584 175.848 277.632C175.897 277.681 175.935 277.738 175.961 277.801C175.987 277.864 176.001 277.932 176.001 278Z" fill="#13599E"/>
<path d="M169.351 277.84C169.351 278.267 169.181 278.677 168.879 278.979C168.577 279.281 168.168 279.45 167.741 279.45C167.314 279.45 166.904 279.281 166.602 278.979C166.3 278.677 166.131 278.267 166.131 277.84C166.131 276.95 167.741 274.95 167.741 274.95C167.741 274.95 169.351 277 169.351 277.84Z" fill="white"/>
<path d="M168.711 278C168.711 278.138 168.656 278.27 168.558 278.368C168.461 278.465 168.329 278.52 168.191 278.52C167.901 278.52 168.081 278.29 168.081 278C168.081 277.71 167.901 277.48 168.191 277.48C168.329 277.48 168.461 277.535 168.558 277.632C168.656 277.73 168.711 277.862 168.711 278Z" fill="#13599E"/>
<path d="M163.27 277.84C163.238 278.247 163.054 278.626 162.755 278.903C162.455 279.179 162.063 279.333 161.655 279.333C161.247 279.333 160.855 279.179 160.555 278.903C160.256 278.626 160.072 278.247 160.04 277.84C160.04 276.95 161.66 274.95 161.66 274.95C161.66 274.95 163.27 277 163.27 277.84Z" fill="white"/>
<path d="M162.631 278C162.631 278.138 162.576 278.27 162.478 278.368C162.381 278.465 162.248 278.52 162.111 278.52C161.821 278.52 162.001 278.29 162.001 278C162.001 277.71 161.821 277.48 162.111 277.48C162.248 277.48 162.381 277.535 162.478 277.632C162.576 277.73 162.631 277.862 162.631 278Z" fill="#13599E"/>
<path d="M276.86 206.54H207.391L199.021 153.7H268.49L276.86 206.54Z" fill="#13599E"/>
<path opacity="0.9" d="M276.86 206.54H207.391L199.021 153.7H268.49L276.86 206.54Z" fill="white"/>
<path d="M234.731 212H334.001C333.293 210.38 332.128 209.001 330.648 208.033C329.168 207.065 327.439 206.55 325.671 206.55H226.391C228.16 206.551 229.891 207.066 231.372 208.034C232.853 209.002 234.02 210.38 234.731 212Z" fill="#13599E"/>
<path opacity="0.5" d="M234.731 212H334.001C333.293 210.38 332.128 209.001 330.648 208.033C329.168 207.065 327.439 206.55 325.671 206.55H226.391C228.16 206.551 229.891 207.066 231.372 208.034C232.853 209.002 234.02 210.38 234.731 212Z" fill="white"/>
<path d="M344.86 268.58C338.65 267.34 333.33 265.41 334.09 262.58C334.85 259.75 343.8 268.19 344.88 262.58C345.96 256.97 331.18 258.17 336.95 254.06C340.14 251.79 340.12 248.24 339.46 245.52H330.68C330.21 247.77 331 250.23 329.38 250.52C327.76 250.81 327 248.02 325.94 245.52H319.68C320.51 249.41 326.44 254.52 323.16 256.77C318.84 259.77 310.22 242.32 305.41 249.94C300.6 257.56 320.83 261.17 318.81 265.39C316.79 269.61 303 260 304 268.58C305 277.16 321.84 273.37 321.84 273.37L318 279.84L320.29 281.66L322.29 276.08C324.52 270.7 326.06 274.87 327.85 277.44C333.61 285.69 347.64 280.85 336.12 275.17C324.6 269.49 328.93 269.02 339.04 273.37C349.15 277.72 351.07 269.82 344.86 268.58Z" fill="#13599E"/>
<path opacity="0.2" d="M344.86 268.58C338.65 267.34 333.33 265.41 334.09 262.58C334.85 259.75 343.8 268.19 344.88 262.58C345.96 256.97 331.18 258.17 336.95 254.06C340.14 251.79 340.12 248.24 339.46 245.52H330.68C330.21 247.77 331 250.23 329.38 250.52C327.76 250.81 327 248.02 325.94 245.52H319.68C320.51 249.41 326.44 254.52 323.16 256.77C318.84 259.77 310.22 242.32 305.41 249.94C300.6 257.56 320.83 261.17 318.81 265.39C316.79 269.61 303 260 304 268.58C305 277.16 321.84 273.37 321.84 273.37L318 279.84L320.29 281.66L322.29 276.08C324.52 270.7 326.06 274.87 327.85 277.44C333.61 285.69 347.64 280.85 336.12 275.17C324.6 269.49 328.93 269.02 339.04 273.37C349.15 277.72 351.07 269.82 344.86 268.58Z" fill="white"/>
<path d="M97.9994 408.07H79.6294C77.9116 408.067 76.2649 407.384 75.0503 406.169C73.8356 404.954 73.1521 403.308 73.1494 401.59V324.46H104.489V401.59C104.487 403.309 103.802 404.958 102.585 406.173C101.368 407.388 99.7189 408.07 97.9994 408.07ZM77.1494 328.46V401.59C77.152 402.247 77.4142 402.876 77.8787 403.341C78.3432 403.805 78.9725 404.067 79.6294 404.07H97.9994C98.6563 404.067 99.2856 403.805 99.7501 403.341C100.215 402.876 100.477 402.247 100.479 401.59V328.46H77.1494Z" fill="#13599E"/>
<g opacity="0.3">
<path d="M97.9994 408.07H79.6294C77.9116 408.067 76.2649 407.384 75.0503 406.169C73.8356 404.954 73.1521 403.308 73.1494 401.59V324.46H104.489V401.59C104.487 403.309 103.802 404.958 102.585 406.173C101.368 407.388 99.7189 408.07 97.9994 408.07ZM77.1494 328.46V401.59C77.152 402.247 77.4142 402.876 77.8787 403.341C78.3432 403.805 78.9725 404.067 79.6294 404.07H97.9994C98.6563 404.067 99.2856 403.805 99.7501 403.341C100.215 402.876 100.477 402.247 100.479 401.59V328.46H77.1494Z" fill="#13599E"/>
</g>
<path d="M167.679 408.07H149.309C147.591 408.067 145.945 407.384 144.73 406.169C143.515 404.954 142.832 403.308 142.829 401.59V324.46H174.159V401.59C174.159 403.309 173.476 404.957 172.261 406.172C171.046 407.387 169.398 408.07 167.679 408.07ZM146.829 328.46V401.59C146.829 402.248 147.09 402.879 147.555 403.344C148.021 403.809 148.651 404.07 149.309 404.07H167.679C168.337 404.07 168.968 403.809 169.433 403.344C169.898 402.879 170.159 402.248 170.159 401.59V328.46H146.829Z" fill="#13599E"/>
<g opacity="0.3">
<path d="M167.679 408.07H149.309C147.591 408.067 145.945 407.384 144.73 406.169C143.515 404.954 142.832 403.308 142.829 401.59V324.46H174.159V401.59C174.159 403.309 173.476 404.957 172.261 406.172C171.046 407.387 169.398 408.07 167.679 408.07ZM146.829 328.46V401.59C146.829 402.248 147.09 402.879 147.555 403.344C148.021 403.809 148.651 404.07 149.309 404.07H167.679C168.337 404.07 168.968 403.809 169.433 403.344C169.898 402.879 170.159 402.248 170.159 401.59V328.46H146.829Z" fill="#13599E"/>
</g>
<g opacity="0.5">
<path d="M97.9994 408.07H79.6294C77.9116 408.067 76.2649 407.384 75.0503 406.169C73.8356 404.954 73.1521 403.308 73.1494 401.59V324.46H104.489V401.59C104.487 403.309 103.802 404.958 102.585 406.173C101.368 407.388 99.7189 408.07 97.9994 408.07ZM77.1494 328.46V401.59C77.152 402.247 77.4142 402.876 77.8787 403.341C78.3432 403.805 78.9725 404.067 79.6294 404.07H97.9994C98.6563 404.067 99.2856 403.805 99.7501 403.341C100.215 402.876 100.477 402.247 100.479 401.59V328.46H77.1494Z" fill="white"/>
<g opacity="0.3">
<path d="M97.9994 408.07H79.6294C77.9116 408.067 76.2649 407.384 75.0503 406.169C73.8356 404.954 73.1521 403.308 73.1494 401.59V324.46H104.489V401.59C104.487 403.309 103.802 404.958 102.585 406.173C101.368 407.388 99.7189 408.07 97.9994 408.07ZM77.1494 328.46V401.59C77.152 402.247 77.4142 402.876 77.8787 403.341C78.3432 403.805 78.9725 404.067 79.6294 404.07H97.9994C98.6563 404.067 99.2856 403.805 99.7501 403.341C100.215 402.876 100.477 402.247 100.479 401.59V328.46H77.1494Z" fill="white"/>
</g>
</g>
<g opacity="0.5">
<path d="M167.679 408.07H149.309C147.591 408.067 145.945 407.384 144.73 406.169C143.515 404.954 142.832 403.308 142.829 401.59V324.46H174.159V401.59C174.159 403.309 173.476 404.957 172.261 406.172C171.046 407.387 169.398 408.07 167.679 408.07ZM146.829 328.46V401.59C146.829 402.248 147.09 402.879 147.555 403.344C148.021 403.809 148.651 404.07 149.309 404.07H167.679C168.337 404.07 168.968 403.809 169.433 403.344C169.898 402.879 170.159 402.248 170.159 401.59V328.46H146.829Z" fill="white"/>
<g opacity="0.3">
<path d="M167.679 408.07H149.309C147.591 408.067 145.945 407.384 144.73 406.169C143.515 404.954 142.832 403.308 142.829 401.59V324.46H174.159V401.59C174.159 403.309 173.476 404.957 172.261 406.172C171.046 407.387 169.398 408.07 167.679 408.07ZM146.829 328.46V401.59C146.829 402.248 147.09 402.879 147.555 403.344C148.021 403.809 148.651 404.07 149.309 404.07H167.679C168.337 404.07 168.968 403.809 169.433 403.344C169.898 402.879 170.159 402.248 170.159 401.59V328.46H146.829Z" fill="white"/>
</g>
</g>
<path d="M175.25 301.93H98.8799V330.62H175.25V301.93Z" fill="#13599E"/>
<path opacity="0.8" d="M175.25 301.93H98.8799V330.62H175.25V301.93Z" fill="white"/>
<path d="M103.86 301.93H72.5596V330.62H103.86V301.93Z" fill="#13599E"/>
<path opacity="0.7" d="M103.86 301.93H72.5596V330.62H103.86V301.93Z" fill="white"/>
<path d="M179.119 295.35H104.529V303.71H179.119V295.35Z" fill="#13599E"/>
<path opacity="0.9" d="M179.119 295.35H104.529V303.71H179.119V295.35Z" fill="white"/>
<path d="M105.69 295.35H68.6797V303.71H105.69V295.35Z" fill="#13599E"/>
<path opacity="0.8" d="M105.69 295.35H68.6797V303.71H105.69V295.35Z" fill="white"/>
<path d="M169.109 308.5H109.989V325H169.109V308.5Z" fill="#13599E"/>
<path opacity="0.7" d="M169.109 308.5H109.989V325H169.109V308.5Z" fill="white"/>
<path d="M143.55 317C144.154 317 144.734 316.76 145.162 316.332C145.589 315.905 145.83 315.325 145.83 314.72C145.83 314.115 145.589 313.535 145.162 313.108C144.734 312.68 144.154 312.44 143.55 312.44H140.55C139.945 312.44 139.365 312.68 138.937 313.108C138.51 313.535 138.27 314.115 138.27 314.72C138.27 315.325 138.51 315.905 138.937 316.332C139.365 316.76 139.945 317 140.55 317H143.55Z" fill="#13599E"/>
<path opacity="0.3" d="M143.55 317C144.154 317 144.734 316.76 145.162 316.332C145.589 315.905 145.83 315.325 145.83 314.72C145.83 314.115 145.589 313.535 145.162 313.108C144.734 312.68 144.154 312.44 143.55 312.44H140.55C139.945 312.44 139.365 312.68 138.937 313.108C138.51 313.535 138.27 314.115 138.27 314.72C138.27 315.325 138.51 315.905 138.937 316.332C139.365 316.76 139.945 317 140.55 317H143.55Z" fill="white"/>
<path d="M145.83 314.75C145.83 315.201 145.696 315.641 145.445 316.016C145.195 316.391 144.839 316.684 144.422 316.856C144.005 317.029 143.547 317.074 143.105 316.986C142.662 316.898 142.256 316.681 141.937 316.362C141.618 316.043 141.401 315.637 141.313 315.195C141.225 314.752 141.271 314.294 141.443 313.877C141.616 313.461 141.908 313.105 142.283 312.854C142.658 312.603 143.099 312.47 143.55 312.47C144.154 312.47 144.734 312.71 145.162 313.138C145.589 313.565 145.83 314.145 145.83 314.75Z" fill="#13599E"/>
<path opacity="0.5" d="M145.83 314.75C145.83 315.201 145.696 315.641 145.445 316.016C145.195 316.391 144.839 316.684 144.422 316.856C144.005 317.029 143.547 317.074 143.105 316.986C142.662 316.898 142.256 316.681 141.937 316.362C141.618 316.043 141.401 315.637 141.313 315.195C141.225 314.752 141.271 314.294 141.443 313.877C141.616 313.461 141.908 313.105 142.283 312.854C142.658 312.603 143.099 312.47 143.55 312.47C144.154 312.47 144.734 312.71 145.162 313.138C145.589 313.565 145.83 314.145 145.83 314.75Z" fill="white"/>
<path d="M136.28 291.13H137.14C138.14 291.13 138.88 290.46 138.71 289.63L131.22 251.51C131.073 251.055 130.782 250.661 130.39 250.389C129.998 250.116 129.527 249.979 129.05 250H69.4697L77.5597 291.13H136.28Z" fill="#263238"/>
<path opacity="0.8" d="M136.28 291.13H137.14C138.14 291.13 138.88 290.46 138.71 289.63L131.22 251.51C131.073 251.055 130.782 250.661 130.39 250.389C129.998 250.116 129.527 249.979 129.05 250H69.4697L77.5597 291.13H136.28Z" fill="white"/>
<path d="M77.9996 291.13C77.4147 291.156 76.8375 290.989 76.3569 290.654C75.8762 290.32 75.5188 289.837 75.3396 289.28L67.9996 251.85C67.7996 250.85 68.6596 250 69.9296 250C70.5141 249.976 71.0905 250.143 71.5708 250.477C72.0511 250.811 72.4089 251.293 72.5896 251.85L79.9496 289.28C80.1196 290.31 79.2496 291.13 77.9996 291.13Z" fill="#263238"/>
<path opacity="0.6" d="M77.9996 291.13C77.4147 291.156 76.8375 290.989 76.3569 290.654C75.8762 290.32 75.5188 289.837 75.3396 289.28L67.9996 251.85C67.7996 250.85 68.6596 250 69.9296 250C70.5141 249.976 71.0905 250.143 71.5708 250.477C72.0511 250.811 72.4089 251.293 72.5896 251.85L79.9496 289.28C80.1196 290.31 79.2496 291.13 77.9996 291.13Z" fill="white"/>
<path d="M111.68 291.13H176.32V291.71C176.32 292.686 175.932 293.622 175.242 294.312C174.552 295.002 173.616 295.39 172.64 295.39H111.64V291.12L111.68 291.13Z" fill="#263238"/>
<path opacity="0.7" d="M111.68 291.13H176.32V291.71C176.32 292.686 175.932 293.622 175.242 294.312C174.552 295.002 173.616 295.39 172.64 295.39H111.64V291.12L111.68 291.13Z" fill="white"/>
<path d="M77.8193 291.13H122.999V291.71C122.999 292.686 122.612 293.622 121.921 294.312C121.231 295.002 120.295 295.39 119.319 295.39H81.4993C80.5233 295.39 79.5873 295.002 78.8972 294.312C78.2071 293.622 77.8193 292.686 77.8193 291.71V291.13Z" fill="#263238"/>
<path opacity="0.5" d="M77.8193 291.13H122.999V291.71C122.999 292.686 122.612 293.622 121.921 294.312C121.231 295.002 120.295 295.39 119.319 295.39H81.4993C80.5233 295.39 79.5873 295.002 78.8972 294.312C78.2071 293.622 77.8193 292.686 77.8193 291.71V291.13Z" fill="white"/>
<path opacity="0.2" d="M151.579 291.13C151.636 291.527 151.843 291.887 152.158 292.136C152.472 292.385 152.87 292.505 153.269 292.47H160.269C160.669 292.505 161.066 292.385 161.381 292.136C161.695 291.887 161.902 291.527 161.959 291.13H151.579Z" fill="black"/>
<path d="M134.13 287.9H83.3795L76.5195 253H127.27L134.13 287.9Z" fill="white"/>
<path d="M97.5692 285.48L101.629 280.1C101.629 280.1 87.1392 283.25 87.4392 276.1C87.7392 268.95 97.9392 276.97 100.169 273.47C102.399 269.97 86.0692 266.97 91.0692 260.63C96.0692 254.29 100.939 268.82 104.919 266.31C108.899 263.8 100.269 257.31 104.919 254.31C109.569 251.31 108.249 261.64 110.919 261.14C113.589 260.64 109.919 253.55 119.249 253.76C119.249 253.76 122.079 260.65 116.749 264.06C111.419 267.47 123.859 266.48 122.219 271.14C120.579 275.8 114.219 268.81 113.219 271.14C112.219 273.47 116.389 275.08 121.389 276.14C126.389 277.2 123.719 283.75 115.889 280.14C108.059 276.53 104.389 276.91 113.219 281.63C122.049 286.35 109.759 290.37 106.049 283.52C104.899 281.38 104.169 277.92 101.609 282.38L99.2392 287L97.5692 285.48Z" fill="#13599E"/>
<path d="M102.44 251.22C102.475 251.376 102.461 251.538 102.4 251.686C102.338 251.833 102.233 251.958 102.098 252.042C101.962 252.127 101.804 252.168 101.645 252.159C101.485 252.149 101.333 252.091 101.208 251.991C101.083 251.891 100.993 251.755 100.949 251.602C100.905 251.448 100.91 251.285 100.963 251.134C101.015 250.984 101.114 250.853 101.244 250.761C101.375 250.669 101.53 250.62 101.69 250.62C101.868 250.603 102.046 250.656 102.186 250.768C102.326 250.88 102.417 251.042 102.44 251.22Z" fill="#263238"/>
</svg>
