<svg width="500" height="500" viewBox="0 0 500 500" fill="none" xmlns="http://www.w3.org/2000/svg">
<path d="M417.401 70.9399H443.881V59.7499H417.401V70.9399Z" fill="white"/>
<path d="M432.18 56.8298H458.66V45.6398H432.18V56.8298Z" fill="white"/>
<path d="M110.56 174.95H137.04V163.76H110.56V174.95Z" fill="#EBEBEB"/>
<path d="M125.34 160.84H151.82V149.65H125.34V160.84Z" fill="#EBEBEB"/>
<path d="M140.34 174.95H166.82V163.76H140.34V174.95Z" fill="#EBEBEB"/>
<path d="M41.3403 56.8298H67.8203V45.6398H41.3403V56.8298Z" fill="#EBEBEB"/>
<path d="M56.1206 282.84H82.6006V271.65H56.1206V282.84Z" fill="#EBEBEB"/>
<path d="M41.3403 268.73H67.8203V257.54H41.3403V268.73Z" fill="#EBEBEB"/>
<path d="M417.401 282.84H443.881V271.65H417.401V282.84Z" fill="#EBEBEB"/>
<path d="M376.68 135.89L311.92 135.47L312.46 52.3298L360.55 52.6398L377.23 52.7498L377.13 68.5898L376.68 135.89Z" fill="white"/>
<path d="M318.668 68.4828L371.427 68.8235L371.441 66.6835L318.682 66.3428L318.668 68.4828Z" fill="#DBDBDB"/>
<path d="M318.645 73.8083L371.404 74.1582L371.418 72.0183L318.66 71.6683L318.645 73.8083Z" fill="#DBDBDB"/>
<path d="M318.598 79.2633L371.356 79.604L371.37 77.464L318.611 77.1233L318.598 79.2633Z" fill="#DBDBDB"/>
<path d="M318.572 84.6437L371.331 84.9844L371.345 82.8544L318.586 82.5137L318.572 84.6437Z" fill="#DBDBDB"/>
<path d="M318.542 89.9794L371.301 90.3293L371.315 88.1894L318.556 87.8395L318.542 89.9794Z" fill="#DBDBDB"/>
<path d="M318.814 94.1174L371.574 94.645L371.596 92.505L318.836 91.9774L318.814 94.1174Z" fill="#DBDBDB"/>
<path d="M318.474 100.75L371.232 101.1L371.247 98.9599L318.488 98.61L318.474 100.75Z" fill="#DBDBDB"/>
<path d="M318.439 106.14L371.198 106.49L371.212 104.35L318.454 104L318.439 106.14Z" fill="#DBDBDB"/>
<path d="M318.405 111.531L371.164 111.881L371.178 109.741L318.419 109.391L318.405 111.531Z" fill="#DBDBDB"/>
<path d="M318.35 116.986L371.109 117.326L371.123 115.196L318.364 114.856L318.35 116.986Z" fill="#DBDBDB"/>
<path d="M318.337 122.301L371.096 122.651L371.11 120.511L318.351 120.161L318.337 122.301Z" fill="#DBDBDB"/>
<path d="M318.303 127.692L371.062 128.042L371.076 125.912L318.317 125.562L318.303 127.692Z" fill="#DBDBDB"/>
<path d="M386.741 162.62L323.341 149.35L340.381 67.97L387.451 77.82L400.531 96.75L386.741 162.62Z" fill="white"/>
<path d="M387.45 77.8201L400.53 96.7501L384.21 93.3301L387.45 77.8201Z" fill="#DBDBDB"/>
<path d="M343.282 84.9961L378.527 92.3784L378.964 90.2937L343.719 82.9113L343.282 84.9961Z" fill="#DBDBDB"/>
<path d="M342.182 90.2658L377.427 97.6482L377.863 95.5634L342.618 88.1811L342.182 90.2658Z" fill="#DBDBDB"/>
<path d="M341.068 95.5432L376.313 102.926L376.752 100.831L341.507 93.4486L341.068 95.5432Z" fill="#DBDBDB"/>
<path d="M339.97 100.81L391.609 111.626L392.048 109.532L340.409 98.7157L339.97 100.81Z" fill="#DBDBDB"/>
<path d="M337.836 107.914L389.541 118.466L389.969 116.369L338.264 105.817L337.836 107.914Z" fill="#DBDBDB"/>
<path d="M337.766 111.367L389.405 122.184L389.844 120.089L338.205 109.273L337.766 111.367Z" fill="#DBDBDB"/>
<path d="M336.664 116.637L388.304 127.453L388.742 125.359L337.103 114.543L336.664 116.637Z" fill="#DBDBDB"/>
<path d="M334.444 123.702L386.148 134.254L386.574 132.167L334.87 121.615L334.444 123.702Z" fill="#DBDBDB"/>
<path d="M334.45 127.182L386.09 137.998L386.529 135.904L334.889 125.087L334.45 127.182Z" fill="#DBDBDB"/>
<path d="M333.348 132.462L384.987 143.278L385.426 141.183L333.787 130.367L333.348 132.462Z" fill="#DBDBDB"/>
<path d="M332.237 137.729L383.876 148.545L384.315 146.451L332.675 135.635L332.237 137.729Z" fill="#DBDBDB"/>
<path d="M331.144 143.009L382.783 153.825L383.22 151.74L331.58 140.924L331.144 143.009Z" fill="#DBDBDB"/>
<path d="M135.73 138.71L212.75 139.97L213.54 88.46L136.52 87.2L135.73 138.71Z" fill="#EBEBEB"/>
<path d="M138.98 135.56L209.61 136.71L210.29 91.61L139.66 90.46L138.98 135.56Z" fill="white"/>
<path d="M145.851 104.62C145.825 106.141 146.251 107.636 147.075 108.914C147.899 110.193 149.084 111.199 150.48 111.804C151.875 112.409 153.419 112.587 154.916 112.315C156.413 112.043 157.795 111.333 158.888 110.274C159.981 109.216 160.736 107.858 161.057 106.371C161.377 104.884 161.25 103.335 160.69 101.92C160.131 100.506 159.164 99.2889 157.913 98.4237C156.662 97.5586 155.182 97.084 153.661 97.06C151.623 97.0279 149.656 97.8062 148.191 99.2237C146.727 100.641 145.885 102.582 145.851 104.62Z" fill="#DBDBDB"/>
<path d="M160.91 135.99L209.56 136.78L185.77 103.41L160.91 135.99Z" fill="#DBDBDB"/>
<path d="M141.841 135.69L182.001 136.34L162.271 114.55L141.841 135.69Z" fill="#EBEBEB"/>
<path d="M107.39 175.93L182.46 158.66L170.85 108.46L95.7803 125.73L107.39 175.93Z" fill="#EBEBEB"/>
<path d="M109.79 172.09L178.62 156.25L168.45 112.31L99.6201 128.14L109.79 172.09Z" fill="white"/>
<path d="M109 140.41C109.342 141.892 110.116 143.24 111.224 144.282C112.332 145.325 113.724 146.015 115.224 146.266C116.724 146.518 118.265 146.318 119.652 145.693C121.039 145.069 122.21 144.046 123.016 142.756C123.822 141.466 124.227 139.966 124.18 138.446C124.133 136.925 123.637 135.453 122.753 134.215C121.869 132.976 120.638 132.028 119.216 131.49C117.793 130.951 116.242 130.847 114.76 131.19C113.776 131.415 112.845 131.832 112.022 132.418C111.199 133.004 110.5 133.746 109.965 134.603C109.43 135.46 109.069 136.414 108.903 137.41C108.738 138.407 108.771 139.426 109 140.41Z" fill="#DBDBDB"/>
<path d="M131.181 167.24L178.591 156.32L147.491 129.65L131.181 167.24Z" fill="#DBDBDB"/>
<path d="M112.591 171.53L151.741 162.52L127.351 146.1L112.591 171.53Z" fill="#EBEBEB"/>
<path d="M250 459.96C354.194 459.96 438.66 450.8 438.66 439.5C438.66 428.2 354.194 419.04 250 419.04C145.806 419.04 61.3398 428.2 61.3398 439.5C61.3398 450.8 145.806 459.96 250 459.96Z" fill="#B8D5F1"/>
<path d="M33.4404 300.46L87.5804 300.21L141.72 300.13L250 299.96L358.28 300.12L412.42 300.21L466.56 300.46L412.42 300.7L358.28 300.79L250 300.95L141.72 300.79L87.5804 300.7L33.4404 300.46Z" fill="#263238"/>
<path d="M438.141 236.25C437.3 239.326 436.744 242.472 436.481 245.65C436.571 245.8 436.551 246.39 436.481 246.23C436.481 246.74 435.671 246.65 435.671 246.14V245.14C433.841 242.86 431.171 241.42 429.021 239.44C427.283 237.884 426.019 235.87 425.371 233.63C423.581 227.48 425.261 220.95 423.111 214.81C421.261 209.51 417.931 204.91 415.111 200.11C412.111 195.03 409.951 189.7 409.731 183.75C409.561 179.2 410.101 173.14 413.571 169.75C417.241 166.13 421.801 168.84 424.571 172.07C432.731 181.43 436.501 193.26 438.031 205.36C438.871 212.05 439.751 218.79 439.541 225.55C439.434 229.155 438.965 232.739 438.141 236.25Z" fill="#1976D2"/>
<path d="M436.521 248.11C436.966 241.781 436.889 235.426 436.291 229.11C436.294 229.087 436.294 229.063 436.291 229.04C436.391 223.91 436.801 218.8 436.591 213.67C436.347 208.119 435.594 202.603 434.341 197.19C434.341 197.12 434.231 197.14 434.241 197.19C435.238 202.511 435.833 207.899 436.021 213.31C436.134 216.21 436.111 219.107 435.951 222C435.901 222.94 435.821 223.89 435.751 224.84C433.62 210.449 428.419 196.684 420.501 184.48C420.391 184.31 420.091 184.48 420.201 184.66C425.856 193.938 430.045 204.034 432.621 214.59C428.691 207.32 422.771 201.35 418.371 194.36C418.371 194.36 418.281 194.36 418.301 194.36C422.301 202.14 428.781 208.27 432.941 215.93C433.661 219.05 434.251 222.2 434.691 225.37C435.278 229.719 435.592 234.101 435.631 238.49C433.251 234.03 430.761 229.75 428.811 225.03C428.761 224.9 428.581 225.03 428.621 225.12C430.206 230.24 432.567 235.086 435.621 239.49C435.621 242.597 435.534 245.703 435.361 248.81C434.871 257.09 433.461 265.26 432.801 273.51C432.797 273.535 432.799 273.56 432.806 273.584C432.812 273.609 432.823 273.632 432.839 273.652C432.854 273.671 432.873 273.688 432.895 273.701C432.917 273.713 432.941 273.722 432.966 273.725C432.991 273.728 433.016 273.726 433.04 273.72C433.065 273.713 433.087 273.702 433.107 273.687C433.127 273.672 433.144 273.652 433.157 273.631C433.169 273.609 433.177 273.585 433.181 273.56C434.864 265.161 435.98 256.659 436.521 248.11Z" fill="#263238"/>
<path d="M427.72 184.24C427.72 184.18 427.61 184.24 427.63 184.24C429.14 188.42 430 192.66 431.09 196.95C431.103 196.985 431.128 197.014 431.16 197.033C431.192 197.051 431.229 197.058 431.266 197.053C431.303 197.047 431.336 197.028 431.36 197C431.385 196.973 431.399 196.937 431.4 196.9C430.798 192.523 429.559 188.258 427.72 184.24Z" fill="#263238"/>
<path d="M466.131 201.77C465.126 204.224 463.967 206.612 462.661 208.92C459.931 213.86 457.091 218.4 456.581 224.16C456.491 226.735 456.122 229.294 455.481 231.79C454.777 233.925 453.766 235.946 452.481 237.79C449.531 242.09 445.841 245.79 443.101 250.26C440.263 254.909 438.162 259.969 436.871 265.26C436.801 265.55 436.351 265.47 436.411 265.18C436.417 265.157 436.417 265.133 436.411 265.11V265.05C435.981 252.7 436.971 240.26 440.731 228.43C442.399 223.225 444.403 218.134 446.731 213.19C448.629 208.823 451.371 204.874 454.801 201.57C457.101 199.5 462.091 195.57 465.361 197.65C466.871 198.65 466.751 200.23 466.131 201.77Z" fill="#1976D2"/>
<path d="M454.25 224.48C451.541 227.951 449.196 231.691 447.25 235.64C447.25 235.69 447.25 235.75 447.33 235.7C449.7 231.99 452.02 228.26 454.38 224.55C454.4 224.49 454.29 224.43 454.25 224.48Z" fill="#263238"/>
<path d="M401.68 213.48C403.28 216.24 405.11 219.55 404.42 222.86C403.98 224.95 402.42 226.65 402.17 228.79C401.55 233.51 406.25 236.62 409.66 238.85C418.14 244.41 429.77 249.37 431.31 260.74C431.37 261.14 432.06 261.04 432.01 260.64C432.015 260.617 432.015 260.593 432.01 260.57C432.01 260.57 432.06 260.57 432.06 260.5C433.168 254.764 433.113 248.864 431.9 243.15C430.489 237.395 428.159 231.904 425 226.89C419.9 218.18 414.49 209.26 406.78 202.59C404.64 200.75 400.26 197.43 398.56 201.59C396.86 205.75 399.72 210.12 401.68 213.48Z" fill="#1976D2"/>
<path d="M409.441 231.94C415.061 238.02 424.001 241.44 428.841 248.25C426.141 237.874 421.032 228.282 413.931 220.25C413.741 220.04 414.041 219.74 414.241 219.94C419.417 224.965 423.556 230.959 426.421 237.58C425.09 232.958 423.336 228.469 421.181 224.17C421.171 224.138 421.172 224.103 421.184 224.072C421.196 224.04 421.218 224.014 421.247 223.997C421.276 223.979 421.309 223.972 421.343 223.976C421.376 223.981 421.407 223.996 421.431 224.02C424.095 228.718 426.002 233.807 427.081 239.1C433.461 254.54 434.081 272.65 432.711 288.92C432.711 289.15 432.341 289.16 432.351 288.92C432.711 276.09 432.511 263.05 429.431 250.52C429.371 250.26 429.301 250 429.231 249.74C424.001 242.41 415.071 239 409.341 232C409.291 232 409.381 231.87 409.441 231.94Z" fill="#263238"/>
<path d="M408.14 226.71C411.09 229.42 413.99 232.19 416.95 234.89C416.95 234.89 416.95 234.97 416.95 234.95C413.587 232.698 410.557 229.985 407.95 226.89C407.926 226.865 407.913 226.831 407.914 226.797C407.915 226.762 407.93 226.729 407.955 226.705C407.98 226.681 408.014 226.668 408.048 226.669C408.083 226.67 408.116 226.685 408.14 226.71Z" fill="#263238"/>
<path d="M407.671 215C410.282 219.278 413.235 223.338 416.501 227.14C416.501 227.2 416.501 227.27 416.431 227.22C412.763 223.736 409.743 219.629 407.511 215.09C407.499 215.069 407.496 215.044 407.502 215.02C407.509 214.997 407.525 214.977 407.546 214.965C407.567 214.953 407.592 214.95 407.616 214.957C407.639 214.963 407.659 214.979 407.671 215Z" fill="#263238"/>
<path d="M420.96 300.39H446.81L443.33 265.61H424.94L420.96 300.39Z" fill="#455A64"/>
<path d="M424.29 271.26H443.9L443.33 265.61H424.94L424.29 271.26Z" fill="#263238"/>
<path d="M421.77 267.31H446V261.76H421.77V267.31Z" fill="#455A64"/>
<path d="M399.56 179.6H100.43V300.46H399.56V179.6Z" fill="#1976D2"/>
<path d="M100.43 186.27H94.1396V300.46H100.43V186.27Z" fill="#263238"/>
<path d="M405.859 186.27H399.569V300.46H405.859V186.27Z" fill="#263238"/>
<path opacity="0.1" d="M351.79 179.6H148.21V300.46H351.79V179.6Z" fill="black"/>
<path d="M135.649 285.1H112.989V292.15H135.649V285.1Z" fill="#455A64"/>
<path d="M329.19 251.99H170.81V300.46H329.19V251.99Z" fill="#455A64"/>
<path d="M323.36 258.16H176.63V300.46H323.36V258.16Z" fill="#37474F"/>
<path d="M323.36 258.16H176.63V276.22H323.36V258.16Z" fill="#263238"/>
<path opacity="0.4" d="M399.56 186.27H100.43V197.98H399.56V186.27Z" fill="#FDFEFF"/>
<path opacity="0.4" d="M399.56 203.27H100.43V206.92H399.56V203.27Z" fill="#FDFEFF"/>
<path d="M375.679 229.46C380.131 229.46 383.739 225.852 383.739 221.4C383.739 216.949 380.131 213.34 375.679 213.34C371.228 213.34 367.619 216.949 367.619 221.4C367.619 225.852 371.228 229.46 375.679 229.46Z" fill="#455A64"/>
<path d="M328.23 111.11H171.77V179.6H328.23V111.11Z" fill="#455A64"/>
<path d="M317.74 81.3999H182.27V179.6H317.74V81.3999Z" fill="white"/>
<path d="M317.73 81.4L249.899 81.64L182.27 81.76L182.63 81.4L182.77 179.6L182.27 179.1L317.73 179.29L317.429 179.6L317.54 130.6L317.73 81.4ZM317.73 81.4L317.92 130.4L317.999 179.6V179.91H317.689L182.229 180.1H181.729V179.6L181.869 81.4V81H182.229L250.059 81.12L317.73 81.4Z" fill="#263238"/>
<path d="M384.619 234.57H366.739V237.14H384.619V234.57Z" fill="#455A64"/>
<path d="M384.619 239.48H366.739V242.05H384.619V239.48Z" fill="#455A64"/>
<path d="M374.62 353.59H125.38L170.81 300.46H329.19L374.62 353.59Z" fill="#263238"/>
<path d="M374.62 353.59H125.38V360.77H374.62V353.59Z" fill="#37474F"/>
<path d="M97 168.45C96.6159 167.1 96.3548 165.717 96.22 164.32C95.9267 161.574 95.9267 158.805 96.22 156.06C96.3539 154.662 96.615 153.28 97 151.93C97.3945 153.278 97.6558 154.661 97.78 156.06C97.9333 157.431 98.0067 158.81 98 160.19C98.0012 161.57 97.9278 162.948 97.78 164.32C97.65 165.718 97.3888 167.101 97 168.45Z" fill="#263238"/>
<path d="M110 173.93C110.677 172.7 111.47 171.538 112.37 170.46C114.101 168.306 116.059 166.345 118.21 164.61C119.288 163.714 120.45 162.923 121.68 162.25C120.998 163.477 120.205 164.639 119.31 165.72C117.576 167.868 115.618 169.826 113.47 171.56C112.386 172.452 111.225 173.245 110 173.93Z" fill="#263238"/>
<path d="M78.4504 186.79C77.1017 187.181 75.7188 187.442 74.3204 187.57C72.9488 187.718 71.5701 187.792 70.1904 187.79C68.8107 187.796 67.4317 187.723 66.0604 187.57C64.6648 187.446 63.2848 187.185 61.9404 186.79C63.2871 186.405 64.6662 186.144 66.0604 186.01C67.4325 185.867 68.8109 185.794 70.1904 185.79C71.5703 185.792 72.949 185.868 74.3204 186.02C75.7185 186.145 77.1014 186.403 78.4504 186.79Z" fill="#263238"/>
<path d="M83.93 173.78C82.7029 173.098 81.5413 172.305 80.46 171.41C78.3185 169.668 76.3615 167.711 74.62 165.57C73.725 164.489 72.9316 163.327 72.25 162.1C73.4798 162.773 74.6418 163.564 75.72 164.46C77.8712 166.194 79.8291 168.156 81.56 170.31C82.4595 171.388 83.2532 172.55 83.93 173.78Z" fill="#263238"/>
<path d="M186.65 275.65L315.16 275.52C338 305 331.49 334.5 355.88 364H143.79C168.91 334.54 163.07 305.1 186.65 275.65Z" fill="white"/>
<path d="M186.65 275.65L315 275.33H315.31L315.45 275.52C338.45 305 332.01 334.52 356.65 363.98L356.92 364.28H356.12L143.59 364.18H143.04L143.23 363.98C156.33 349.24 160.38 334.5 164.87 319.76C169.83 305.06 175.2 290.36 186.65 275.65ZM186.65 275.65C175.34 290.4 170.19 305.14 165.45 319.87C161.1 334.58 157.17 349.28 144.33 363.98L143.97 363.78L355.62 363.68L355.09 363.98C331 334.5 337.5 305 314.85 275.52L315.3 275.71L186.65 275.65Z" fill="#263238"/>
<path d="M151.48 353.88H348.48C349.48 355.6 350.66 357.32 351.92 359.04H147.92C149.21 357.32 150.39 355.6 151.48 353.88Z" fill="#263238"/>
<path d="M348.45 353.87H240.93C244.036 352.017 247.07 350.167 250.03 348.32H345.41C346.33 350.17 347.33 352 348.45 353.87Z" fill="#263238"/>
<path d="M352.65 360.05H240.47C242.06 359.37 243.64 358.69 245.19 358.05H351.19C351.643 358.684 352.13 359.35 352.65 360.05Z" fill="#1976D2"/>
<path d="M350.48 357H291.82L295.75 354.95H349.14C349.57 355.67 350 356.35 350.48 357Z" fill="#1976D2"/>
<path d="M190.7 351.73C190.64 351.89 190.24 352.02 189.78 352.02C189.32 352.02 189 351.89 189.06 351.73C189.44 350.73 189.8 349.66 190.14 348.63C190.2 348.47 190.62 348.34 191.05 348.34C191.48 348.34 191.81 348.47 191.76 348.63C191.43 349.66 191.07 350.7 190.7 351.73Z" fill="#263238"/>
<path d="M187.3 350.23C186.91 351.23 184.11 352.12 181.14 352.13C180.043 352.149 178.948 352.011 177.89 351.72C177.58 351.61 177.6 351.43 177.89 351.3C178.279 351.162 178.7 351.141 179.1 351.24C179.834 351.453 180.596 351.551 181.36 351.53C182.31 351.533 183.255 351.406 184.17 351.15C184.93 350.91 185.47 350.59 185.6 350.23C185.73 349.87 185.44 349.55 184.87 349.32C184.068 349.05 183.226 348.921 182.38 348.94C181.551 348.933 180.725 349.03 179.92 349.23C179.539 349.323 179.139 349.303 178.77 349.17C178.57 349.04 178.7 348.85 179.09 348.75C180.242 348.47 181.424 348.332 182.61 348.34C185.54 348.34 187.67 349.19 187.3 350.23Z" fill="#263238"/>
<path d="M176.19 348.63C175.77 349.63 175.32 350.7 174.85 351.73C174.78 351.9 174.37 352.02 173.91 352.02H169.05C168.62 352.02 168.3 351.9 168.38 351.73C168.46 351.56 168.91 351.44 169.38 351.44H173.38L173.81 350.44H170.38C169.94 350.44 169.64 350.3 169.71 350.15C169.78 350 170.21 349.85 170.65 349.85H174C174.14 349.53 174.27 349.21 174.41 348.85H170.5C170.07 348.85 169.75 348.71 169.82 348.55C169.89 348.39 170.33 348.26 170.75 348.26H175.46C176 348.34 176.25 348.47 176.19 348.63Z" fill="#263238"/>
<path d="M179.8 323.56L320.85 323.51C321.19 324.95 321.52 326.4 321.85 327.85H178.66C179.06 326.45 179.43 325 179.8 323.56Z" fill="white"/>
<path d="M178.68 327.89H321.87C322.21 329.34 322.561 330.78 322.921 332.23H177.521C177.921 330.78 178.3 329.34 178.68 327.89Z" fill="#1976D2"/>
<path d="M180.91 319.22L319.84 319.17C320.18 320.61 320.51 322.06 320.84 323.51L179.84 323.56L180.91 319.22Z" fill="#DBDBDB"/>
<path d="M182.06 314.89L318.79 314.83C319.15 316.27 319.5 317.72 319.79 319.17L180.86 319.22C181.29 317.78 181.67 316.33 182.06 314.89Z" fill="white"/>
<path d="M183.28 310.55L317.68 310.49C318.06 311.93 318.43 313.38 318.79 314.83L182.06 314.89C182.46 313.44 182.86 312 183.28 310.55Z" fill="#DBDBDB"/>
<path d="M184.6 306.22L316.47 306.14C316.89 307.59 317.29 309.04 317.68 310.49L183.28 310.55C183.7 309.11 184.14 307.66 184.6 306.22Z" fill="white"/>
<path d="M186 301.88L315.1 301.8C315.57 303.25 316.01 304.7 316.44 306.14L184.57 306.22C185.05 304.77 185.53 303.33 186 301.88Z" fill="#DBDBDB"/>
<path d="M187.61 297.55L275.86 297.49C276.06 298.93 276.25 300.38 276.43 301.83L186.03 301.88C186.53 300.44 187.06 299 187.61 297.55Z" fill="#1976D2"/>
<path d="M276.43 301.83H315.13C318.36 311.96 320.32 322.09 322.92 332.22H279.33C278.36 322.08 277.65 312 276.43 301.83Z" fill="#C7C7C7"/>
<path d="M320.85 323.51L250.32 323.59H179.8L250.33 323.51H320.85Z" fill="#263238"/>
<path d="M319.84 319.17L250.38 319.25H180.91L250.38 319.17H319.84Z" fill="#263238"/>
<path d="M318.79 314.83L250.43 314.91H182.06L250.43 314.82L318.79 314.83Z" fill="#263238"/>
<path d="M317.68 310.49L250.48 310.57H183.28L250.48 310.48L317.68 310.49Z" fill="#263238"/>
<path d="M316.47 306.14L250.53 306.24H184.6L250.53 306.15L316.47 306.14Z" fill="#263238"/>
<path d="M315.13 301.8L250.58 301.9H186.03L250.58 301.81L315.13 301.8Z" fill="#263238"/>
<path d="M314.661 330C310.071 330.09 305.461 330.1 300.861 330.11C296.261 330.12 291.641 330.11 287.021 330.01C291.611 329.92 296.221 329.91 300.821 329.9C305.421 329.89 310.001 329.93 314.661 330Z" fill="#263238"/>
<path d="M313.75 325.68C310.33 325.77 306.9 325.78 303.47 325.79C300.04 325.8 296.6 325.79 293.15 325.69C296.57 325.59 300 325.59 303.43 325.57C306.86 325.55 310.3 325.59 313.75 325.68Z" fill="#263238"/>
<path d="M312.85 321.34C308.4 321.43 303.93 321.44 299.46 321.45C294.99 321.46 290.51 321.45 286.03 321.35C290.49 321.26 294.96 321.25 299.42 321.24C303.88 321.23 308.36 321.25 312.85 321.34Z" fill="#263238"/>
<path d="M311.94 317C308.33 317.09 304.71 317.1 301.09 317.11C297.47 317.12 293.84 317.11 290.2 317.01C293.81 316.92 297.43 316.91 301.05 316.89C304.67 316.87 308.3 316.91 311.94 317Z" fill="#263238"/>
<path d="M311 312.66C306.69 312.75 302.36 312.76 298 312.77C293.64 312.78 289.33 312.77 285 312.67C289.32 312.58 293.64 312.57 298 312.56C302.36 312.55 306.64 312.57 311 312.66Z" fill="#263238"/>
<path d="M310 308.32C305.77 308.41 301.52 308.42 297.27 308.43C293.02 308.44 288.76 308.43 284.5 308.33C288.73 308.24 292.98 308.23 297.23 308.22C301.48 308.21 305.68 308.23 310 308.32Z" fill="#263238"/>
<path d="M308.83 304C306.32 304.08 303.83 304.11 301.26 304.11C298.69 304.11 296.19 304.11 293.64 304.01C296.16 303.92 298.64 303.9 301.21 303.89C303.78 303.88 306.27 303.89 308.83 304Z" fill="#263238"/>
<path d="M269 330C265.54 330.1 262.08 330.1 258.62 330.12C255.16 330.14 251.69 330.12 248.23 330.01C251.69 329.92 255.15 329.91 258.61 329.9C262.07 329.89 265.55 329.94 269 330Z" fill="#263238"/>
<path d="M268.79 325.7C265.38 325.79 261.97 325.79 258.56 325.81C255.15 325.83 251.74 325.81 248.33 325.7C251.74 325.61 255.15 325.6 258.56 325.59C261.97 325.58 265.38 325.61 268.79 325.7Z" fill="#263238"/>
<path d="M268.57 321.36C265.21 321.45 261.85 321.46 258.49 321.47C255.13 321.48 251.77 321.47 248.41 321.36C251.77 321.27 255.13 321.26 258.49 321.25C261.85 321.24 265.2 321.27 268.57 321.36Z" fill="#263238"/>
<path d="M268.34 317C265.03 317.09 261.73 317.1 258.42 317.11C255.11 317.12 251.8 317.11 248.49 317.01C251.8 316.91 255.11 316.91 258.41 316.89C261.71 316.87 265 316.93 268.34 317Z" fill="#263238"/>
<path d="M268.09 312.68C264.85 312.77 261.59 312.78 258.34 312.79C255.09 312.8 251.83 312.79 248.58 312.69C251.83 312.6 255.08 312.59 258.33 312.57C261.58 312.55 264.84 312.59 268.09 312.68Z" fill="#263238"/>
<path d="M267.83 308.34C264.64 308.43 261.44 308.44 258.25 308.45C255.06 308.46 251.86 308.45 248.66 308.35C251.86 308.26 255.05 308.25 258.24 308.24C261.43 308.23 264.63 308.25 267.83 308.34Z" fill="#263238"/>
<path d="M267.54 304C264.41 304.09 261.28 304.1 258.15 304.12C255.02 304.14 251.88 304.12 248.75 304.01C251.88 303.92 255.01 303.91 258.14 303.9C261.27 303.89 264.4 303.91 267.54 304Z" fill="#263238"/>
<path d="M239 330C235.54 330.09 232.07 330.1 228.61 330.12C225.15 330.14 221.68 330.12 218.23 330.01C221.7 329.92 225.17 329.91 228.63 329.9C232.09 329.89 235.55 330 239 330Z" fill="#263238"/>
<path d="M234 304C233 304.09 232 304.11 231 304.11C230 304.11 229 304.11 228 304C229 303.92 230 303.9 231 303.89C232 303.88 233 303.94 234 304Z" fill="#263238"/>
<path d="M233.6 308.36C232.6 308.44 231.6 308.46 230.53 308.47C229.46 308.48 228.53 308.47 227.48 308.36C228.48 308.27 229.53 308.25 230.55 308.25C231.57 308.25 232.59 308.27 233.6 308.36Z" fill="#263238"/>
<path d="M233.24 312.7C232.24 312.78 231.16 312.8 230.12 312.81C229.08 312.82 228.04 312.81 227.01 312.7C228.06 312.61 229.1 312.59 230.14 312.59C231.18 312.59 232.21 312.61 233.24 312.7Z" fill="#263238"/>
<path d="M232.91 317C231.84 317.09 230.78 317.11 229.73 317.11C228.68 317.11 227.62 317.11 226.57 317.01C227.63 316.92 228.69 316.9 229.75 316.89C230.81 316.88 231.86 317 232.91 317Z" fill="#263238"/>
<path d="M232.58 321.37C231.5 321.46 230.43 321.48 229.35 321.48C228.27 321.48 227.21 321.48 226.15 321.37C227.23 321.29 228.3 321.27 229.37 321.26C230.44 321.25 231.52 321.28 232.58 321.37Z" fill="#263238"/>
<path d="M232.26 325.71C231.17 325.79 230.07 325.81 228.98 325.82C227.89 325.83 226.81 325.82 225.73 325.71C226.82 325.62 227.91 325.6 229 325.6C230.09 325.6 231.18 325.62 232.26 325.71Z" fill="#263238"/>
<path d="M232.67 299.68C230.93 299.77 229.2 299.79 227.47 299.8C225.74 299.81 224.01 299.8 222.29 299.69C224.04 299.6 225.77 299.58 227.5 299.58C229.23 299.58 231 299.6 232.67 299.68Z" fill="#263238"/>
<path d="M209 330.05C205.52 330.14 202.06 330.15 198.59 330.16C195.12 330.17 191.67 330.16 188.23 330.06C191.71 329.96 195.17 329.96 198.63 329.94C202.09 329.92 205.54 330 209 330.05Z" fill="#263238"/>
<path d="M209.66 325.71C206.23 325.81 202.82 325.81 199.41 325.83C196 325.85 192.59 325.83 189.2 325.72C192.63 325.63 196.04 325.62 199.45 325.61C202.86 325.6 206.26 325.63 209.66 325.71Z" fill="#263238"/>
<path d="M210.32 321.38C206.94 321.47 203.58 321.48 200.22 321.49C196.86 321.5 193.5 321.49 190.16 321.39C193.54 321.29 196.9 321.29 200.26 321.27C203.62 321.25 207 321.29 210.32 321.38Z" fill="#263238"/>
<path d="M211 317C207.68 317.09 204.37 317.1 201.06 317.12C197.75 317.14 194.45 317.12 191.16 317.01C194.49 316.92 197.79 316.91 201.1 316.9C204.41 316.89 207.69 317 211 317Z" fill="#263238"/>
<path d="M211.68 312.71C208.41 312.8 205.15 312.81 201.9 312.82C198.65 312.83 195.39 312.82 192.16 312.71C195.43 312.62 198.69 312.61 201.94 312.6C205.19 312.59 208.44 312.62 211.68 312.71Z" fill="#263238"/>
<path d="M212.42 308.37C209.21 308.46 206.01 308.47 202.81 308.48C199.61 308.49 196.43 308.48 193.25 308.38C196.47 308.29 199.67 308.28 202.86 308.26C206.05 308.24 209.25 308.28 212.42 308.37Z" fill="#263238"/>
<path d="M213.23 304C210.08 304.1 206.95 304.1 203.81 304.12C200.67 304.14 197.55 304.12 194.44 304.01C197.6 303.92 200.73 303.91 203.86 303.9C206.99 303.89 210.12 303.94 213.23 304Z" fill="#263238"/>
<path d="M214.11 299.7C211.03 299.79 207.97 299.8 204.9 299.81C201.83 299.82 198.78 299.81 195.74 299.71C198.83 299.62 201.89 299.61 204.96 299.59C208.03 299.57 211.07 299.61 214.11 299.7Z" fill="#263238"/>
<path d="M328.94 350.66C324.29 350.75 319.62 350.79 314.94 350.83C310.26 350.87 305.57 350.83 300.89 350.88C296.21 350.93 291.5 350.88 286.81 350.83L279.76 350.77C277.41 350.77 275.07 350.71 272.76 350.66C275.1 350.61 277.43 350.59 279.76 350.56L286.76 350.49C291.43 350.49 296.11 350.49 300.76 350.44C305.41 350.39 310.12 350.44 314.81 350.49C319.5 350.54 324.22 350.57 328.94 350.66Z" fill="white"/>
<path d="M329.91 352.8C324.56 352.89 319.19 352.93 313.81 352.97C308.43 353.01 303.04 352.97 297.65 352.97C292.26 352.97 286.85 352.97 281.45 352.97L273.36 352.91L265.26 352.81C267.95 352.76 270.64 352.73 273.33 352.7L281.39 352.63C286.77 352.63 292.15 352.63 297.53 352.58C302.91 352.53 308.29 352.58 313.69 352.63C319.09 352.68 324.48 352.71 329.91 352.8Z" fill="white"/>
<path d="M325 339.85C320.88 339.92 316.76 339.95 312.63 339.97C308.5 339.99 304.37 339.97 300.24 339.97C296.11 339.97 291.96 339.97 287.82 339.97C283.68 339.97 279.55 339.91 275.41 339.85C279.53 339.777 283.657 339.734 287.79 339.72C291.91 339.72 296.04 339.72 300.17 339.72H312.57C316.73 339.75 320.87 339.78 325 339.85Z" fill="#263238"/>
<path d="M324.47 338C321.92 338.07 319.36 338.1 316.79 338.12C314.22 338.14 311.65 338.12 309.08 338.12H301.35C298.77 338.12 296.19 338.06 293.61 337.99C296.17 337.92 298.73 337.89 301.3 337.87C303.87 337.85 306.44 337.87 309 337.87C311.56 337.87 314.15 337.87 316.72 337.87C319.29 337.87 321.88 337.93 324.47 338Z" fill="#263238"/>
<path d="M324 336.15C320.46 336.22 316.91 336.25 313.36 336.28H302.7C299.14 336.28 295.59 336.28 292.03 336.28C288.47 336.28 284.91 336.28 281.35 336.16C284.89 336.09 288.44 336.06 291.99 336.03C295.54 336 299.09 336.03 302.64 336.03C306.19 336.03 309.75 336.03 313.3 336.03C316.85 336.03 320.38 336.08 324 336.15Z" fill="#263238"/>
<path d="M312.4 294.11C310.24 294.18 308.06 294.21 305.89 294.24C303.72 294.27 301.52 294.24 299.33 294.24C297.14 294.24 294.95 294.24 292.75 294.24C290.55 294.24 288.36 294.19 286.16 294.12C288.33 294.05 290.51 294.02 292.69 293.99C294.87 293.96 297.05 293.99 299.23 293.99C301.41 293.99 303.6 293.99 305.8 293.99C308 293.99 310.19 294 312.4 294.11Z" fill="#263238"/>
<path d="M311.67 292.26C309.2 292.33 306.67 292.37 304.22 292.39C301.77 292.41 299.22 292.39 296.73 292.44C294.24 292.49 291.73 292.44 289.22 292.44C286.71 292.44 284.22 292.44 281.7 292.32C284.18 292.25 286.7 292.22 289.16 292.19C291.62 292.16 294.16 292.19 296.63 292.19H304.13C306.63 292.17 309.14 292.2 311.67 292.26Z" fill="#263238"/>
<path d="M308.39 284.89C304.71 284.964 301.02 285.007 297.32 285.02L286.19 285.07L275 285C271.28 285 267.57 284.95 263.85 284.89C267.55 284.82 271.25 284.78 274.95 284.75L286.05 284.7H297.18C300.93 284.8 304.65 284.82 308.39 284.89Z" fill="#263238"/>
<path d="M310.9 290.41C309.42 290.48 307.9 290.51 306.44 290.54C304.98 290.57 303.44 290.54 301.93 290.54C300.42 290.54 298.93 290.54 297.41 290.54C295.89 290.54 294.41 290.48 292.85 290.42C294.34 290.35 295.85 290.31 297.32 290.29C298.79 290.27 300.32 290.29 301.82 290.24C303.32 290.19 304.82 290.24 306.34 290.24C307.86 290.24 309.37 290.35 310.9 290.41Z" fill="#263238"/>
<path d="M235.67 288.65C231.97 288.72 228.27 288.75 224.57 288.78L213.48 288.83H202.4C198.72 288.83 195.04 288.78 191.4 288.71C195.12 288.64 198.82 288.61 202.52 288.58L213.6 288.53H224.6C228.31 288.55 232 288.58 235.67 288.65Z" fill="#263238"/>
<path d="M235.44 290.47C232.4 290.543 229.353 290.587 226.3 290.6C223.3 290.6 220.21 290.6 217.17 290.6H208.05C205.05 290.6 201.99 290.54 198.97 290.48C202.036 290.407 205.09 290.363 208.13 290.35C211.18 290.35 214.21 290.35 217.25 290.3C220.29 290.25 223.32 290.3 226.35 290.3C229.38 290.3 232.41 290.41 235.44 290.47Z" fill="#263238"/>
<path d="M235.91 286.8C233.13 286.87 230.34 286.9 227.56 286.93C224.78 286.96 221.99 286.93 219.21 286.98C216.43 287.03 213.65 286.98 210.88 286.98C208.11 286.98 205.34 286.92 202.59 286.86C205.39 286.79 208.18 286.75 210.96 286.72C213.74 286.69 216.52 286.72 219.3 286.72H227.61C230.38 286.7 233.15 286.73 235.91 286.8Z" fill="#263238"/>
<path d="M236.16 285C234.16 285.07 232.23 285.1 230.26 285.13C228.29 285.16 226.33 285.13 224.36 285.18C222.39 285.23 220.44 285.18 218.49 285.18C216.54 285.18 214.58 285.18 212.64 285.06C214.64 284.99 216.64 284.96 218.56 284.93C220.48 284.9 222.48 284.93 224.44 284.93C226.4 284.93 228.35 284.93 230.31 284.93C232.27 284.93 234.21 284.89 236.16 285Z" fill="#263238"/>
<path d="M307.92 286.41C307 286.77 306.03 287.11 305.02 287.41C303.93 287.765 302.813 288.03 301.68 288.2H301.2C300.999 288.231 300.793 288.2 300.61 288.11C300.413 288.006 300.263 287.831 300.19 287.62C300.075 287.3 300.02 286.961 300.03 286.62C300.024 285.997 300.074 285.375 300.18 284.76C300.383 283.525 300.718 282.314 301.18 281.15C301.295 280.841 301.457 280.551 301.66 280.29C301.727 280.209 301.808 280.141 301.9 280.09C301.984 280.039 302.082 280.014 302.18 280.02C302.262 280.004 302.347 280.004 302.43 280.02L302.57 280.08C302.792 280.192 302.974 280.37 303.09 280.59C303.37 281.182 303.458 281.846 303.34 282.49C303.246 283.12 303.028 283.725 302.7 284.27C302.317 285.003 301.725 285.605 301 286C300.481 286.244 299.921 286.386 299.35 286.42C299.017 286.457 298.682 286.457 298.35 286.42C298.042 286.36 297.749 286.237 297.49 286.06C297.27 285.916 297.039 285.789 296.8 285.68C296.537 285.561 296.246 285.517 295.96 285.55C295.452 285.646 294.959 285.804 294.49 286.02C294.26 286.12 294.04 286.22 293.8 286.31L293.41 286.44C293.233 286.49 293.046 286.49 292.87 286.44C292.56 286.28 292.57 286.12 292.4 285.98C292.296 285.898 292.178 285.837 292.051 285.801C291.924 285.765 291.791 285.755 291.66 285.77C291.215 285.91 290.794 286.116 290.41 286.38C290.04 286.61 289.68 286.85 289.32 287.09C288.6 287.57 287.88 288.09 287.12 288.54C286.73 288.77 286.34 289.01 285.91 289.23C285.682 289.349 285.448 289.455 285.21 289.55L284.79 289.68C284.693 289.687 284.596 289.687 284.5 289.68C284.385 289.679 284.272 289.651 284.17 289.6C284.084 289.547 284.014 289.472 283.968 289.382C283.922 289.292 283.902 289.191 283.91 289.09C283.891 288.931 283.891 288.77 283.91 288.61C283.984 288.295 284.088 287.987 284.22 287.69C284.486 287.041 284.861 286.443 285.33 285.92C285.478 285.765 285.646 285.631 285.83 285.52C286 285.434 286.19 285.396 286.38 285.41C286.561 285.423 286.741 285.446 286.92 285.48C287.505 285.573 288.046 285.846 288.47 286.26C288.506 286.302 288.525 286.355 288.525 286.41C288.525 286.465 288.506 286.519 288.47 286.56C288.409 286.62 288.333 286.662 288.25 286.68C288.14 286.695 288.029 286.695 287.92 286.68C287.585 286.664 287.251 286.627 286.92 286.57C286.26 286.46 285.62 286.33 284.98 286.2L283.08 285.83C282.77 285.77 282.45 285.72 282.14 285.68C281.994 285.655 281.847 285.638 281.7 285.63C281.584 285.614 281.466 285.614 281.35 285.63C280.936 285.794 280.546 286.013 280.19 286.28C279.898 286.438 279.572 286.524 279.24 286.53C279.097 286.537 278.955 286.516 278.82 286.47C278.67 286.4 278.65 286.32 278.64 286.27C278.624 286.184 278.624 286.096 278.64 286.01C278.7 285.87 278.7 285.69 278.64 285.68C278.394 285.647 278.145 285.647 277.9 285.68C277.363 285.762 276.836 285.903 276.33 286.1C276.09 286.19 275.84 286.29 275.55 286.38C275.204 286.489 274.841 286.529 274.48 286.5C273.857 286.401 273.253 286.206 272.69 285.92C272.447 285.803 272.196 285.703 271.94 285.62C271.82 285.62 271.71 285.57 271.69 285.62C271.568 285.649 271.447 285.686 271.33 285.73C270.85 285.91 270.39 286.12 269.94 286.33C269.108 286.724 268.318 287.2 267.58 287.75C267.27 288.01 266.98 288.3 267.03 288.57C267.08 288.84 267.69 288.99 268.34 289.04C269.648 289.15 270.962 289.15 272.27 289.04C272.894 288.987 273.515 288.9 274.13 288.78C274.405 288.727 274.676 288.654 274.94 288.56C275.17 288.47 275.37 288.35 275.28 288.24C275.077 288.09 274.84 287.994 274.59 287.96C274.3 287.89 273.97 287.85 273.65 287.79C273.01 287.69 272.37 287.59 271.71 287.52C269.1 287.23 266.44 287.23 263.8 287.17C266.43 287.17 269.1 287.17 271.75 287.44C272.41 287.5 273.07 287.59 273.75 287.69L274.75 287.87C275.059 287.91 275.352 288.031 275.6 288.22C275.75 288.44 275.44 288.6 275.2 288.69C274.918 288.797 274.627 288.878 274.33 288.93C273.699 289.061 273.061 289.155 272.42 289.21C271.068 289.35 269.706 289.371 268.35 289.27C268.013 289.243 267.678 289.19 267.35 289.11C267.01 289.01 266.75 288.82 266.72 288.64C266.66 288.27 266.99 287.97 267.3 287.69C268.046 287.112 268.854 286.619 269.71 286.22C270.16 286 270.62 285.79 271.13 285.6C271.273 285.543 271.42 285.496 271.57 285.46C271.797 285.422 272.03 285.439 272.25 285.51C272.536 285.599 272.817 285.706 273.09 285.83C273.575 286.081 274.094 286.259 274.63 286.36C275.105 286.326 275.57 286.204 276 286C276.548 285.775 277.123 285.621 277.71 285.54C278.092 285.456 278.488 285.456 278.87 285.54C279.13 285.63 279.17 285.77 279.17 285.86C279.164 285.945 279.147 286.029 279.12 286.11C279.107 286.18 279.107 286.251 279.12 286.32C279.12 286.32 279.12 286.32 279.18 286.32C279.411 286.314 279.637 286.252 279.84 286.14C280.232 285.851 280.663 285.618 281.12 285.45C281.306 285.406 281.498 285.39 281.69 285.4C281.867 285.406 282.044 285.422 282.22 285.45L283.22 285.62L285.12 286L287.02 286.36C287.324 286.416 287.631 286.45 287.94 286.46C288.16 286.46 288.25 286.38 288.15 286.25C287.802 285.904 287.354 285.677 286.87 285.6C286.728 285.57 286.584 285.55 286.44 285.54C286.346 285.538 286.254 285.559 286.17 285.6C286 285.698 285.846 285.819 285.71 285.96C285.237 286.467 284.852 287.048 284.57 287.68C284.437 287.974 284.33 288.278 284.25 288.59C284.214 288.741 284.197 288.895 284.2 289.05C284.19 289.13 284.2 289.212 284.23 289.287C284.259 289.362 284.308 289.429 284.37 289.48C284.49 289.56 284.85 289.48 285.06 289.37C285.293 289.286 285.52 289.186 285.74 289.07C286.17 288.85 286.57 288.62 286.96 288.39C287.73 287.92 288.45 287.39 289.19 286.96C289.55 286.72 289.92 286.48 290.3 286.25C290.702 285.976 291.144 285.763 291.61 285.62C291.941 285.579 292.274 285.669 292.54 285.87C292.71 286.02 292.77 286.21 292.97 286.3C293.091 286.334 293.219 286.334 293.34 286.3C293.462 286.265 293.583 286.221 293.7 286.17L294.38 285.89C294.864 285.652 295.379 285.484 295.91 285.39C296.25 285.354 296.595 285.405 296.91 285.54C297.163 285.652 297.407 285.782 297.64 285.93C297.865 286.081 298.116 286.189 298.38 286.25C298.686 286.28 298.994 286.28 299.3 286.25C299.936 286.22 300.553 286.025 301.091 285.685C301.629 285.345 302.07 284.872 302.37 284.31C302.679 283.767 302.879 283.17 302.96 282.55C303.062 281.924 302.968 281.281 302.69 280.71C302.594 280.541 302.456 280.4 302.29 280.3H302.23H302.16C302.091 280.343 302.03 280.397 301.98 280.46C301.783 280.712 301.625 280.992 301.51 281.29C301.045 282.439 300.71 283.637 300.51 284.86C300.388 285.466 300.321 286.082 300.31 286.7C300.307 287.019 300.354 287.336 300.45 287.64C300.504 287.816 300.621 287.966 300.78 288.06C300.897 288.098 301.023 288.098 301.14 288.06H301.6C302.727 287.893 303.84 287.643 304.93 287.31C305.93 287.01 306.93 286.68 307.93 286.31L307.92 286.41Z" fill="#263238"/>
<path d="M347.48 337.17H152.22C160.63 327.32 165.27 317.46 168.81 307.61C172.23 298.1 174.63 288.61 178.41 279.09C178.91 277.84 179.41 276.58 179.99 275.33H321.24C329.78 295.94 330.43 316.56 347.48 337.17Z" fill="white"/>
<path d="M348.21 337.17C330.98 316.56 330.28 295.94 321.64 275.33H320.85C327.33 291.14 329.18 306.95 337.31 322.76C338.18 324.46 339.12 326.16 340.16 327.86L340.8 328.86C341.19 329.48 341.59 330.11 342.01 330.73L342.62 331.63C342.83 331.95 343.05 332.26 343.28 332.58C343.51 332.9 343.72 333.21 343.96 333.52C344.77 334.63 345.63 335.75 346.54 336.87H347.24L346.75 337.13L346.54 336.87L152.88 337L152.72 337.18C152.6 337.13 152.5 337.06 152.38 337H152.88C154.14 335.553 155.31 334.097 156.39 332.63C157.58 331.05 158.65 329.47 159.64 327.89C163.534 321.545 166.615 314.734 168.81 307.62C170.01 303.94 171.08 300.26 172.16 296.62C174.03 290.78 175.98 284.97 178.41 279.14C178.93 277.89 179.47 276.63 180.05 275.38H179.8C176.667 282.26 173.942 289.319 171.64 296.52C167.51 310.08 163.78 323.65 151.72 337.22L151.55 337.41H152.05L347.72 337.5H348.45L348.21 337.17Z" fill="#263238"/>
<path d="M159.29 327.88H340.63C341.63 329.46 342.63 331.04 343.8 332.63H156C157.207 331.043 158.303 329.46 159.29 327.88Z" fill="#263238"/>
<path d="M340.63 327.87H241.63C244.5 326.17 247.28 324.47 250.01 322.77H337.82C338.673 324.463 339.61 326.163 340.63 327.87Z" fill="#263238"/>
<path d="M344.51 333.56H241.22L245.58 331.68H343.13C343.57 332.307 344.03 332.934 344.51 333.56Z" fill="#1976D2"/>
<path d="M342.5 330.78H288.5L292.12 328.9H341.27C341.67 329.52 342.08 330.15 342.5 330.78Z" fill="#1976D2"/>
<path d="M185.37 300H315.23L316.16 304H184.34C184.69 302.62 185 301.29 185.37 300Z" fill="white"/>
<path d="M184.34 304H316.16C316.48 305.33 316.8 306.66 317.16 308H183.3C183.64 306.61 184 305.28 184.34 304Z" fill="#1976D2"/>
<path d="M186.4 296L314.3 295.95L315.23 299.95H185.37C185.71 298.63 186.05 297.3 186.4 296Z" fill="#DBDBDB"/>
<path d="M187.45 292L313.33 291.94C313.66 293.27 313.98 294.61 314.33 295.94L186.4 296C186.74 294.667 187.09 293.333 187.45 292Z" fill="white"/>
<path d="M188.58 288L312.31 287.93C312.66 289.27 313 290.6 313.31 291.93L187.45 292C187.82 290.65 188.19 289.32 188.58 288Z" fill="#DBDBDB"/>
<path d="M189.78 284L311.19 283.93C311.58 285.26 311.95 286.59 312.31 287.93L188.58 288C189 286.66 189.37 285.33 189.78 284Z" fill="white"/>
<path d="M191.11 280L310 279.93C310.43 281.26 310.84 282.6 311.23 283.93L189.78 284C190.21 282.67 190.65 281.33 191.11 280Z" fill="#DBDBDB"/>
<path d="M192.56 276L273.81 275.95C273.99 277.28 274.16 278.61 274.33 279.95L191.11 280C191.57 278.67 192.06 277.34 192.56 276Z" fill="#1976D2"/>
<path d="M274.33 280H309.96C312.96 289.33 314.74 298.65 317.13 308H277C276.11 298.6 275.45 289.27 274.33 280Z" fill="#C7C7C7"/>
<path d="M315.23 299.91L250.3 300H185.37L250.3 299.93L315.23 299.91Z" fill="#263238"/>
<path d="M314.3 295.92L250.3 295.99H186.35L250.3 295.91L314.3 295.92Z" fill="#263238"/>
<path d="M313.33 291.92L250.39 292H187.45L250.39 291.92H313.33Z" fill="#263238"/>
<path d="M312.31 287.92L250.44 288.01H188.58L250.44 287.93L312.31 287.92Z" fill="#263238"/>
<path d="M311.19 283.93L250.49 284.01H189.78L250.49 283.92L311.19 283.93Z" fill="#263238"/>
<path d="M310 279.93L250.58 280.02H191.15L250.58 279.94L310 279.93Z" fill="#263238"/>
<path d="M309.53 305.91C305.3 306 301.06 306 296.82 306.02C292.58 306.04 288.34 306.02 284.08 305.92C288.31 305.83 292.55 305.83 296.79 305.81C301.03 305.79 305.27 305.83 309.53 305.91Z" fill="#263238"/>
<path d="M308.69 301.91C305.54 302 302.38 302.01 299.22 302.02C296.06 302.03 292.9 302.02 289.73 301.92C292.87 301.84 296.03 301.83 299.19 301.82C302.35 301.81 305.51 301.83 308.69 301.91Z" fill="#263238"/>
<path d="M307.86 297.92C303.76 298 299.65 298.01 295.53 298.02C291.41 298.03 287.3 298.02 283.17 297.93C287.28 297.84 291.39 297.84 295.5 297.82C299.61 297.8 303.73 297.84 307.86 297.92Z" fill="#263238"/>
<path d="M307 293.92C303.68 294.01 300.35 294.01 297 294.03C293.65 294.05 290.33 294.03 287 293.93C290.32 293.85 293.66 293.84 297 293.83C300.34 293.82 303.67 293.84 307 293.92Z" fill="#263238"/>
<path d="M306.14 289.93C302.14 290.01 298.19 290.02 294.21 290.03C290.23 290.04 286.21 290.03 282.21 289.94C286.21 289.85 290.21 289.84 294.15 289.83C298.09 289.82 302.14 289.84 306.14 289.93Z" fill="#263238"/>
<path d="M305.2 285.93C301.3 286.02 297.39 286.02 293.47 286.04C289.55 286.06 285.64 286.04 281.71 285.94C285.61 285.86 289.52 285.85 293.43 285.84C297.34 285.83 301.26 285.85 305.2 285.93Z" fill="#263238"/>
<path d="M304.16 281.93C301.85 282.01 299.52 282.03 297.16 282.04C294.8 282.05 292.5 282.04 290.16 281.94C292.47 281.86 294.8 281.84 297.16 281.84C299.52 281.84 301.81 281.86 304.16 281.93Z" fill="#263238"/>
<path d="M267.51 305.92C264.33 306.01 261.14 306.01 257.95 306.03C254.76 306.05 251.57 306.03 248.39 305.93C251.58 305.84 254.76 305.84 257.95 305.82C261.14 305.8 264.32 305.84 267.51 305.92Z" fill="#263238"/>
<path d="M267.3 301.93C264.16 302.01 261.02 302.02 257.88 302.03C254.74 302.04 251.6 302.03 248.46 301.93C251.6 301.85 254.74 301.84 257.88 301.83C261.02 301.82 264.16 301.85 267.3 301.93Z" fill="#263238"/>
<path d="M267.09 297.93C264 298.02 260.91 298.02 257.82 298.04C254.73 298.06 251.63 298.04 248.54 297.94C251.63 297.86 254.72 297.85 257.81 297.84C260.9 297.83 264 297.85 267.09 297.93Z" fill="#263238"/>
<path d="M266.88 293.94C263.88 294.02 260.79 294.03 257.75 294.04C254.71 294.05 251.66 294.04 248.61 293.95C251.61 293.86 254.7 293.86 257.75 293.84C260.8 293.82 263.83 293.86 266.88 293.94Z" fill="#263238"/>
<path d="M266.66 289.94C263.66 290.03 260.66 290.04 257.66 290.05C254.66 290.06 251.66 290.05 248.66 289.95C251.66 289.87 254.66 289.86 257.66 289.85C260.66 289.84 263.66 289.86 266.66 289.94Z" fill="#263238"/>
<path d="M266.421 286C263.481 286.09 260.54 286.09 257.59 286.11C254.641 286.13 251.711 286.11 248.771 286.01C251.711 285.92 254.65 285.92 257.59 285.9C260.531 285.88 263.471 285.87 266.421 286Z" fill="#263238"/>
<path d="M266.15 282C263.27 282.08 260.38 282.09 257.5 282.1C254.62 282.11 251.73 282.1 248.85 282.01C251.73 281.92 254.61 281.91 257.5 281.9C260.39 281.89 263.26 281.87 266.15 282Z" fill="#263238"/>
<path d="M239.88 305.93C236.68 306.01 233.49 306.02 230.31 306.03C227.13 306.04 223.93 306.03 220.75 305.94C223.95 305.85 227.14 305.84 230.32 305.83C233.5 305.82 236.69 305.85 239.88 305.93Z" fill="#263238"/>
<path d="M235.26 282C234.33 282.08 233.41 282.1 232.49 282.11C231.57 282.12 230.65 282.11 229.74 282.01C230.67 281.93 231.59 281.91 232.51 281.9C233.43 281.89 234.35 281.9 235.26 282Z" fill="#263238"/>
<path d="M234.9 286C233.96 286.08 233.021 286.09 232.081 286.1C231.141 286.11 230.201 286.1 229.271 286C230.221 285.92 231.161 285.9 232.101 285.9C233.041 285.9 234 285.89 234.9 286Z" fill="#263238"/>
<path d="M234.57 290C233.57 290.08 232.65 290.1 231.69 290.1C230.73 290.1 229.78 290.1 228.83 290C229.83 289.92 230.76 289.9 231.71 289.9C232.66 289.9 233.62 289.88 234.57 290Z" fill="#263238"/>
<path d="M234.26 294C233.26 294.08 232.31 294.1 231.34 294.11C230.37 294.12 229.34 294.11 228.43 294.01C229.43 293.93 230.38 293.91 231.35 293.9C232.32 293.89 233.3 293.87 234.26 294Z" fill="#263238"/>
<path d="M234 298C233 298.08 232 298.09 231 298.1C230 298.11 229 298.1 228 298C229 297.92 230 297.9 231 297.9C232 297.9 233 297.87 234 298Z" fill="#263238"/>
<path d="M233.67 301.94C232.67 302.02 231.67 302.04 230.67 302.04C229.67 302.04 228.67 302.04 227.67 301.94C228.67 301.86 229.67 301.84 230.67 301.84C231.67 301.84 232.67 301.86 233.67 301.94Z" fill="#263238"/>
<path d="M234 278C232.4 278.08 230.81 278.1 229.21 278.11C227.61 278.12 226.03 278.11 224.45 278.01C226.06 277.93 227.65 277.91 229.24 277.9C230.83 277.89 232.46 277.9 234 278Z" fill="#263238"/>
<path d="M212.24 305.94C209.04 306.02 205.85 306.03 202.66 306.04C199.47 306.05 196.29 306.04 193.12 305.94C196.32 305.86 199.51 305.85 202.7 305.84C205.89 305.83 209.07 305.86 212.24 305.94Z" fill="#263238"/>
<path d="M212.861 302C209.701 302.08 206.561 302.09 203.421 302.1C200.281 302.11 197.141 302.1 194.021 302C197.181 301.92 200.321 301.91 203.461 301.9C206.601 301.89 209.731 301.86 212.861 302Z" fill="#263238"/>
<path d="M213.46 298C210.36 298.09 207.26 298.09 204.17 298.11C201.08 298.13 197.98 298.11 194.91 298.01C198.02 297.93 201.11 297.92 204.21 297.91C207.31 297.9 210.39 297.87 213.46 298Z" fill="#263238"/>
<path d="M214.08 294C211.02 294.09 207.97 294.09 204.92 294.11C201.87 294.13 198.84 294.11 195.81 294.01C198.87 293.92 201.92 293.92 204.96 293.9C208 293.88 211.05 293.88 214.08 294Z" fill="#263238"/>
<path d="M214.72 290C211.72 290.08 208.72 290.09 205.72 290.1C202.72 290.11 199.72 290.1 196.72 290.01C199.72 289.92 202.72 289.92 205.72 289.9C208.72 289.88 211.74 289.89 214.72 290Z" fill="#263238"/>
<path d="M215.41 286C212.41 286.08 209.5 286.09 206.56 286.1C203.62 286.11 200.68 286.1 197.76 286.01C200.76 285.92 203.66 285.91 206.6 285.9C209.54 285.89 212.48 285.9 215.41 286Z" fill="#263238"/>
<path d="M216.15 282C213.25 282.09 210.36 282.1 207.47 282.11C204.58 282.12 201.71 282.11 198.85 282.01C201.75 281.93 204.64 281.92 207.52 281.91C210.4 281.9 213.28 281.9 216.15 282Z" fill="#263238"/>
<path d="M217 278C214.16 278.09 211.34 278.1 208.52 278.11C205.7 278.12 202.88 278.11 200.09 278.01C202.93 277.93 205.75 277.92 208.57 277.91C211.39 277.9 214.16 277.91 217 278Z" fill="#263238"/>
<path d="M322.67 324.91C318.39 324.99 314.09 325.03 309.79 325.07C305.49 325.11 301.16 325.07 296.85 325.07C292.54 325.07 288.21 325.07 283.85 325.07L277.4 325L270.92 324.91C273.07 324.86 275.22 324.84 277.37 324.81L283.83 324.75C288.13 324.75 292.44 324.75 296.74 324.7C301.04 324.65 305.36 324.7 309.68 324.75C314 324.8 318.33 324.83 322.67 324.91Z" fill="white"/>
<path d="M323.57 326.88C318.65 326.97 313.7 327 308.75 327.04C303.8 327.08 298.83 327.04 293.87 327.04C288.91 327.04 283.93 327.04 278.96 327.04L271.5 327L264.05 326.9C266.53 326.85 269 326.83 271.48 326.8L278.9 326.74C283.9 326.74 288.8 326.74 293.75 326.69C298.7 326.64 303.67 326.69 308.63 326.74C313.59 326.79 318.57 326.8 323.57 326.88Z" fill="white"/>
<path d="M319.06 315C315.28 315.06 311.48 315.09 307.68 315.11C303.88 315.13 300.07 315.11 296.27 315.11C292.47 315.11 288.65 315.11 284.84 315.11C281.03 315.11 277.22 315.06 273.41 315C277.21 314.93 281.01 314.9 284.81 314.88C288.61 314.86 292.41 314.88 296.21 314.88H307.62C311.43 314.87 315.24 314.89 319.06 315Z" fill="#263238"/>
<path d="M318.56 313.25C316.21 313.32 313.85 313.35 311.49 313.37C309.13 313.39 306.76 313.37 304.39 313.37C302.02 313.37 299.65 313.37 297.27 313.37C294.89 313.37 292.53 313.32 290.15 313.26C292.5 313.2 294.87 313.17 297.23 313.14C299.59 313.11 301.96 313.14 304.32 313.14C306.68 313.14 309.06 313.14 311.43 313.14C313.8 313.14 316.18 313.19 318.56 313.25Z" fill="#263238"/>
<path d="M318.09 311.55C314.83 311.61 311.57 311.64 308.3 311.67H298.48C295.21 311.67 291.93 311.67 288.65 311.67C285.37 311.67 282.1 311.62 278.82 311.56C282.08 311.5 285.35 311.47 288.62 311.44H298.43C301.7 311.44 304.97 311.44 308.24 311.44C311.51 311.44 314.8 311.49 318.09 311.55Z" fill="#263238"/>
<path d="M307.93 443.34C305.55 444.25 236.47 445.51 233.77 443.96C233.47 443.79 233.55 440.74 232.54 432.85C232.48 432.48 230.91 431.01 228.45 428.95C219.21 421.21 197.5 404.88 197.5 404.88L232 374.93L265.4 407.77L274.09 416.31C274.09 416.31 302.32 431.55 305.09 433.56C307.86 435.57 310.31 442.42 307.93 443.34Z" fill="#AD6359"/>
<path d="M307.93 443.33C305.55 444.26 236.47 445.51 233.77 443.96C233.47 443.79 233.56 440.74 232.53 432.85C232.53 432.48 230.91 431.02 228.45 428.95C225.24 426.26 223.71 425.03 218.93 421.3L262.76 405.19L265.39 407.77L274.07 416.31C274.07 416.31 302.3 431.55 305.07 433.56C307.84 435.57 310.31 442.42 307.93 443.33Z" fill="#EBEBEB"/>
<path d="M312.691 444.29C310.291 445.12 236.691 445.93 234.041 444.29C233.411 443.91 232.841 439.63 232.391 433.77C232.331 433.04 224.871 427.08 223.851 425.98L269.001 410.8L274.691 416.16C274.691 416.16 307.881 431.6 310.601 433.7C313.321 435.8 315.091 443.46 312.691 444.29Z" fill="#1976D2"/>
<path d="M311.67 441.54C300.1 441.39 248.81 441.89 237.37 442.62C237.27 442.62 237.28 442.69 237.37 442.69C248.83 443.09 300.12 442.22 311.67 441.69C311.91 441.72 311.91 441.55 311.67 441.54Z" fill="#263238"/>
<path d="M278.331 416.64C273.771 415.85 268.221 416.64 264.781 419.89C264.641 420.02 264.831 420.21 264.971 420.16C269.302 418.703 273.778 417.717 278.321 417.22C278.397 417.221 278.472 417.192 278.527 417.138C278.582 417.085 278.614 417.012 278.616 416.935C278.617 416.858 278.588 416.784 278.534 416.728C278.481 416.673 278.407 416.641 278.331 416.64Z" fill="#263238"/>
<path d="M281.64 418.58C277.08 417.79 271.52 418.58 268.08 421.83C267.95 421.96 268.13 422.15 268.28 422.1C272.611 420.641 277.087 419.655 281.63 419.16C281.707 419.161 281.781 419.132 281.836 419.078C281.892 419.025 281.924 418.952 281.925 418.875C281.926 418.798 281.897 418.723 281.843 418.668C281.79 418.613 281.717 418.581 281.64 418.58Z" fill="#263238"/>
<path d="M284.94 420.52C280.38 419.73 274.83 420.52 271.39 423.77C271.26 423.9 271.44 424.09 271.59 424.04C275.918 422.582 280.391 421.596 284.93 421.1C285.007 421.101 285.082 421.072 285.137 421.019C285.192 420.965 285.224 420.892 285.225 420.815C285.227 420.738 285.197 420.664 285.144 420.609C285.091 420.553 285.017 420.521 284.94 420.52Z" fill="#263238"/>
<path d="M288.25 422.46C283.69 421.67 278.14 422.46 274.7 425.71C274.56 425.84 274.75 426.03 274.89 425.98C279.222 424.514 283.697 423.515 288.24 423C288.295 422.98 288.342 422.944 288.376 422.896C288.41 422.848 288.429 422.792 288.43 422.733C288.431 422.675 288.414 422.618 288.382 422.569C288.35 422.52 288.304 422.482 288.25 422.46Z" fill="#263238"/>
<path d="M286.61 406C284.79 403.56 281.48 404.71 279.61 406.33C276.431 409.164 274.055 412.786 272.72 416.83C272.713 416.848 272.711 416.867 272.714 416.885C272.716 416.904 272.723 416.922 272.734 416.938C272.745 416.953 272.759 416.966 272.776 416.975C272.792 416.984 272.811 416.989 272.83 416.99C272.826 417.079 272.844 417.168 272.881 417.249C272.919 417.33 272.975 417.4 273.045 417.455C273.116 417.51 273.198 417.547 273.286 417.564C273.374 417.58 273.464 417.575 273.55 417.55C277.29 416.12 281.47 415.05 284.66 412.55C286.51 411 288.33 408.33 286.61 406ZM278.77 414.22C276.94 414.97 275.1 415.62 273.3 416.44C274.583 414.37 275.971 412.367 277.46 410.44C278.192 409.506 278.987 408.624 279.84 407.8C281.18 406.55 286.51 403.87 285.76 408.87C285.35 411.61 280.94 413.34 278.77 414.24V414.22Z" fill="#263238"/>
<path d="M261.14 415.8C264.9 417.35 269.21 417.22 273.21 417.56C273.299 417.56 273.387 417.539 273.466 417.498C273.545 417.457 273.613 417.398 273.665 417.326C273.717 417.254 273.751 417.17 273.764 417.082C273.777 416.994 273.769 416.904 273.74 416.82C273.759 416.814 273.776 416.804 273.79 416.79C273.804 416.777 273.815 416.76 273.821 416.741C273.827 416.722 273.828 416.702 273.824 416.683C273.821 416.663 273.812 416.645 273.8 416.63C271.393 413.119 268.107 410.302 264.27 408.46C262.01 407.46 258.51 407.25 257.44 410.09C256.37 412.93 258.94 414.89 261.14 415.8ZM259.04 412.58C256.94 407.98 262.8 409.08 264.44 409.9C265.481 410.455 266.483 411.08 267.44 411.77C269.44 413.17 271.24 414.84 273.11 416.43C271.16 416.14 269.2 416.02 267.24 415.81C264.92 415.55 260.2 415.11 259 412.58H259.04Z" fill="#263238"/>
<path d="M265.86 405.94L223.25 428C223.25 428 178.85 387.81 174.78 387.52C170.71 387.23 111 427.76 80.92 427.89C49.78 428.02 48.21 395.39 48.21 395.39L93.64 385C126.38 368.86 160.49 339.87 182.8 342.58C207 345.47 265.86 405.94 265.86 405.94Z" fill="#37474F"/>
<path d="M255.45 400.31C248.26 403.87 250.27 402.75 243.12 406.38C239.62 408.16 222 417.05 219.01 419.25C218.995 419.261 218.985 419.277 218.981 419.295C218.977 419.313 218.98 419.332 218.988 419.348C218.996 419.364 219.01 419.378 219.026 419.385C219.043 419.393 219.062 419.394 219.08 419.39C222.6 418.21 240.02 408.94 243.49 407.1C250.58 403.34 248.49 404.35 255.55 400.51C255.576 400.496 255.596 400.473 255.606 400.445C255.615 400.417 255.613 400.386 255.6 400.36C255.586 400.333 255.563 400.313 255.535 400.304C255.507 400.294 255.476 400.296 255.45 400.31Z" fill="#263238"/>
<path d="M215.7 417.84C207.37 410.49 180.07 386.58 178.96 385.69C178.103 384.867 177.15 384.152 176.12 383.56C175.695 383.392 175.237 383.324 174.781 383.36C174.325 383.397 173.884 383.537 173.49 383.77C172.23 384.36 170.99 385 169.74 385.62L162.36 389.22C152.81 393.88 143.36 398.66 133.7 403.17C124.44 407.5 117.84 411.58 108.18 414.91C98.5741 418.311 88.6356 420.687 78.5302 422C77.2902 422.15 76.0402 422.28 74.7902 422.4C74.7002 422.4 74.7002 422.55 74.7902 422.54C84.7155 421.951 94.5283 420.124 104 417.1C113.57 414.1 120.07 410.33 129.16 406.1C138.58 401.76 147.87 397.1 157.16 392.51C162.06 390.07 166.95 387.61 171.87 385.2C172.98 384.66 174.57 383.47 175.87 384.06C176.405 384.354 176.899 384.717 177.34 385.14L178.97 386.5C181.08 388.26 214.54 417.08 215.64 417.91C215.67 418 215.78 417.91 215.7 417.84Z" fill="#263238"/>
<path d="M48.1197 395.39C48.1197 395.39 43.0197 424.85 57.7597 436.39C72.4997 447.93 180.42 446.57 196.76 441.27C213.1 435.97 213.65 409.56 195.76 403.43C178.76 397.61 106.29 394.78 104.5 394.06C104.06 393.89 110.93 389.77 110.9 389.52L94.4097 384.52L48.1197 395.39Z" fill="#37474F"/>
<path d="M70.4798 394.65C70.4798 394.52 70.2598 394.56 70.2598 394.65C70.2635 398.073 69.0595 401.388 66.8598 404.01C64.3498 406.91 60.6498 408.53 57.2998 410.22C56.9798 410.39 57.2198 410.89 57.5598 410.79C59.6179 410.161 61.6 409.306 63.4698 408.24C65.1912 407.325 66.706 406.066 67.9198 404.54C69.0064 403.158 69.7948 401.565 70.2354 399.863C70.676 398.161 70.7592 396.386 70.4798 394.65Z" fill="#263238"/>
<path d="M103.34 391C102.59 390 101.77 389.13 100.99 388.21C99.1497 386.01 97.2997 383.81 95.3597 381.69C95.1797 381.49 94.8197 381.77 94.9897 381.99C96.2897 383.69 97.6697 385.34 98.9897 386.99L101.08 389.54C101.829 390.296 102.499 391.127 103.08 392.02C103.58 392.96 102.92 393.77 101.94 393.87C101.071 393.893 100.226 393.582 99.5797 393C98.1175 391.703 96.7785 390.274 95.5797 388.73C94.7997 387.86 94.0198 386.98 93.2298 386.12C92.4398 385.26 91.4998 384.33 90.6598 383.42C90.6598 383.36 90.5098 383.42 90.5498 383.51C91.2898 384.51 91.9598 385.56 92.6898 386.56C93.4198 387.56 94.1697 388.56 94.9197 389.56C95.6697 390.56 96.3797 391.41 97.1397 392.31C97.7744 393.096 98.5347 393.772 99.3897 394.31C100.79 395.13 103.22 395.31 103.97 393.5C104.097 393.065 104.106 392.604 103.996 392.164C103.885 391.725 103.658 391.323 103.34 391Z" fill="#263238"/>
<path d="M194.55 441.41C188.91 441.52 183.28 441.85 177.64 441.97C172 442.09 166.45 442.12 160.86 442.06C149.62 441.96 138.393 441.523 127.18 440.75C115.85 439.97 103.64 438.84 92.3797 437.29C86.9997 436.54 81.5397 435.92 76.2197 434.77C71.4349 433.863 67.0102 431.604 63.4697 428.26C56.1897 421.19 53.3497 410.8 52.1897 400.87C52.0297 399.54 51.9097 398.21 51.7997 396.87C51.7997 396.78 51.6497 396.78 51.6597 396.87C52.3197 407.05 53.8997 417.67 60.2997 425.87C63.0009 429.45 66.5986 432.254 70.7297 434C75.7297 436 81.3697 436.49 86.7297 437.21C98.0197 438.75 110.29 439.93 121.65 440.81C133.01 441.69 144.55 442.25 156.01 442.42C167.47 442.59 178.95 442.42 190.41 441.86C191.8 441.8 193.2 441.71 194.59 441.59C194.63 441.53 194.63 441.41 194.55 441.41Z" fill="#263238"/>
<path d="M159 398.1C155.45 397.58 151.91 397.1 148.34 396.7C144.77 396.3 141.13 396 137.52 395.7C130.38 395.09 123.22 394.55 116.06 394.22C111.99 394.02 107.93 394 103.86 394.06C103.73 394.06 103.74 394.24 103.86 394.26C111.02 394.9 118.18 395.35 125.35 395.83C132.52 396.31 139.65 396.93 146.79 397.62C150.84 398 154.89 398.3 158.94 398.62C159 398.612 159.055 398.584 159.097 398.542C159.139 398.499 159.166 398.443 159.173 398.383C159.18 398.324 159.166 398.263 159.135 398.212C159.104 398.161 159.057 398.121 159 398.1Z" fill="#263238"/>
<path d="M111.76 389.2C108.9 390.428 106.151 391.897 103.54 393.59C100.888 395.188 98.3491 396.966 95.9396 398.91C95.8696 398.97 95.9396 399.06 96.0296 399.02C98.8196 397.73 101.49 396.12 104.15 394.57C106.842 393.062 109.44 391.393 111.93 389.57C112.1 389.44 112 389.1 111.76 389.2Z" fill="#263238"/>
<path d="M82.7302 331.92C87.0302 350.81 95.9502 373.46 99.7302 377.14C104.56 381.8 136.6 390.39 138.2 390.57C142.2 390.97 150.2 362.49 145.95 361.87C139.53 360.93 116.19 359.6 114.8 358.16C113.41 356.72 103.53 344.16 93.4302 330.16C86.5002 320.44 80.0702 320.2 82.7302 331.92Z" fill="#EB9481"/>
<path d="M135.07 389C138.717 390.879 142.493 392.497 146.37 393.84C149.46 394.74 158.37 397.1 159.75 393.84C160.66 391.59 155.56 389.58 151.98 388.08C150.09 387.29 147.77 385.31 148.33 384.08C149.33 381.96 154.16 384.08 157.33 385.96C163.5 389.57 171.71 396.05 175.49 392.96C176.92 391.78 175.27 389.62 172.85 387.5C176.78 389.97 180.97 392 182.6 390.76C183.024 390.439 183.309 389.968 183.397 389.443C183.484 388.919 183.367 388.381 183.07 387.94C183.56 388.166 184.106 388.243 184.64 388.161C185.173 388.079 185.671 387.842 186.07 387.48C187.35 386.14 186.73 384.17 185.34 382.14C185.58 382.113 185.809 382.03 186.011 381.898C186.212 381.766 186.38 381.588 186.5 381.38C189.21 377.26 175.7 365.38 171.02 364.26C161.731 362.216 152.229 361.3 142.72 361.53C137.35 365.8 135.06 389 135.07 389Z" fill="#EB9481"/>
<path d="M155.361 376.38C158.641 376.904 161.773 378.117 164.551 379.94C168.041 382.26 170.351 384.94 173.271 387.69C173.351 387.76 173.271 387.88 173.171 387.81C171.771 386.51 165.991 381.64 164.501 380.53C161.802 378.488 158.672 377.089 155.351 376.44L155.361 376.38Z" fill="#263238"/>
<path d="M158 370.54C161.678 371.417 165.256 372.667 168.68 374.27C172.36 376.15 175.23 379.27 178.06 382.16C179.75 383.93 181.41 385.74 183.06 387.59C183.13 387.66 183.06 387.79 182.95 387.71C180.09 384.663 177.137 381.706 174.09 378.84C171.279 376.162 167.97 374.063 164.35 372.66C162.28 371.87 160.15 371.24 158.02 370.6C157.89 370.59 157.91 370.53 158 370.54Z" fill="#263238"/>
<path d="M161.83 365.43C165.35 366.16 168.41 366.79 171.53 368.68C175.016 371.015 178.198 373.776 181 376.9C182.54 378.55 184 380.25 185.48 381.98C185.54 382.05 185.42 382.15 185.36 382.08C182.023 378.3 178.446 374.739 174.65 371.42C172.864 369.814 170.84 368.495 168.65 367.51C166.429 366.632 164.137 365.946 161.8 365.46C161.8 365.46 161.81 365.43 161.83 365.43Z" fill="#263238"/>
<path d="M140.56 360.32L130.63 391.53C130.63 391.53 103.95 383.85 99.0798 378.53C94.2098 373.21 85.2798 346.07 82.6598 332.9C80.0398 319.73 86.6598 320.07 92.7998 328.39C98.9398 336.71 114.09 356.86 114.94 357.3C115.79 357.74 140.56 360.32 140.56 360.32Z" fill="#1976D2"/>
<path d="M104.27 343.77C103.43 345.36 102.68 346.99 101.97 348.64C100.58 351.86 99.34 355.15 97.97 358.39C97.67 359.07 97.37 359.76 97.05 360.39C97.05 360.51 96.94 360.63 96.89 360.74C95.8691 362.968 94.6226 365.086 93.17 367.06C93.08 366.84 93 366.61 92.9 366.39C94.2801 364.471 95.4627 362.417 96.43 360.26C96.43 360.14 96.54 360.03 96.59 359.92C96.87 359.32 97.14 358.71 97.4 358.1C98.78 354.88 100.02 351.59 101.4 348.35C102.1 346.73 102.83 345.13 103.65 343.56L103.86 343.18L104.27 343.77ZM130.58 388.34C128.848 388.134 127.159 387.651 125.58 386.91C123.998 386.183 122.488 385.309 121.07 384.3L120.68 384.02L120.24 383.7C117.718 381.795 115.333 379.717 113.1 377.48C108.1 372.55 103.5 367.22 98.64 362.13C98.1 361.56 97.55 361 96.99 360.43C96.84 360.27 96.69 360.11 96.53 359.96C94.77 358.17 92.96 356.43 91.06 354.78C90 353.85 89 353 87.83 352.1C87.83 352.25 87.93 352.41 87.97 352.56C88.97 353.34 89.97 354.16 90.9 355C92.81 356.69 94.63 358.47 96.41 360.3L96.87 360.78C97.39 361.31 97.87 361.85 98.41 362.39C103.24 367.49 107.81 372.84 112.8 377.82C114.992 380.029 117.33 382.087 119.8 383.98L120.26 384.31C120.45 384.46 120.65 384.6 120.85 384.74C122.289 385.778 123.822 386.679 125.43 387.43C127.052 388.195 128.788 388.688 130.57 388.89C130.878 388.93 131.189 388.95 131.5 388.95L131.67 388.41C131.306 388.408 130.942 388.385 130.58 388.34ZM138.2 360.07C135.34 365.69 132.52 371.37 128.63 376.31C127.552 377.686 126.372 378.98 125.1 380.18C123.824 381.364 122.434 382.419 120.95 383.33L120.28 383.7L119.75 383.98C118.617 384.583 117.424 385.066 116.19 385.42C115.395 385.688 114.574 385.869 113.74 385.96L114.74 386.34C115.279 386.235 115.81 386.095 116.33 385.92C117.671 385.525 118.966 384.985 120.19 384.31L120.7 384.02L121.18 383.75C122.691 382.817 124.105 381.735 125.4 380.52C126.682 379.298 127.868 377.981 128.95 376.58C132.88 371.53 135.68 365.78 138.54 360.11L138.2 360.07ZM94 330.09C92.7098 330.816 91.5026 331.682 90.4 332.67C89.0953 333.879 87.919 335.219 86.89 336.67C85.9953 337.95 85.1836 339.286 84.46 340.67C84.54 340.96 84.61 341.25 84.69 341.55C85.4965 339.999 86.3982 338.499 87.39 337.06C88.3835 335.632 89.523 334.312 90.79 333.12C91.8701 332.138 93.0537 331.276 94.32 330.55L94 330.09Z" fill="white"/>
<path d="M128.1 377.65C129.3 373.97 130.53 370.3 131.6 366.57C132.21 364.45 132.82 362.34 133.41 360.22C133.41 360.14 133.3 360.09 133.27 360.17C131.91 363.81 130.56 367.47 129.38 371.17C128.2 374.87 126.99 378.54 125.85 382.24C125.183 384.353 124.607 386.477 124.12 388.61C124.12 388.61 124.12 388.68 124.19 388.61C125.67 385 126.89 381.35 128.1 377.65Z" fill="#263238"/>
<path d="M117.17 387.2L115.99 386.79C113.77 385.99 111.5 385.13 109.37 384.25L108.56 383.92L107.29 383.37L106.67 383.1L106.44 383L105.8 382.7C104.96 382.31 104.15 381.92 103.41 381.52L102.89 381.24C101.719 380.637 100.616 379.909 99.6 379.07L99.33 378.82L99.08 378.57C94.22 373.3 85.28 346.11 82.66 332.94L82.57 332.49C82.57 332.49 82.57 332.42 82.57 332.39C82.39 331.39 82.24 330.15 82.11 328.81C81.76 322.26 84.86 321.2 88.69 324.09C98.22 344.6 112.77 378.5 117.17 387.2Z" fill="#263238"/>
<path d="M109.37 384.25L46.0898 400C46.0898 398.7 53.3998 358.09 59.7598 343.8C67.9198 325.47 72.3898 323.87 75.0698 322.8C78.4798 321.44 84.6598 321.85 86.1498 322.49C87.8298 323.2 93.4298 332.24 95.5598 338.94C99.8198 352.38 110.19 383.4 109.37 384.25Z" fill="#1976D2"/>
<path d="M100.13 353.1C99.4103 354.86 98.7003 356.63 97.9503 358.39C97.6503 359.07 97.3503 359.76 97.0303 360.39C97.0303 360.51 96.9204 360.63 96.8704 360.74C95.7662 363.175 94.3836 365.473 92.7504 367.59C91.7935 368.782 90.6723 369.833 89.4203 370.71C89.3034 370.802 89.1797 370.886 89.0504 370.96L88.7604 371.15C87.2242 372.076 85.5284 372.707 83.7604 373.01C80.2499 373.667 76.638 373.544 73.1804 372.65C70.78 372.026 68.438 371.196 66.1804 370.17L65.3004 369.79L63.3004 368.89C60.1828 367.313 56.8946 366.098 53.5004 365.27L53.2104 365.22C53.2104 365.04 53.3003 364.86 53.3503 364.68H53.6003C57.0459 365.496 60.3825 366.718 63.5404 368.32C64.4204 368.72 65.3004 369.12 66.1804 369.5L67.0004 369.86C69.0528 370.753 71.1728 371.482 73.3403 372.04C76.7141 372.907 80.2369 373.023 83.6604 372.38C85.3644 372.088 86.9991 371.481 88.4804 370.59L88.6604 370.47C88.7896 370.399 88.9132 370.319 89.0303 370.23C90.2636 369.367 91.3679 368.333 92.3103 367.16C93.9534 365.016 95.3396 362.687 96.4404 360.22C96.4404 360.1 96.5504 359.99 96.6003 359.88C96.8803 359.28 97.1504 358.67 97.4104 358.06C98.2604 356.06 99.0504 354.06 99.8604 352.06L100.13 353.1ZM105.3 369.26C103.11 366.87 100.92 364.48 98.6804 362.13C98.1404 361.56 97.5904 361 97.0303 360.43C96.8803 360.27 96.7304 360.11 96.5704 359.96C94.8104 358.17 93.0004 356.43 91.1003 354.78C88.4838 352.413 85.6051 350.353 82.5203 348.64C82.2403 348.49 81.9704 348.35 81.6804 348.22L81.1003 347.94C78.3788 346.626 75.3814 345.984 72.3604 346.07C71.9204 346.07 71.4804 346.12 71.0404 346.19L70.3803 346.28L69.7403 346.42C68.8703 346.61 68.0404 346.9 67.1904 347.14C66.6404 347.34 66.1003 347.54 65.5603 347.76C65.4603 347.791 65.3633 347.832 65.2703 347.88C64.2657 348.275 63.2928 348.746 62.3604 349.29C60.0892 350.557 58.0114 352.143 56.1903 354C56.1303 354.2 56.0704 354.4 56.0204 354.6C57.9034 352.583 60.0815 350.863 62.4804 349.5C63.4451 348.941 64.4475 348.45 65.4804 348.03L65.7703 347.91L67.2403 347.35C68.0803 347.12 68.9104 346.82 69.7604 346.63L70.4004 346.49L71.0504 346.4C71.4809 346.332 71.9149 346.289 72.3503 346.27C75.3455 346.176 78.3172 346.826 81.0004 348.16L81.5804 348.43L82.3904 348.85C85.4492 350.574 88.3039 352.637 90.9004 355C92.8104 356.69 94.6304 358.47 96.4104 360.3L96.8704 360.78C97.3904 361.31 97.8704 361.85 98.4104 362.39C100.84 364.96 103.21 367.59 105.6 370.21L105.3 369.26ZM106.14 384.53C104.559 383.803 103.049 382.929 101.63 381.92C98.7829 379.868 96.1074 377.587 93.6303 375.1C92.1903 373.68 90.7803 372.22 89.3904 370.75L88.9704 370.31C85.6904 366.81 82.4903 363.23 79.1703 359.75C78.6303 359.18 78.0803 358.62 77.5203 358.06C77.3739 357.89 77.217 357.73 77.0504 357.58C75.3004 355.79 73.4903 354.05 71.6003 352.4C69.7602 350.77 67.8088 349.269 65.7604 347.91C65.69 347.851 65.6128 347.801 65.5303 347.76C64.7104 347.22 63.8703 346.72 63.0103 346.26C61.8361 345.63 60.612 345.099 59.3503 344.67C59.3281 344.742 59.3014 344.812 59.2704 344.88C60.5176 345.316 61.7281 345.851 62.8904 346.48C63.6904 346.91 64.4803 347.38 65.2403 347.88C65.3228 347.921 65.4 347.971 65.4704 348.03C67.5542 349.42 69.5359 350.957 71.4004 352.63C73.3004 354.31 75.1204 356.09 76.9004 357.92L77.3604 358.4C77.8804 358.93 78.3604 359.47 78.9004 360.01C82.1804 363.47 85.3404 367.01 88.6003 370.55C88.7337 370.697 88.8737 370.847 89.0203 371C90.4103 372.5 91.8304 374 93.2904 375.44C95.7627 377.962 98.4384 380.277 101.29 382.36C102.729 383.404 104.266 384.305 105.88 385.05H105.97L106.89 384.82L106.14 384.53ZM92.2204 331.23C91.5944 331.677 90.9935 332.157 90.4203 332.67C89.1157 333.879 87.9394 335.219 86.9104 336.67C85.8949 338.121 84.9763 339.638 84.1604 341.21C83.3504 342.78 82.6104 344.39 81.9104 346L81.1003 347.93L81.0104 348.15C80.0104 350.69 79.0104 353.25 77.9004 355.75C77.6404 356.36 77.3704 356.97 77.0804 357.57C77.0804 357.68 76.9804 357.79 76.9304 357.91C75.8295 360.377 74.4434 362.706 72.8004 364.85C71.732 366.201 70.4481 367.367 69.0004 368.3C68.1187 368.845 67.1711 369.275 66.1804 369.58C65.8882 369.678 65.5911 369.762 65.2904 369.83C64.9304 369.93 64.5604 370.01 64.1904 370.08C60.7636 370.723 57.2374 370.607 53.8604 369.74C53.3204 369.61 52.7804 369.46 52.2504 369.29C52.2504 369.48 52.1604 369.67 52.1104 369.87C52.6404 370.04 53.1804 370.19 53.7204 370.32C57.1795 371.205 60.7902 371.325 64.3004 370.67C64.9316 370.551 65.5559 370.397 66.1703 370.21C66.4503 370.13 66.7304 370.04 67.0004 369.94C67.809 369.641 68.5861 369.262 69.3204 368.81C70.8431 367.855 72.1951 366.652 73.3204 365.25C74.9536 363.133 76.3362 360.835 77.4404 358.4C77.4404 358.29 77.5504 358.18 77.6003 358.06C77.9203 357.38 78.2203 356.7 78.5203 356.01C79.6103 353.49 80.6003 350.95 81.6404 348.43C81.6622 348.357 81.6924 348.286 81.7304 348.22C81.9904 347.56 82.2604 346.91 82.5404 346.22C83.8547 342.993 85.4861 339.905 87.4104 337C88.4039 335.572 89.5433 334.252 90.8103 333.06C91.3503 332.58 91.9004 332.12 92.4804 331.7C92.4004 331.56 92.3104 331.39 92.2204 331.23Z" fill="white"/>
<path d="M66.3099 329.22C55.9999 339.88 30.5199 380.6 38.1999 388.26C45.8799 395.92 89.4499 386.65 101.75 381.08C105.41 379.43 92.0699 356.56 87.8199 355.95C84.2799 355.44 65.9899 363.38 65.4799 362.33C64.9699 361.28 67.9599 352.49 72.6299 336.82C77.9999 318.75 70.8799 324.51 66.3099 329.22Z" fill="#EB9481"/>
<path d="M106 349C114.83 347.94 117.26 349 124.24 344.18C128.83 341 132.83 342.55 130.15 347.7C125.77 356.12 114.65 359.88 110.43 360.07L106 349Z" fill="#EB9481"/>
<path d="M82.4102 357C82.4102 357 92.4102 351.69 101.72 349.64C108.15 348.21 122.49 346.64 135.91 361.06C139.09 364.47 141.21 371.59 133.99 367.91C128.86 365.29 126.4 362.08 123.14 361.1C123.14 361.1 124.75 370.47 121.21 373.53C118.112 376.201 114.827 378.647 111.38 380.85C110.836 380.312 110.325 379.741 109.85 379.14C109.85 379.14 106.27 381.68 99.6402 380.92L82.4102 357Z" fill="#EB9481"/>
<path d="M108.08 349.29C111.08 350.95 117.47 354.56 121.65 359.29C126.29 364.59 133.8 376.05 129.85 379.43C126.96 381.91 123.71 377.79 123.71 377.79C123.71 377.79 125.81 383.18 122.71 384.85C119.88 386.37 117.55 383.03 117.55 383.03C117.55 383.03 118.27 386.52 115.26 387.46C111.65 388.6 110.74 381.1 106.09 379.08C105 378.67 108.08 349.29 108.08 349.29Z" fill="#EB9481"/>
<path d="M115.23 363.3C119.468 367.119 122.443 372.138 123.76 377.69C123.76 377.84 123.69 377.93 123.64 377.81C121.421 372.662 118.58 367.806 115.18 363.35L115.23 363.3Z" fill="#263238"/>
<path d="M110 368.14C112.06 370.14 116.64 376.63 117.65 383.02C117.65 383.16 117.57 383.25 117.53 383.12C115.585 377.875 113.059 372.863 110 368.18C110 368.18 110 368.12 110 368.14Z" fill="#263238"/>
<path d="M123.14 361.07C125.99 361.97 127.83 363.42 130.22 365.15C131.395 366.02 132.617 366.824 133.88 367.56C135.04 368.22 136.74 369.21 138.01 368.24C138.306 367.939 138.514 367.563 138.615 367.153C138.715 366.743 138.703 366.314 138.58 365.91C138.257 364.736 137.747 363.622 137.07 362.61C137.07 362.61 137.07 362.52 137.13 362.56C137.788 363.482 138.348 364.471 138.8 365.51C139.096 366.218 139.173 366.998 139.02 367.75C138.57 369.33 136.69 369.5 135.38 369.04C134.597 368.737 133.846 368.355 133.14 367.9C132.45 367.49 131.78 367.04 131.14 366.58C129.79 365.63 128.5 364.58 127.14 363.64C125.842 362.729 124.486 361.904 123.08 361.17C123.08 361.17 123.08 361.06 123.14 361.07Z" fill="#263238"/>
<path d="M129 371.29C127.259 367.784 125.295 364.394 123.12 361.14L123.18 361.09C125.38 363.25 128.86 368.96 129.67 370.78C130.628 372.677 131.193 374.749 131.33 376.87C131.27 379.87 129.27 380.4 128.53 380.53C127.655 380.667 126.759 380.501 125.99 380.06C125.088 379.484 124.315 378.729 123.72 377.84C123.72 377.84 123.72 377.74 123.78 377.84C124.78 379.04 126.5 380.24 128.13 380.06C128.494 380.027 128.848 379.921 129.171 379.749C129.494 379.578 129.779 379.343 130.01 379.06C130.47 378.346 130.655 377.49 130.53 376.65C130.329 374.789 129.812 372.976 129 371.29Z" fill="#263238"/>
<path d="M82.4101 357L95.7301 386.48C95.7301 386.48 41.1701 397.63 36.6601 388.09C32.1501 378.55 54.0001 342 63.6901 331.38C74.9501 319.1 76.2801 323.38 73.6301 334.38C70.8701 345.92 65.6301 362.59 65.6301 362.59L82.4101 357Z" fill="#1976D2"/>
<path d="M88.7997 371.17C87.2635 372.096 85.5677 372.727 83.7997 373.03C80.2892 373.686 76.6773 373.563 73.2197 372.67C70.8193 372.046 68.4773 371.216 66.2197 370.19L65.3396 369.81L63.3396 368.91C60.2221 367.332 56.9339 366.118 53.5396 365.29C52.0253 364.992 50.4755 364.918 48.9396 365.07C48.8034 365.054 48.6659 365.054 48.5296 365.07H48.3797C47.9496 365.07 47.5296 365.23 47.1096 365.31C46.6896 365.39 46.2996 365.57 45.8896 365.69C45.4796 365.81 45.1296 366.04 44.7696 366.24C44.5896 366.37 44.3996 366.49 44.2096 366.61C44.0367 366.721 43.8697 366.841 43.7096 366.97C42.3232 368.108 41.1368 369.47 40.1996 371C39.7496 371.69 39.3196 372.39 38.9096 373.11C39.2096 372.31 39.5396 371.49 39.9096 370.67C40.836 369.197 41.9865 367.878 43.3196 366.76L43.5896 366.54L44.1696 366.16L44.4296 365.99C44.8196 365.77 45.2296 365.58 45.6396 365.39C46.0496 365.2 46.4896 365.08 46.9296 364.98C47.3696 364.88 47.7996 364.77 48.2496 364.72L48.7696 364.65C48.9096 364.65 49.0396 364.65 49.1796 364.65C50.65 364.531 52.1297 364.608 53.5797 364.88C57.0252 365.696 60.3618 366.918 63.5196 368.52C64.3996 368.92 65.2797 369.32 66.1597 369.7L66.9797 370.06C69.0321 370.953 71.1521 371.682 73.3196 372.24C76.6934 373.107 80.2162 373.223 83.6396 372.58C85.3437 372.288 86.9784 371.681 88.4596 370.79L88.5596 370.73L88.7997 371.17ZM70.3796 346.28L69.7396 346.42C68.8696 346.61 68.0397 346.9 67.1897 347.14C66.6397 347.34 66.0996 347.54 65.5596 347.76C65.4596 347.791 65.3626 347.831 65.2696 347.88C64.265 348.275 63.2921 348.746 62.3596 349.29C59.2798 351.036 56.5477 353.334 54.2996 356.07C53.1765 357.431 52.1379 358.861 51.1896 360.35C50.3296 361.73 49.5096 363.13 48.7596 364.56C48.6896 364.68 48.6297 364.81 48.5597 364.94L48.4596 365.14C48.0496 365.91 47.6596 366.68 47.2796 367.46C47.1896 367.64 47.0996 367.81 47.0196 367.99C45.9696 370.13 44.9696 372.29 43.9096 374.41C43.1371 375.987 42.2758 377.52 41.3297 379C40.404 380.47 39.2495 381.783 37.9096 382.89C37.5903 383.148 37.2564 383.389 36.9096 383.61C36.6596 383.75 36.3996 383.88 36.1396 384C36.1396 384.2 36.1396 384.39 36.1396 384.57C36.4896 384.4 36.8396 384.23 37.1396 384.04C37.5236 383.804 37.8942 383.547 38.2496 383.27C39.6185 382.131 40.7966 380.78 41.7397 379.27C42.6835 377.776 43.5416 376.231 44.3097 374.64C45.3696 372.5 46.3096 370.33 47.3896 368.19C47.4696 368.01 47.5597 367.84 47.6497 367.66C48.0497 366.82 48.4697 365.98 48.8997 365.15L49.1996 364.59C49.9096 363.23 50.6797 361.9 51.4897 360.59C52.431 359.109 53.456 357.684 54.5597 356.32C56.7762 353.601 59.4704 351.31 62.5096 349.56C63.4744 349.001 64.4768 348.51 65.5097 348.09L65.7997 347.97L67.2696 347.41C68.1096 347.18 68.9397 346.88 69.7896 346.69L70.4296 346.55L70.4896 346.33L70.3796 346.28ZM65.7896 347.91C65.7193 347.851 65.6421 347.8 65.5596 347.76C64.7396 347.22 63.8997 346.72 63.0396 346.26C60.4185 344.8 57.5115 343.926 54.5196 343.7L54.3997 343.89C57.3968 344.11 60.3073 344.994 62.9196 346.48C63.7196 346.91 64.5096 347.38 65.2696 347.88C65.3521 347.92 65.4293 347.971 65.4996 348.03C66.7796 348.86 68.0096 349.78 69.2096 350.74C69.2422 350.645 69.2689 350.548 69.2896 350.45C68.1596 349.55 66.9996 348.7 65.7896 347.91ZM87.8596 369.09C84.9796 365.99 82.1396 362.83 79.2096 359.76C78.8096 359.34 78.4096 358.92 77.9896 358.51L77.6197 358.64C78.0697 359.1 78.4997 359.56 78.9397 360.02C82.1497 363.41 85.2397 366.91 88.4296 370.34L87.8596 369.09ZM76.3997 359C75.4104 361.066 74.2036 363.02 72.7997 364.83C71.733 366.188 70.449 367.36 68.9996 368.3C68.118 368.845 67.1704 369.275 66.1796 369.58C65.8875 369.678 65.5904 369.762 65.2896 369.83C64.9296 369.93 64.5597 370.01 64.1897 370.08C60.7629 370.723 57.2367 370.607 53.8596 369.74C51.7365 369.195 49.66 368.483 47.6497 367.61L47.3097 367.46C46.4363 367.086 45.5763 366.706 44.7296 366.32L44.1896 366.07L43.9996 366L42.2596 365.22L41.9996 365.74L43.5396 366.43L43.7496 366.53L44.0696 366.68C45.0696 367.11 45.9996 367.55 46.9796 367.97L47.3196 368.12C49.3703 369.008 51.4866 369.737 53.6497 370.3C57.1088 371.185 60.7195 371.304 64.2297 370.65C64.8609 370.531 65.4852 370.377 66.0996 370.19C66.3796 370.11 66.6596 370.02 66.9296 369.92C67.7383 369.62 68.5154 369.242 69.2496 368.79C70.7724 367.835 72.1244 366.631 73.2496 365.23C74.8242 363.225 76.1661 361.047 77.2496 358.74L76.3997 359Z" fill="white"/>
<path d="M48.9998 370.07C51.5511 368.373 54.2251 366.869 56.9998 365.57C59.7478 364.283 62.5893 363.207 65.4998 362.35C67.1498 361.84 68.8198 361.41 70.4998 360.97C70.4998 360.97 70.5698 361.03 70.4998 361.05C67.5851 361.931 64.7237 362.979 61.9298 364.19C59.1365 365.37 56.3731 366.6 53.6398 367.88C52.0798 368.6 50.5698 369.4 49.0398 370.17C49.0286 370.169 49.0179 370.165 49.0089 370.158C48.9998 370.152 48.9928 370.143 48.9887 370.132C48.9845 370.122 48.9833 370.11 48.9853 370.099C48.9873 370.088 48.9923 370.078 48.9998 370.07Z" fill="#263238"/>
<path d="M82.2604 356.94C81.9904 357.01 67.0404 361.62 66.5504 361.84C66.6104 361.62 69.4304 353.77 69.8504 352.62L69.9704 352.28C70.2504 351.77 70.5404 351.28 70.8004 350.74L71.8004 348.74L70.7204 350.74C70.5604 351.04 70.4004 351.35 70.2504 351.66C70.5304 350.85 70.7904 350.04 71.0604 349.22C71.4904 347.91 71.8704 346.6 72.2504 345.28C72.2504 345.28 72.2504 345.22 72.1804 345.28C71.3504 347.57 70.4404 349.83 69.6004 352.12C68.7604 354.41 65.5404 362.82 65.6004 362.82C65.6604 362.82 82.0704 357.36 82.3904 357.24C82.4302 357.223 82.4615 357.191 82.4775 357.15C82.4934 357.11 82.4927 357.065 82.4754 357.025C82.4582 356.985 82.4259 356.954 82.3855 356.938C82.3452 356.922 82.3002 356.923 82.2604 356.94Z" fill="#263238"/>
<path d="M82.9004 376C81.4304 372.71 79.9904 369.41 78.4004 366.17C77.5004 364.33 76.6104 362.49 75.6904 360.66C75.6904 360.59 75.5304 360.66 75.5604 360.71C76.9004 364.07 78.2504 367.44 79.7504 370.71C81.2504 373.98 82.6904 377.28 84.2204 380.55C85.0937 382.397 86.0171 384.223 86.9904 386.03C86.9904 386.03 87.0704 386.03 87.0604 386.03C85.8304 382.64 84.3704 379.33 82.9004 376Z" fill="#263238"/>
<path d="M96.4203 387C95.8903 386.09 95.2303 384.78 94.6703 383.89C94.5203 383.65 94.3403 383.7 94.4603 383.94C94.8503 384.77 95.1803 385.69 95.5703 386.54L93.2703 386.94L90.6203 387.45C88.8903 387.77 87.1503 388.07 85.4203 388.36C81.887 388.94 78.3536 389.447 74.8203 389.88C67.7154 390.775 60.5694 391.305 53.4103 391.47C51.4103 391.47 49.4103 391.47 47.4103 391.47C45.4347 391.439 43.4621 391.305 41.5003 391.07C41.5003 391.07 41.4403 391.16 41.5003 391.17C43.1876 391.558 44.903 391.812 46.6303 391.93C48.4403 392.06 50.2503 392.13 52.0603 392.15C55.6803 392.15 59.2903 392.01 62.8903 391.75C70.0303 391.24 77.1503 390.41 84.2303 389.3C86.2303 388.986 88.207 388.653 90.1603 388.3C91.1603 388.12 92.1603 387.94 93.1603 387.74C94.2657 387.584 95.3561 387.337 96.4203 387Z" fill="#263238"/>
<path d="M86.29 335.47C82.59 335.93 77 329.75 75 325C74.87 324.68 75.69 321.5 76.5 317.59C76.99 315.22 77.5 312.59 77.74 310.12C77.74 309.61 92.74 315.52 92.74 315.52C91.5296 318.493 90.6867 321.603 90.23 324.78C90.2012 325.113 90.2012 325.447 90.23 325.78V326C90.35 327.93 89.87 335 86.29 335.47Z" fill="#EB9481"/>
<path d="M78.7197 310.29C78.9797 314.52 80.4697 324.82 88.6597 325.89C89.186 325.968 89.7181 325.998 90.2497 325.98C90.2603 325.924 90.2603 325.866 90.2497 325.81C90.2257 325.477 90.2257 325.143 90.2497 324.81C90.7076 321.632 91.5539 318.522 92.7697 315.55C92.7697 315.55 81.9997 311.27 78.7197 310.29Z" fill="#263238"/>
<path d="M74.6299 293.28C73.4199 298.88 77.6299 314.44 81.7999 317.64C87.8699 322.28 97.1399 322 100.91 314.86C104.57 307.94 98.7399 287.76 94.1299 284.92C87.3399 280.74 76.4299 285 74.6299 293.28Z" fill="#EB9481"/>
<path d="M90.8998 301.64C90.8998 301.64 90.8398 301.72 90.8498 301.76C91.1998 302.76 91.4298 304.02 90.5898 304.65C90.5898 304.65 90.5898 304.72 90.5898 304.71C91.7198 304.2 91.3998 302.56 90.8998 301.64Z" fill="#263238"/>
<path d="M89.64 300.84C87.94 301.22 88.83 304.61 90.41 304.26C91.99 303.91 91.08 300.52 89.64 300.84Z" fill="#263238"/>
<path d="M96.79 300.12C96.79 300.12 96.88 300.12 96.89 300.2C97.13 301.25 97.59 302.42 98.63 302.52C98.63 302.52 98.68 302.58 98.63 302.58C97.44 302.73 96.85 301.17 96.79 300.12Z" fill="#263238"/>
<path d="M97.4306 298.78C99.0906 298.21 100.111 301.56 98.5806 302.09C97.0506 302.62 96.0506 299.26 97.4306 298.78Z" fill="#263238"/>
<path d="M87.3803 298.57C87.8403 298.41 88.2403 298.19 88.6903 297.99C89.182 297.843 89.6133 297.541 89.9203 297.13C89.9898 296.983 90.0089 296.817 89.9746 296.658C89.9402 296.499 89.8544 296.355 89.7303 296.25C89.4464 296.085 89.1238 295.998 88.7953 295.998C88.4669 295.998 88.1443 296.085 87.8603 296.25C87.2318 296.482 86.714 296.943 86.4103 297.54C86.3594 297.678 86.3479 297.827 86.3772 297.971C86.4065 298.116 86.4754 298.249 86.5762 298.356C86.677 298.463 86.8057 298.539 86.9477 298.577C87.0898 298.615 87.2396 298.613 87.3803 298.57Z" fill="#263238"/>
<path d="M98.3399 295.9C97.8604 295.93 97.3794 295.93 96.8999 295.9C96.3936 295.973 95.8772 295.878 95.4299 295.63C95.3051 295.523 95.2188 295.378 95.1845 295.217C95.1502 295.056 95.1696 294.889 95.2399 294.74C95.4257 294.472 95.6786 294.257 95.9733 294.116C96.2681 293.976 96.5944 293.915 96.9199 293.94C97.5898 293.901 98.251 294.107 98.7799 294.52C98.8956 294.621 98.9791 294.754 99.0203 294.902C99.0616 295.051 99.0586 295.208 99.0119 295.354C98.9652 295.501 98.8767 295.63 98.7573 295.727C98.638 295.824 98.4929 295.884 98.3399 295.9Z" fill="#263238"/>
<path d="M91.7198 311.86C92.0398 312.04 92.3798 312.31 92.7198 312.24C93.1089 312.13 93.4702 311.939 93.7798 311.68C93.7798 311.68 93.8598 311.68 93.8398 311.68C93.7454 311.926 93.5856 312.142 93.3777 312.304C93.1698 312.466 92.9216 312.568 92.6599 312.6C92.4314 312.6 92.208 312.533 92.0176 312.406C91.8273 312.28 91.6785 312.1 91.5898 311.89C91.5998 311.87 91.6698 311.83 91.7198 311.86Z" fill="#263238"/>
<path d="M91.9998 308.42C92.3724 308.773 92.815 309.045 93.2989 309.217C93.7829 309.389 94.2975 309.458 94.8098 309.42C95.2552 309.396 95.6941 309.301 96.1098 309.14C96.1933 309.12 96.274 309.09 96.3498 309.05L96.5698 308.96C96.6249 308.934 96.6698 308.89 96.697 308.836C96.7242 308.781 96.7323 308.719 96.7198 308.66C96.7198 308.66 96.7198 308.59 96.7198 308.55V308.46C96.5298 307.65 96.1298 306.46 96.1298 306.46C96.4598 306.53 98.1298 306.81 98.0098 306.4C96.9528 302.779 95.5322 299.274 93.7698 295.94C93.7566 295.92 93.7371 295.906 93.7145 295.899C93.6919 295.893 93.6677 295.895 93.6462 295.904C93.6247 295.914 93.6073 295.931 93.597 295.952C93.5866 295.973 93.5841 295.997 93.5898 296.02C94.5398 299.37 96.0798 302.53 97.0898 305.88C96.4897 305.768 95.8766 305.745 95.2698 305.81C95.1698 305.88 96.0898 308.13 96.1498 308.51C95.5054 308.751 94.8188 308.86 94.1314 308.829C93.4439 308.798 92.7699 308.628 92.1498 308.33C91.9998 308.26 91.9098 308.36 91.9998 308.42Z" fill="#263238"/>
<path d="M95.5204 308.82C95.2256 309.513 94.7573 310.119 94.1604 310.58C93.8301 310.843 93.4226 310.99 93.0004 311C92.1104 311 91.8904 310.24 91.8704 309.54C91.8618 309.167 91.8987 308.794 91.9804 308.43C93.0869 308.94 94.3293 309.077 95.5204 308.82Z" fill="#263238"/>
<path d="M94.1601 310.58C93.8298 310.843 93.4223 310.991 93.0001 311C92.1101 311 91.8901 310.24 91.8701 309.54C92.3132 309.425 92.7823 309.466 93.1991 309.655C93.6158 309.844 93.9551 310.171 94.1601 310.58Z" fill="#FF98B9"/>
<path d="M76.6598 308.58C79.4398 307.26 79.2698 297.22 79.2698 297.22C79.2698 297.22 79.9398 301.38 80.7098 301.14C81.4798 300.9 83.7098 294.74 83.3798 290.63C85.9327 291.76 88.622 292.554 91.3798 292.99C95.2598 293.47 99.3098 292.53 99.1998 291.9C98.8898 290.03 96.3598 285.43 93.5198 284.13C91.4286 283.042 89.0874 282.526 86.7328 282.633C84.3782 282.74 82.0935 283.467 80.1098 284.74C74.4598 288.07 73.5398 292.22 73.1098 295.38C72.6798 298.54 75.6398 309.07 76.6598 308.58Z" fill="#263238"/>
<path d="M79.0804 305.87C79.0804 305.87 74.9904 301.14 72.8004 302.65C70.6104 304.16 74.0704 311.28 76.8904 312.01C77.246 312.128 77.6219 312.174 77.9955 312.143C78.369 312.112 78.7325 312.007 79.0641 311.832C79.3957 311.657 79.6886 311.417 79.9251 311.127C80.1616 310.836 80.3369 310.5 80.4404 310.14L79.0804 305.87Z" fill="#EB9481"/>
<path d="M73.8398 304.67C73.8398 304.67 73.8398 304.73 73.8398 304.74C75.8398 305.31 77.0098 306.98 77.8998 308.74C77.7695 308.56 77.6017 308.411 77.4082 308.302C77.2146 308.193 76.9998 308.128 76.7785 308.11C76.5572 308.092 76.3346 308.122 76.126 308.198C75.9174 308.274 75.7276 308.394 75.5698 308.55C75.5698 308.55 75.5698 308.67 75.6298 308.65C75.955 308.509 76.3159 308.471 76.6632 308.543C77.0105 308.614 77.3271 308.792 77.5698 309.05C77.9672 309.487 78.319 309.962 78.6199 310.47C78.7199 310.63 79.0198 310.47 78.9398 310.32C78.7098 307.84 76.4798 304.64 73.8398 304.67Z" fill="#263238"/>
<path d="M90.1001 283.36C88.018 282.541 85.8289 282.026 83.6001 281.83C81.1101 281.67 73.3401 282.73 71.6001 284.4C69.8601 286.07 69.7601 293.45 69.7701 294.53C69.7801 295.61 70.6501 302.08 73.0901 303.53C75.5301 304.98 75.0901 293.9 78.6201 290.02C82.1501 286.14 90.1001 283.36 90.1001 283.36Z" fill="#1976D2"/>
<path opacity="0.1" d="M90.0999 283.37C90.0999 283.37 82.0999 286.13 78.5799 290.01C75.0599 293.89 75.4999 305 73.0499 303.52C71.9699 302.89 71.4099 301.89 70.8799 300.19C71.1799 296.93 72.1999 291.85 74.6799 288.19C77.0099 284.8 81.2499 282.9 85.8599 282.1C87.3071 282.401 88.7257 282.826 90.0999 283.37Z" fill="black"/>
<path d="M74.0806 310C74.0806 307.05 76.6506 299 79.5206 294.3C82.3906 289.6 91.5206 286.42 92.7706 286.42C95.9106 286.42 97.0306 287.3 97.5106 286.99C97.9906 286.68 94.6206 284.51 93.7106 284.04C92.8006 283.57 90.3506 282.46 88.9906 282.57C87.6306 282.68 79.2906 284.01 76.4406 287.77C73.5906 291.53 69.8706 301.77 70.8106 304.34C71.0406 304.94 71.8806 305.29 72.2006 306.15C72.6106 307.28 72.9306 308.59 73.3206 309.37C73.7106 310.15 74.0806 310.29 74.0806 310Z" fill="#1976D2"/>
<path d="M73.88 307.1C73.78 306.89 73.63 306.71 73.52 306.51C73.3891 306.285 73.2819 306.047 73.2 305.8C73.1152 305.317 72.9777 304.844 72.79 304.39C72.5743 304.051 72.3229 303.736 72.04 303.45C71.6935 303.152 71.4633 302.741 71.39 302.29C71.39 302.23 71.29 302.23 71.29 302.29C71.4705 303.113 71.8557 303.876 72.41 304.51C72.6171 304.991 72.781 305.49 72.9 306C73.0521 306.473 73.3496 306.886 73.75 307.18C73.81 307.23 73.91 307.17 73.88 307.1Z" fill="#263238"/>
<path d="M74.71 303.86C74.41 303.54 74.09 303.26 73.82 302.91C73.5658 302.569 73.3353 302.212 73.13 301.84C72.92 301.48 72.74 301.1 72.54 300.74C72.34 300.38 72.01 299.89 71.8 299.45C71.8 299.39 71.69 299.45 71.72 299.5C71.94 299.96 72.08 300.5 72.29 300.93C72.4763 301.332 72.6866 301.723 72.92 302.1C73.1417 302.456 73.3962 302.791 73.68 303.1C73.9576 303.424 74.2977 303.69 74.68 303.88C74.68 303.88 74.73 303.88 74.71 303.86Z" fill="#263238"/>
<path d="M75.6103 300.92C74.9606 300.432 74.3846 299.853 73.9003 299.2C73.4403 298.56 73.0003 297.9 72.5803 297.2C72.5803 297.15 72.4703 297.2 72.5003 297.2C72.7877 297.968 73.1707 298.697 73.6403 299.37C73.8727 299.699 74.1448 299.998 74.4503 300.26C74.7898 300.525 75.159 300.75 75.5503 300.93C75.5503 300.93 75.6603 301 75.6103 300.92Z" fill="#263238"/>
<path d="M82.2799 290.45C81.9699 290.11 81.6699 289.77 81.2799 289.45C80.928 289.128 80.5573 288.828 80.1699 288.55C79.4338 287.998 78.639 287.528 77.7999 287.15C77.7999 287.15 77.6999 287.15 77.7399 287.23C79.2099 288.34 80.7399 289.39 82.1699 290.51C82.2699 290.56 82.3299 290.5 82.2799 290.45Z" fill="#263238"/>
<path d="M83.9201 287.83C83.6048 287.491 83.2487 287.192 82.8601 286.94C82.0419 286.426 81.1701 286.004 80.2602 285.68C80.2002 285.68 80.1601 285.74 80.2101 285.77C81.0001 286.23 81.8101 286.68 82.5701 287.19C82.953 287.433 83.3203 287.701 83.6701 287.99C84.0201 288.28 84.3001 288.64 84.6701 288.94C84.6701 288.94 84.7502 288.94 84.7302 288.94C84.5375 288.519 84.262 288.141 83.9201 287.83Z" fill="#263238"/>
<path d="M86.3002 286.53C85.9991 286.199 85.664 285.901 85.3002 285.64C84.6299 285.137 83.8793 284.752 83.0802 284.5C83.0202 284.5 82.9902 284.57 83.0802 284.59C83.8181 285.001 84.5205 285.473 85.1802 286C85.5102 286.25 85.8302 286.52 86.1802 286.79C86.5302 287.06 86.7802 287.4 87.1302 287.64C86.8926 287.242 86.6144 286.87 86.3002 286.53Z" fill="#263238"/>
<path d="M88.0004 285C87.6804 284.77 87.3404 284.55 87.0004 284.34C86.6758 284.113 86.3183 283.938 85.9404 283.82V283.91L87.8104 285.27C88.3529 285.73 88.8455 286.247 89.2804 286.81C89.2804 286.81 89.3504 286.81 89.3304 286.81C89.086 286.083 88.6211 285.45 88.0004 285Z" fill="#263238"/>
<path d="M90.1601 284.36C89.5731 283.862 88.8934 283.485 88.1601 283.25C88.1601 283.25 88.0701 283.32 88.1601 283.34C88.8315 283.66 89.4516 284.078 90.0001 284.58C90.5647 285.074 91.0713 285.631 91.5101 286.24C91.5101 286.24 91.5901 286.24 91.5701 286.24C91.2561 285.51 90.7728 284.866 90.1601 284.36Z" fill="#263238"/>
<path d="M93.1305 285.5C93.05 285.351 92.9598 285.207 92.8605 285.07C92.6503 284.793 92.4124 284.539 92.1505 284.31C91.6127 283.855 91.0297 283.456 90.4105 283.12C90.3505 283.12 90.3105 283.18 90.4105 283.21C90.9869 283.556 91.5206 283.969 92.0005 284.44C92.2452 284.67 92.4725 284.917 92.6805 285.18L92.9705 285.58C93.0417 285.726 93.1289 285.864 93.2305 285.99C93.2361 285.996 93.2431 286.002 93.2508 286.005C93.2586 286.009 93.267 286.01 93.2755 286.01C93.284 286.01 93.2924 286.009 93.3002 286.005C93.308 286.002 93.3149 285.996 93.3205 285.99C93.2899 285.816 93.2253 285.649 93.1305 285.5Z" fill="#263238"/>
<path d="M94.91 285.56C94.73 285.34 94.54 285.13 94.34 284.93C94.1351 284.733 93.9181 284.55 93.69 284.38C93.46 284.2 93.22 284.04 92.99 283.85C92.99 283.85 92.88 283.85 92.93 283.93C93.1658 284.105 93.3865 284.299 93.59 284.51L94.18 285.1L94.77 285.68C94.953 285.893 95.1466 286.097 95.35 286.29L95.41 286.24C95.2731 285.993 95.105 285.764 94.91 285.56Z" fill="#263238"/>
<path d="M162.251 398.53H96.6006V401.47H162.251V398.53Z" fill="#C7C7C7"/>
<path d="M162.25 398.53V401.48H117.62L119.87 398.53H162.25Z" fill="#A6A6A6"/>
<path d="M122.71 401.48H186.69L192.02 358.02H128.03L122.71 401.48Z" fill="#C7C7C7"/>
<path d="M153.47 379.75C153.458 380.258 153.548 380.764 153.735 381.237C153.921 381.709 154.201 382.14 154.557 382.503C154.914 382.865 155.339 383.153 155.808 383.348C156.278 383.544 156.781 383.643 157.29 383.64C158.332 383.641 159.333 383.234 160.08 382.508C160.827 381.781 161.261 380.792 161.29 379.75C161.299 379.241 161.207 378.736 161.019 378.263C160.83 377.79 160.55 377.36 160.193 376.997C159.837 376.633 159.411 376.345 158.942 376.148C158.473 375.951 157.969 375.85 157.46 375.85C156.418 375.852 155.418 376.261 154.673 376.99C153.927 377.718 153.496 378.708 153.47 379.75Z" fill="white"/>
</svg>
