<svg width="500" height="500" viewBox="0 0 500 500" fill="none" xmlns="http://www.w3.org/2000/svg">
<path d="M129.05 59.8301H48.1802V177.04H129.05V59.8301Z" fill="#E0E0E0"/>
<path d="M125 59.8301H44.1304V177.04H125V59.8301Z" fill="#F5F5F5"/>
<path d="M114.94 72.5205H54.1704V164.341H114.94V72.5205Z" fill="white"/>
<path d="M115 164.351C115 164.351 115 164.191 115 163.901C115 163.611 115 163.161 115 162.591C115 161.441 115 159.751 115 157.591C115 153.191 115 146.771 114.94 138.671C114.94 122.481 114.94 99.5508 114.84 72.5508L115.05 72.7508H54.28L54.5 72.5308C54.5 107.171 54.5 139.111 54.5 164.361L54.32 164.181L98.56 164.271L110.78 164.321H113.99C114.71 164.321 115.1 164.321 115.1 164.321H114.02H110.85L98.67 164.371L54.32 164.461H54V164.291C54 139.041 54 107.101 54 72.4608V72.3008H54.23H115H115.2V72.5008C115.2 99.5608 115.12 122.501 115.1 138.761C115.1 146.841 115.1 153.231 115.04 157.621C115.04 159.801 115.04 161.481 115.04 162.621C115.04 163.181 115.04 163.621 115.04 163.901C115.04 164.181 115 164.351 115 164.351Z" fill="#E0E0E0"/>
<path d="M125.22 59.8301C124.803 60.5679 124.321 61.2672 123.78 61.9201C122.84 63.1801 121.51 64.9201 119.98 66.7301C118.45 68.5401 117.04 70.2201 115.98 71.3801C115.438 72.0346 114.842 72.6433 114.2 73.2001C114.654 72.4897 115.169 71.8204 115.74 71.2001L119.64 66.4701L123.52 61.7501C124.031 61.0627 124.6 60.4204 125.22 59.8301Z" fill="#E0E0E0"/>
<path d="M115.26 164.051C118.279 168.859 121.835 173.307 125.86 177.311L115.26 164.051Z" fill="white"/>
<path d="M125.86 177.311C125.187 176.817 124.567 176.254 124.01 175.631C122.602 174.195 121.267 172.69 120.01 171.121C118.54 169.271 117.32 167.521 116.49 166.221C116.004 165.543 115.592 164.816 115.26 164.051C115.803 164.682 116.3 165.35 116.75 166.051C117.64 167.301 118.89 169.051 120.35 170.841C121.81 172.631 123.21 174.271 124.23 175.411C124.819 176.004 125.364 176.639 125.86 177.311Z" fill="#E0E0E0"/>
<path d="M44.1104 177.001L54.7104 163.931L44.1104 177.001Z" fill="white"/>
<path d="M54.7104 163.881C53.1171 166.192 51.4048 168.418 49.5804 170.551C47.8715 172.779 46.0456 174.916 44.1104 176.951C45.702 174.636 47.4143 172.406 49.2404 170.271C50.9475 168.044 52.7735 165.911 54.7104 163.881Z" fill="#E0E0E0"/>
<path d="M44.1304 59.8301C45.954 61.7923 47.6699 63.852 49.2704 66.0001C50.9833 68.0508 52.5824 70.194 54.0604 72.4201C52.2376 70.4676 50.5217 68.4179 48.9204 66.2801C47.2065 64.2196 45.6074 62.0664 44.1304 59.8301Z" fill="#E0E0E0"/>
<path d="M96.0102 91.1699H75.6602V148.95H96.0102V91.1699Z" fill="#E0E0E0"/>
<path d="M370.85 55.9004H289.98V173.11H370.85V55.9004Z" fill="#E0E0E0"/>
<path d="M366.8 55.9004H285.93V173.11H366.8V55.9004Z" fill="#F5F5F5"/>
<path d="M356.74 68.6006H295.97V160.421H356.74V68.6006Z" fill="white"/>
<path d="M356.75 160.42C356.75 160.42 356.75 160.27 356.75 159.97C356.75 159.67 356.75 159.24 356.75 158.67C356.75 157.52 356.75 155.83 356.75 153.67C356.75 149.27 356.75 142.86 356.7 134.76C356.7 118.57 356.64 95.6402 356.6 68.6402L356.8 68.8402H296.03L296.25 68.6202C296.25 103.26 296.25 135.2 296.25 160.44L296.07 160.27L340.31 160.36H352.53H355.74H356.85H355.78H352.6H340.42L296.07 160.46H295.9V160.28C295.9 135.04 295.9 103.1 295.85 68.4602V68.2402H296H356.77H356.97V68.4402C356.97 95.4902 356.89 118.44 356.87 134.69C356.87 142.77 356.87 149.17 356.82 153.56C356.82 155.74 356.82 157.41 356.82 158.56C356.82 159.11 356.82 159.56 356.82 159.84C356.82 160.12 356.75 160.42 356.75 160.42Z" fill="#E0E0E0"/>
<path d="M367 55.9004C366.587 56.6443 366.105 57.3474 365.56 58.0004C364.62 59.2504 363.29 61.0004 361.77 62.8104C360.25 64.6204 358.77 66.2904 357.77 67.4604C357.236 68.1159 356.643 68.7217 356 69.2704C356.457 68.5621 356.972 67.8931 357.54 67.2704L361.44 62.5504L365.33 57.8204C365.836 57.1383 366.395 56.4963 367 55.9004Z" fill="#E0E0E0"/>
<path d="M357.06 160.131C360.082 164.933 363.638 169.378 367.66 173.381L357.06 160.131Z" fill="white"/>
<path d="M367.66 173.381C366.986 172.887 366.366 172.324 365.81 171.701C364.397 170.27 363.062 168.765 361.81 167.191C360.554 165.622 359.379 163.99 358.29 162.301C357.804 161.623 357.392 160.896 357.06 160.131C357.608 160.758 358.106 161.427 358.55 162.131C359.44 163.391 360.69 165.131 362.15 166.931C363.61 168.731 365.01 170.351 366.04 171.501C366.622 172.09 367.163 172.718 367.66 173.381Z" fill="#E0E0E0"/>
<path d="M285.92 173L296.51 160L285.92 173Z" fill="white"/>
<path d="M296.51 160C294.919 162.315 293.206 164.545 291.38 166.68C289.674 168.905 287.852 171.038 285.92 173.07C287.511 170.76 289.22 168.534 291.04 166.4C292.753 164.174 294.578 162.038 296.51 160Z" fill="#E0E0E0"/>
<path d="M285.93 55.9004C287.748 57.8604 289.464 59.9131 291.07 62.0504C292.783 64.1035 294.385 66.2466 295.87 68.4704C294.043 66.5152 292.324 64.4621 290.72 62.3204C289.004 60.2719 287.405 58.1285 285.93 55.9004Z" fill="#E0E0E0"/>
<path d="M337.81 87.2402H317.46V145.02H337.81V87.2402Z" fill="#E0E0E0"/>
<path d="M58.7603 215.351C58.7603 215.201 59.3203 215.091 60.0103 215.091C60.7003 215.091 61.2603 215.201 61.2603 215.351C61.2603 215.501 60.7003 215.611 60.0103 215.611C59.3203 215.611 58.7603 215.491 58.7603 215.351Z" fill="#E0E0E0"/>
<path d="M49 215.35C49.7856 215.091 50.6174 215.003 51.44 215.09C52.2593 215.003 53.0877 215.092 53.87 215.35C53.0864 215.603 52.2593 215.691 51.44 215.61C50.6174 215.693 49.7867 215.604 49 215.35Z" fill="#E0E0E0"/>
<path d="M39.2603 215.35C40.0425 215.092 40.871 215.003 41.6903 215.09C42.5128 215.003 43.3446 215.091 44.1303 215.35C43.3435 215.604 42.5128 215.693 41.6903 215.61C40.871 215.691 40.0438 215.603 39.2603 215.35Z" fill="#E0E0E0"/>
<path d="M31.8804 217.851C31.627 217.043 31.5385 216.193 31.6204 215.351L31.8804 215.091H32.3804H32.8504H33.6504C34.1004 215.141 34.3804 215.201 34.3804 215.281C34.3804 215.361 34.1004 215.411 33.6504 215.461L32.8504 215.521H31.8504L32.1104 215.261C32.2144 216.131 32.1361 217.013 31.8804 217.851Z" fill="#E0E0E0"/>
<path d="M31.8802 227.831C31.6268 227.023 31.5384 226.173 31.6202 225.331C31.5378 224.492 31.6262 223.645 31.8802 222.841C32.1342 223.645 32.2227 224.492 32.1402 225.331C32.2221 226.173 32.1337 227.023 31.8802 227.831Z" fill="#E0E0E0"/>
<path d="M31.8802 237.81C31.6268 237.003 31.5384 236.153 31.6202 235.31C31.5378 234.471 31.6262 233.624 31.8802 232.82C32.1342 233.624 32.2227 234.471 32.1402 235.31C32.2221 236.153 32.1337 237.003 31.8802 237.81Z" fill="#E0E0E0"/>
<path d="M31.8802 247.791C31.6268 246.983 31.5384 246.133 31.6202 245.291C31.5378 244.452 31.6262 243.605 31.8802 242.801C32.1342 243.605 32.2227 244.452 32.1402 245.291C32.2221 246.133 32.1337 246.983 31.8802 247.791Z" fill="#E0E0E0"/>
<path d="M31.8802 257.77C31.5321 256.122 31.5321 254.419 31.8802 252.771C32.2283 254.419 32.2283 256.122 31.8802 257.77Z" fill="#E0E0E0"/>
<path d="M31.8802 267.75C31.5321 266.102 31.5321 264.398 31.8802 262.75C32.2283 264.398 32.2283 266.102 31.8802 267.75Z" fill="#E0E0E0"/>
<path d="M31.8802 277.73C31.5321 276.082 31.5321 274.379 31.8802 272.73C32.2283 274.379 32.2283 276.082 31.8802 277.73Z" fill="#E0E0E0"/>
<path d="M31.8802 287.71C31.5321 286.061 31.5321 284.358 31.8802 282.71C32.2283 284.358 32.2283 286.061 31.8802 287.71Z" fill="#E0E0E0"/>
<path d="M31.8802 297.69C31.5321 296.042 31.5321 294.339 31.8802 292.69C32.2283 294.339 32.2283 296.042 31.8802 297.69Z" fill="#E0E0E0"/>
<path d="M31.8802 307.671C31.6262 306.867 31.5378 306.02 31.6202 305.181C31.5384 304.338 31.6268 303.488 31.8802 302.681C32.1337 303.488 32.2221 304.338 32.1402 305.181C32.2227 306.02 32.1342 306.867 31.8802 307.671Z" fill="#E0E0E0"/>
<path d="M31.8802 317.65C31.6262 316.846 31.5378 315.999 31.6202 315.16C31.5384 314.318 31.6268 313.468 31.8802 312.66C32.1337 313.468 32.2221 314.318 32.1402 315.16C32.2227 315.999 32.1342 316.846 31.8802 317.65Z" fill="#E0E0E0"/>
<path d="M31.8802 327.631C31.6262 326.827 31.5378 325.98 31.6202 325.141C31.5384 324.298 31.6268 323.448 31.8802 322.641C32.1337 323.448 32.2221 324.298 32.1402 325.141C32.2227 325.98 32.1342 326.827 31.8802 327.631Z" fill="#E0E0E0"/>
<path d="M31.8802 337.61C31.6262 336.806 31.5378 335.959 31.6202 335.12C31.5384 334.278 31.6268 333.428 31.8802 332.62C32.1337 333.428 32.2221 334.278 32.1402 335.12C32.2227 335.959 32.1342 336.806 31.8802 337.61Z" fill="#E0E0E0"/>
<path d="M31.8802 347.6C31.6268 346.793 31.5384 345.943 31.6202 345.1C31.5378 344.261 31.6262 343.414 31.8802 342.61C32.1342 343.414 32.2227 344.261 32.1402 345.1C32.2221 345.943 32.1337 346.793 31.8802 347.6Z" fill="#E0E0E0"/>
<path d="M31.8802 357.581C31.6268 356.773 31.5384 355.923 31.6202 355.081C31.5378 354.242 31.6262 353.395 31.8802 352.591C32.1342 353.395 32.2227 354.242 32.1402 355.081C32.2221 355.923 32.1337 356.773 31.8802 357.581Z" fill="#E0E0E0"/>
<path d="M31.8802 367.56C31.6268 366.753 31.5384 365.903 31.6202 365.06C31.5378 364.221 31.6262 363.374 31.8802 362.57C32.1342 363.374 32.2227 364.221 32.1402 365.06C32.2221 365.903 32.1337 366.753 31.8802 367.56Z" fill="#E0E0E0"/>
<path d="M31.8802 377.541C31.6268 376.733 31.5384 375.883 31.6202 375.041C31.5378 374.202 31.6262 373.355 31.8802 372.551C32.1342 373.355 32.2227 374.202 32.1402 375.041C32.2221 375.883 32.1337 376.733 31.8802 377.541Z" fill="#E0E0E0"/>
<path d="M34.3801 385C33.5727 385.254 32.7225 385.342 31.8801 385.26L31.6201 385V384.06C31.6201 383.76 31.6201 383.49 31.6801 383.26C31.6801 382.81 31.7901 382.53 31.8601 382.53C31.9301 382.53 32.0001 382.81 32.0401 383.26C32.0401 383.49 32.0401 383.76 32.1001 384.06V384.52V385L31.8401 384.74C32.6956 384.647 33.5612 384.736 34.3801 385Z" fill="#E0E0E0"/>
<path d="M44.8804 385C44.0282 385.253 43.1356 385.341 42.2504 385.26C41.3684 385.343 40.4789 385.254 39.6304 385C40.4778 384.74 41.3684 384.652 42.2504 384.74C43.1356 384.652 44.0295 384.741 44.8804 385Z" fill="#E0E0E0"/>
<path d="M55.3701 385C54.5216 385.254 53.632 385.343 52.7501 385.26C51.8649 385.341 50.9723 385.253 50.1201 385C50.971 384.741 51.8649 384.652 52.7501 384.74C53.6321 384.652 54.5227 384.74 55.3701 385Z" fill="#E0E0E0"/>
<path d="M65.8701 385C65.0179 385.253 64.1253 385.341 63.2401 385.26C62.3582 385.343 61.4687 385.254 60.6201 385C61.4675 384.74 62.3582 384.652 63.2401 384.74C64.1254 384.652 65.0192 384.741 65.8701 385Z" fill="#E0E0E0"/>
<path d="M73.6201 385C73.6201 385.14 73.0601 385.26 72.3701 385.26C71.6801 385.26 71.1201 385.14 71.1201 385C71.1201 384.86 71.6801 384.74 72.3701 384.74C73.0601 384.74 73.6201 384.88 73.6201 385Z" fill="#E0E0E0"/>
<path d="M255.92 58.6104V123.42H162.84L159.48 59.0604L255.92 58.6104Z" fill="#E0E0E0"/>
<path d="M159.48 59.0603V123.28H252.56V59.0603H159.48Z" fill="white"/>
<path d="M253 123.72H159V58.6201H253V123.72ZM159.91 122.84H252.11V59.5001H159.91V122.84Z" fill="#E0E0E0"/>
<path d="M242.48 67.04H169.56V115.3H242.48V67.04Z" fill="white"/>
<path d="M242.48 67.0002H242.12H241.12H237.12L222.12 67.0602L169.63 67.1602L169.84 66.9502C169.84 81.7002 169.84 98.0302 169.84 115.21L169.61 114.98L242.53 115.03L242.35 115.21C242.35 100.53 242.42 88.4802 242.45 80.1002C242.45 75.9102 242.45 72.6302 242.45 70.3902C242.45 69.2802 242.45 68.3902 242.45 67.8402C242.45 67.2902 242.45 66.9502 242.45 66.9502C242.45 66.9502 242.45 67.2302 242.45 67.8002C242.45 68.3702 242.45 69.2202 242.45 70.3202C242.45 72.5502 242.45 75.8102 242.45 79.9802C242.45 88.4002 242.51 100.48 242.55 115.21V115.4H242.36H169.44H169.21V115.17C169.21 97.9902 169.21 81.6602 169.21 66.9102V66.7002H169.42L222.05 66.8002L237.05 66.8602H241.05H242.4L242.48 67.0002Z" fill="#E0E0E0"/>
<path d="M159.48 58.8809C160.053 59.1477 160.59 59.4835 161.08 59.8809C162.03 60.5709 163.33 61.5409 164.73 62.6609C166.13 63.7809 167.36 64.8409 168.23 65.6609C168.731 66.047 169.178 66.4976 169.56 67.0009C169.48 67.1009 167.24 65.2509 164.44 63.0009C162.702 61.7334 161.045 60.3573 159.48 58.8809Z" fill="#E0E0E0"/>
<path d="M252.56 59.0605C251.033 60.567 249.399 61.9606 247.67 63.2305C246.034 64.6107 244.299 65.8707 242.48 67.0005C244.012 65.4957 245.65 64.1021 247.38 62.8305C249.018 61.4558 250.749 60.1961 252.56 59.0605Z" fill="#E0E0E0"/>
<path d="M252.49 123.291L242.11 114.881L252.49 123.291Z" fill="white"/>
<path d="M242.11 114.881C243.981 116.088 245.766 117.425 247.45 118.881C249.215 120.226 250.885 121.689 252.45 123.261C250.582 122.055 248.801 120.718 247.12 119.261C245.352 117.918 243.678 116.454 242.11 114.881Z" fill="#E0E0E0"/>
<path d="M159.48 123.281C160.993 121.789 162.614 120.412 164.33 119.161C165.947 117.781 167.661 116.521 169.46 115.391C167.947 116.884 166.326 118.264 164.61 119.521C162.993 120.895 161.278 122.152 159.48 123.281Z" fill="#E0E0E0"/>
<path d="M184.37 82.0802V98.2402H230.25V82.0802H184.37Z" fill="#E0E0E0"/>
<path d="M153.54 195.71H350.54C351.471 195.71 352.364 196.08 353.022 196.738C353.68 197.396 354.05 198.289 354.05 199.22V278.22H150V199.22C150 198.757 150.092 198.298 150.27 197.87C150.448 197.442 150.71 197.054 151.039 196.727C151.368 196.401 151.758 196.143 152.188 195.969C152.617 195.794 153.077 195.706 153.54 195.71Z" fill="#6ABFFF"/>
<path opacity="0.5" d="M153.54 195.71H350.54C351.471 195.71 352.364 196.08 353.022 196.738C353.68 197.396 354.05 198.289 354.05 199.22V278.22H150V199.22C150 198.757 150.092 198.298 150.27 197.87C150.448 197.442 150.71 197.054 151.039 196.727C151.368 196.401 151.758 196.143 152.188 195.969C152.617 195.794 153.077 195.706 153.54 195.71Z" fill="black"/>
<path d="M339.48 139.06H165.44V361.23H339.48V139.06Z" fill="white"/>
<path d="M339.41 138.27H165.37V180.87H339.41V138.27Z" fill="#F5F5F5"/>
<path d="M240.39 174.43H174.07V185.16H240.39V174.43Z" fill="#6ABFFF"/>
<path d="M329.56 227.88H174.07V243.29H329.56V227.88Z" fill="#FAFAFA"/>
<path d="M329.56 243.28H174.07V258.69H329.56V243.28Z" fill="#E0E0E0"/>
<path d="M303.67 193.56C301.87 193.906 300.02 193.906 298.22 193.56C300.02 193.213 301.87 193.213 303.67 193.56Z" fill="#263238"/>
<path d="M304.63 195.83C304.897 194.137 305.517 192.518 306.45 191.08C306.39 191.939 306.162 192.778 305.78 193.55C305.551 194.379 305.16 195.153 304.63 195.83Z" fill="#263238"/>
<path d="M311.63 193.56C310.302 193.907 308.907 193.907 307.58 193.56C307.58 193.41 308.49 193.3 309.58 193.3C310.67 193.3 311.63 193.41 311.63 193.56Z" fill="#263238"/>
<path d="M313.29 195.28C313.293 194.54 313.468 193.811 313.8 193.15C314.21 192.03 314.65 191.15 314.8 191.21C314.797 191.947 314.622 192.672 314.29 193.33C313.87 194.46 313.43 195.33 313.29 195.28Z" fill="#263238"/>
<path d="M323.5 193.56C320.811 193.907 318.089 193.907 315.4 193.56C318.089 193.213 320.811 193.213 323.5 193.56Z" fill="#263238"/>
<path d="M329.56 217.15H174.07V227.88H329.56V217.15Z" fill="#6ABFFF"/>
<path d="M220.86 236.4C220.86 236.54 213.39 236.66 204.17 236.66C194.95 236.66 187.48 236.54 187.48 236.4C187.48 236.26 194.95 236.14 204.17 236.14C213.39 236.14 220.86 236.26 220.86 236.4Z" fill="#263238"/>
<path d="M275.46 236.76C273.042 237.018 270.61 237.104 268.18 237.02C265.75 237.104 263.317 237.018 260.9 236.76C263.317 236.497 265.75 236.41 268.18 236.5C270.61 236.41 273.043 236.497 275.46 236.76Z" fill="#263238"/>
<path d="M296 235.87C296 236.01 295.28 236.13 294.4 236.13C293.52 236.13 292.8 236.01 292.8 235.87C292.8 235.73 293.52 235.61 294.4 235.61C295.28 235.61 296 235.72 296 235.87Z" fill="#263238"/>
<path d="M323.82 236.22C321.671 236.483 319.503 236.57 317.34 236.48C315.176 236.57 313.009 236.483 310.86 236.22C313.01 235.963 315.176 235.876 317.34 235.96C319.503 235.876 321.67 235.963 323.82 236.22Z" fill="#263238"/>
<path d="M238.08 251.32C238.08 251.46 226.76 251.58 212.78 251.58C198.8 251.58 187.48 251.46 187.48 251.32C187.48 251.18 198.81 251.06 212.78 251.06C226.75 251.06 238.08 251.17 238.08 251.32Z" fill="#263238"/>
<path d="M272.8 251.49C270.828 251.753 268.837 251.84 266.85 251.75C264.846 251.843 262.838 251.756 260.85 251.49C262.838 251.23 264.846 251.143 266.85 251.23C268.837 251.146 270.827 251.233 272.8 251.49Z" fill="#263238"/>
<path d="M296.66 251.32C295.139 251.666 293.56 251.666 292.04 251.32C293.56 250.973 295.139 250.973 296.66 251.32Z" fill="#263238"/>
<path d="M322.05 251C317.914 251.347 313.756 251.347 309.62 251C313.756 250.654 317.914 250.654 322.05 251Z" fill="#263238"/>
<path d="M329.12 281.6H255.86V291.15H329.12V281.6Z" fill="#6ABFFF"/>
<path d="M313.05 268.11C310.154 268.373 307.246 268.46 304.34 268.37C301.437 268.46 298.532 268.373 295.64 268.11C298.532 267.852 301.437 267.765 304.34 267.85C307.246 267.765 310.154 267.852 313.05 268.11Z" fill="#263238"/>
<path d="M313.05 274.52C310.154 274.778 307.246 274.864 304.34 274.78C301.437 274.865 298.532 274.778 295.64 274.52C298.532 274.257 301.437 274.17 304.34 274.26C307.246 274.17 310.154 274.257 313.05 274.52Z" fill="#263238"/>
<path d="M280.7 274.52C277.804 274.778 274.896 274.864 271.99 274.78C269.084 274.864 266.176 274.778 263.28 274.52C266.175 274.257 269.084 274.17 271.99 274.26C274.896 274.17 277.804 274.257 280.7 274.52Z" fill="#263238"/>
<path d="M280.7 267.79C280.7 267.93 274.88 268.05 267.7 268.05C260.52 268.05 254.7 267.93 254.7 267.79C254.7 267.65 260.51 267.53 267.7 267.53C274.89 267.53 280.7 267.65 280.7 267.79Z" fill="#263238"/>
<path d="M313.05 286.85C310.154 287.113 307.246 287.2 304.34 287.11C301.437 287.2 298.532 287.113 295.64 286.85C298.532 286.592 301.437 286.505 304.34 286.59C307.246 286.506 310.154 286.592 313.05 286.85Z" fill="white"/>
<path d="M281.66 286.85C278.764 287.113 275.856 287.2 272.95 287.11C270.044 287.2 267.135 287.113 264.24 286.85C267.135 286.592 270.044 286.505 272.95 286.59C275.856 286.505 278.764 286.592 281.66 286.85Z" fill="white"/>
<path d="M182.58 153.88H180.76C179.876 153.88 179.16 154.596 179.16 155.48V157.3C179.16 158.184 179.876 158.9 180.76 158.9H182.58C183.463 158.9 184.18 158.184 184.18 157.3V155.48C184.18 154.596 183.463 153.88 182.58 153.88Z" fill="#6ABFFF"/>
<path d="M180.29 160C180.29 160.077 180.321 160.151 180.375 160.205C180.429 160.259 180.503 160.29 180.58 160.29H185.4V155.29C185.4 155.213 185.369 155.139 185.315 155.085C185.261 155.031 185.187 155 185.11 155C185.032 155 184.957 155.03 184.901 155.084C184.845 155.138 184.813 155.212 184.81 155.29V159.61H180.58C180.532 159.607 180.484 159.616 180.44 159.636C180.396 159.657 180.358 159.688 180.329 159.726C180.3 159.765 180.282 159.81 180.275 159.858C180.268 159.906 180.273 159.955 180.29 160Z" fill="#6ABFFF"/>
<path d="M216.56 155.62C216.56 155.76 210.11 155.88 202.16 155.88C194.21 155.88 187.76 155.76 187.76 155.62C187.76 155.48 194.2 155.36 202.16 155.36C210.12 155.36 216.56 155.47 216.56 155.62Z" fill="#6ABFFF"/>
<path d="M203.21 158.38C200.706 158.643 198.186 158.73 195.67 158.64C193.154 158.73 190.634 158.643 188.13 158.38C190.634 158.123 193.154 158.036 195.67 158.12C198.186 158.036 200.705 158.123 203.21 158.38Z" fill="#6ABFFF"/>
<path d="M339.41 360.43C339.41 358.38 339.32 270.13 339.18 138.27L339.41 138.5H165.41L165.67 138.24C165.67 220.6 165.67 297.09 165.67 360.4L165.45 360.19L339.45 360.4L165.45 360.62H165.24V360.4C165.24 297.09 165.24 220.6 165.24 138.24V138H165.52H339.52H339.76V138.24C339.51 270.13 339.41 358.39 339.41 360.43Z" fill="#263238"/>
<path d="M251.82 199.29C251.82 199.43 242.51 199.55 231.03 199.55C219.55 199.55 210.23 199.43 210.23 199.29C210.23 199.15 219.54 199.03 231.03 199.03C242.52 199.03 251.82 199.14 251.82 199.29Z" fill="#263238"/>
<path d="M251.82 203.27C251.82 203.41 242.51 203.53 231.03 203.53C219.55 203.53 210.23 203.41 210.23 203.27C210.23 203.13 219.54 203.01 231.03 203.01C242.52 203.01 251.82 203.12 251.82 203.27Z" fill="#263238"/>
<path d="M225.78 207.25C223.195 207.508 220.596 207.595 218 207.51C215.407 207.595 212.811 207.508 210.23 207.25C212.812 206.996 215.407 206.913 218 207C220.596 206.913 223.195 206.996 225.78 207.25Z" fill="#263238"/>
<path d="M252.47 195C252.47 195.14 234.96 195.26 213.37 195.26C191.78 195.26 174.27 195.14 174.27 195C174.27 194.86 191.77 194.74 213.37 194.74C234.97 194.74 252.47 194.87 252.47 195Z" fill="#263238"/>
<path d="M221.82 222.52C221.82 222.66 214.02 222.78 204.39 222.78C194.76 222.78 186.95 222.66 186.95 222.52C186.95 222.38 194.75 222.26 204.39 222.26C214.03 222.26 221.82 222.37 221.82 222.52Z" fill="white"/>
<path d="M276.08 222.52C273.01 222.778 269.929 222.865 266.85 222.78C263.771 222.865 260.689 222.778 257.62 222.52C260.689 222.257 263.771 222.17 266.85 222.26C269.929 222.17 273.01 222.257 276.08 222.52Z" fill="white"/>
<path d="M302.48 222.52C300.209 222.777 297.923 222.864 295.64 222.78C293.353 222.864 291.063 222.777 288.79 222.52C291.063 222.257 293.353 222.17 295.64 222.26C297.923 222.17 300.21 222.257 302.48 222.52Z" fill="white"/>
<path d="M325.3 222.52C323.029 222.777 320.743 222.864 318.46 222.78C316.176 222.864 313.89 222.777 311.62 222.52C313.889 222.257 316.176 222.17 318.46 222.26C320.743 222.17 323.03 222.257 325.3 222.52Z" fill="white"/>
<path d="M62.5098 460.1V288C62.5098 285.196 63.6234 282.508 65.6056 280.526C67.5879 278.543 70.2764 277.43 73.0798 277.43H426.92C429.723 277.43 432.412 278.543 434.394 280.526C436.376 282.508 437.49 285.196 437.49 288V460.1H62.5098Z" fill="#6ABFFF"/>
<path d="M313.06 334.51C322.211 334.51 329.63 327.091 329.63 317.94C329.63 308.789 322.211 301.37 313.06 301.37C303.908 301.37 296.49 308.789 296.49 317.94C296.49 327.091 303.908 334.51 313.06 334.51Z" fill="#263238"/>
<path d="M333.31 317.94C333.197 316.283 332.95 314.638 332.57 313.02C332.089 311.137 331.328 309.337 330.31 307.68C327.913 303.687 324.201 300.652 319.811 299.097C315.42 297.543 310.625 297.565 306.25 299.16C304.432 299.804 302.726 300.725 301.19 301.89C300.393 302.481 299.638 303.126 298.93 303.82C298.213 304.545 297.544 305.317 296.93 306.13C294.41 309.55 293.05 313.687 293.05 317.935C293.05 322.184 294.41 326.32 296.93 329.74C297.547 330.555 298.215 331.33 298.93 332.06C299.638 332.752 300.393 333.393 301.19 333.98C302.726 335.146 304.432 336.067 306.25 336.71C310.625 338.295 315.415 338.313 319.803 336.761C324.19 335.209 327.903 332.184 330.31 328.2C331.326 326.54 332.088 324.737 332.57 322.85C332.949 321.237 333.197 319.595 333.31 317.94C333.325 318.047 333.325 318.154 333.31 318.26C333.31 318.52 333.31 318.83 333.31 319.26C333.309 319.786 333.265 320.311 333.18 320.83C333.098 321.542 332.967 322.247 332.79 322.94C332.344 324.861 331.602 326.699 330.59 328.39C329.121 330.894 327.134 333.055 324.763 334.73C322.392 336.404 319.69 337.553 316.84 338.1C313.235 338.787 309.512 338.493 306.06 337.25C304.193 336.593 302.44 335.652 300.86 334.46C300.037 333.85 299.258 333.181 298.53 332.46C297.81 331.713 297.142 330.918 296.53 330.08C293.926 326.567 292.521 322.309 292.521 317.935C292.521 313.562 293.926 309.304 296.53 305.79C297.142 304.953 297.81 304.158 298.53 303.41C299.258 302.69 300.037 302.021 300.86 301.41C302.438 300.219 304.192 299.281 306.06 298.63C309.51 297.38 313.234 297.083 316.84 297.77C319.69 298.317 322.392 299.467 324.763 301.141C327.134 302.816 329.121 304.977 330.59 307.48C331.602 309.172 332.344 311.01 332.79 312.93C332.968 313.627 333.099 314.336 333.18 315.05C333.265 315.566 333.309 316.088 333.31 316.61C333.31 317.01 333.31 317.33 333.31 317.61C333.325 317.72 333.325 317.831 333.31 317.94Z" fill="#263238"/>
<path d="M436.4 353.86C436.4 354.01 352.71 354.12 249.48 354.12C146.25 354.12 62.5498 354 62.5498 353.86C62.5498 353.72 146.23 353.6 249.48 353.6C352.73 353.6 436.4 353.72 436.4 353.86Z" fill="#263238"/>
<path d="M349.03 234.75V249.45H339.38V277.42V279.78H363.73V234.75H349.03Z" fill="#6ABFFF"/>
<path d="M155.76 249.45V234.75H141.05V277.64H165.41V277.42V249.45H155.76Z" fill="#6ABFFF"/>
<path opacity="0.3" d="M361.69 460.1L134.74 454.93V441.35H361.69V460.1Z" fill="black"/>
<path opacity="0.5" d="M358.12 378.77H140.96V419.25H358.12V378.77Z" fill="black"/>
<path d="M423.83 277.42C423.83 277.56 345.25 277.68 248.33 277.68C151.41 277.68 72.8198 277.56 72.8198 277.42C72.8198 277.28 151.39 277.16 248.33 277.16C345.27 277.16 423.83 277.27 423.83 277.42Z" fill="#263238"/>
<path d="M264.23 354.38C264.08 354.38 263.97 337.22 263.97 316.05C263.97 294.88 264.08 277.73 264.23 277.73C264.38 277.73 264.49 294.88 264.49 316.05C264.49 337.22 264.37 354.38 264.23 354.38Z" fill="#263238"/>
<path d="M121.87 352.69C121.73 352.69 121.61 335.85 121.61 315.07C121.61 294.29 121.73 277.44 121.87 277.44C122.01 277.44 122.13 294.29 122.13 315.07C122.13 335.85 122 352.69 121.87 352.69Z" fill="#263238"/>
<path d="M308.55 312.42C308.55 312.42 308.18 312.76 307.63 313.42C306.845 314.401 306.328 315.569 306.13 316.81C305.98 317.718 306.011 318.646 306.22 319.542C306.43 320.437 306.814 321.283 307.35 322.03C307.982 322.91 308.802 323.637 309.75 324.16C311.262 324.974 313.021 325.204 314.691 324.806C316.362 324.407 317.828 323.409 318.81 322C319.866 320.487 320.293 318.622 320 316.8C319.793 315.565 319.269 314.404 318.48 313.43C317.92 312.73 317.48 312.43 317.55 312.43C317.62 312.43 317.67 312.48 317.86 312.62C318.14 312.834 318.401 313.071 318.64 313.33C319.519 314.302 320.116 315.495 320.37 316.78C320.552 317.739 320.543 318.725 320.344 319.681C320.145 320.636 319.76 321.544 319.21 322.35C318.171 323.87 316.605 324.951 314.815 325.383C313.025 325.815 311.138 325.568 309.52 324.69C308.509 324.123 307.638 323.337 306.97 322.39C306.41 321.588 306.016 320.682 305.81 319.726C305.604 318.77 305.59 317.782 305.77 316.82C306.016 315.536 306.607 314.343 307.48 313.37C307.716 313.109 307.974 312.869 308.25 312.65C308.44 312.47 308.54 312.4 308.55 312.42Z" fill="#FAFAFA"/>
<path d="M313.06 308.36C313.406 312.323 313.406 316.308 313.06 320.27C312.713 316.308 312.713 312.323 313.06 308.36Z" fill="#FAFAFA"/>
<path d="M226.19 300.88H159.91C158.921 300.88 158.12 301.681 158.12 302.67V334.78C158.12 335.768 158.921 336.57 159.91 336.57H226.19C227.178 336.57 227.98 335.768 227.98 334.78V302.67C227.98 301.681 227.178 300.88 226.19 300.88Z" fill="white"/>
<path d="M191.48 310.2L190.55 309.27L189.6 310.22V317.9L190.6 318.9L191.54 317.96L191.48 310.2Z" fill="#263238"/>
<path d="M191.48 320.15L190.55 319.22L189.6 320.17V327.85L190.6 328.85L191.54 327.91L191.48 320.15Z" fill="#263238"/>
<path d="M201.5 320.15L200.56 319.22L199.61 320.17V327.85L200.61 328.85L201.55 327.91L201.5 320.15Z" fill="#263238"/>
<path d="M201.56 310.2L200.63 309.27L199.67 310.22V317.9L200.67 318.9L201.62 317.96L201.56 310.2Z" fill="#263238"/>
<path d="M191.63 308.16L190.7 309.09L191.65 310.04H199.33L200.33 309.04L199.39 308.1L191.63 308.16Z" fill="#263238"/>
<path d="M191.63 328.13L190.7 329.06L191.65 330.01H199.33L200.33 329.01L199.39 328.07L191.63 328.13Z" fill="#263238"/>
<path d="M191.63 318.16L190.7 319.09L191.65 320.04H199.33L200.33 319.04L199.39 318.1L191.63 318.16Z" fill="#E0E0E0"/>
<path d="M209.55 310.04L208.62 309.11L207.67 310.06V317.74L208.67 318.74L209.61 317.8L209.55 310.04Z" fill="#E0E0E0"/>
<path d="M209.55 319.99L208.62 319.06L207.67 320.01V327.69L208.67 328.69L209.61 327.75L209.55 319.99Z" fill="#E0E0E0"/>
<path d="M219.56 319.99L218.63 319.06L217.68 320.01V327.69L218.68 328.69L219.62 327.75L219.56 319.99Z" fill="#263238"/>
<path d="M219.63 310.04L218.7 309.11L217.74 310.06V317.74L218.74 318.74L219.69 317.8L219.63 310.04Z" fill="#263238"/>
<path d="M209.7 308L208.77 308.93L209.72 309.88H217.4L218.4 308.88L217.46 307.94L209.7 308Z" fill="#263238"/>
<path d="M209.7 327.97L208.77 328.9L209.72 329.85H217.4L218.4 328.85L217.46 327.91L209.7 327.97Z" fill="#E0E0E0"/>
<path d="M209.7 317.99L208.77 318.93L209.72 319.88H217.4L218.4 318.88L217.46 317.94L209.7 317.99Z" fill="#E0E0E0"/>
<path d="M228.43 339.36C228.43 339.36 228.63 339.36 229 339.27C229.487 339.158 229.934 338.912 230.288 338.558C230.641 338.204 230.888 337.758 231 337.27C231.072 336.77 231.092 336.264 231.06 335.76C231.06 334.64 231.06 333.37 231.06 331.93C231.06 326.15 231.06 317.83 230.98 307.55C230.98 306.27 230.98 304.95 230.98 303.6V301.6C231.016 300.947 230.798 300.305 230.37 299.81C230.158 299.559 229.897 299.354 229.603 299.208C229.309 299.061 228.988 298.977 228.66 298.96H222H202.68H158.41C157.966 298.963 157.532 299.087 157.154 299.318C156.775 299.548 156.466 299.877 156.26 300.27C156.053 300.671 155.96 301.12 155.99 301.57V308.8C155.99 312.63 155.99 316.39 155.99 320.1C155.99 323.81 155.99 327.44 155.99 331V336.28C155.943 336.68 155.99 337.085 156.127 337.463C156.264 337.842 156.488 338.183 156.78 338.46C157.063 338.722 157.406 338.911 157.78 339.01C158.177 339.097 158.584 339.127 158.99 339.1L195.14 339.16L219.52 339.24L226.14 339.29H219.52L195.14 339.38L159 339.6C158.551 339.63 158.099 339.596 157.66 339.5C157.205 339.378 156.787 339.148 156.44 338.83C156.09 338.513 155.818 338.121 155.644 337.682C155.471 337.243 155.401 336.77 155.44 336.3V331C155.44 327.44 155.44 323.8 155.44 320.1V301.59C155.412 301.058 155.522 300.527 155.76 300.05C156.013 299.574 156.39 299.175 156.851 298.895C157.312 298.615 157.84 298.465 158.38 298.46H202.65H221.97H226.43C227.17 298.46 227.87 298.46 228.61 298.46C228.993 298.485 229.367 298.586 229.711 298.758C230.054 298.93 230.36 299.168 230.61 299.46C231.095 300.033 231.342 300.77 231.3 301.52V303.52C231.3 304.87 231.3 306.19 231.3 307.47C231.3 317.75 231.24 326.07 231.22 331.85C231.22 333.29 231.22 334.56 231.22 335.68C231.246 336.195 231.216 336.712 231.13 337.22C231.03 337.643 230.827 338.035 230.54 338.36C230.149 338.8 229.626 339.102 229.05 339.22C228.852 339.299 228.642 339.347 228.43 339.36Z" fill="#263238"/>
<path d="M437.49 378.77C437.49 378.91 353.67 379.03 250.3 379.03C146.93 379.03 63.0796 378.91 63.0796 378.77C63.0796 378.63 146.89 378.51 250.3 378.51C353.71 378.51 437.49 378.63 437.49 378.77Z" fill="#263238"/>
<path d="M364.81 441.35H127.96V450.73H364.81V441.35Z" fill="#6ABFFF"/>
<path d="M364.81 450.72C364.81 450.72 364.81 449.97 364.81 448.43C364.81 446.89 364.81 444.55 364.81 441.35L364.87 441.41L128.03 441.61L128.29 441.35V450.72L128.03 450.46L295.78 450.57L346.34 450.65H360.08H363.65H364.88C364.88 450.65 364.49 450.65 363.69 450.65H360.15H346.47L295.97 450.73L128 451H127.74V441.11H128L364.84 441.3H364.91V441.37C364.91 444.59 364.91 446.94 364.91 448.49C364.91 450.04 364.81 450.72 364.81 450.72Z" fill="#263238"/>
<path d="M134.74 441.08V433.11H141.54L134.74 428.75V419.25H358.11V430.3L353.24 432.65L358.11 432.71V441.25L134.74 441.08Z" fill="white"/>
<path d="M134.74 419.25V428.75L141.28 432.94H134.74V441.08H150.93V419.25H134.74Z" fill="#E0E0E0"/>
<path d="M353.24 432.65C353.24 432.8 307.95 433 252.09 433.1C196.23 433.2 150.93 433.16 150.93 433.02C150.93 432.88 196.21 432.68 252.09 432.58C307.97 432.48 353.24 432.51 353.24 432.65Z" fill="#EBEBEB"/>
<path d="M353.24 427.1C353.24 427.24 307.95 427.44 252.09 427.55C196.23 427.66 150.93 427.61 150.93 427.47C150.93 427.33 196.21 427.13 252.09 427.02C307.97 426.91 353.24 427 353.24 427.1Z" fill="#EBEBEB"/>
<path d="M484 460.1C484 460.24 379 460.36 249.47 460.36C119.94 460.36 15 460.24 15 460.1C15 459.96 120 459.84 249.54 459.84C379.08 459.84 484 460 484 460.1Z" fill="#263238"/>
<g opacity="0.3">
<path d="M98.2799 277.44L83.5199 277.65L85.5899 344.81L73.6899 374.57C85.3299 374.87 100.1 366.37 101.88 354.86C102.68 349.66 101.77 344.37 101.23 339.13C100.23 329.23 100.47 319.24 100.75 309.29C100.94 302.45 101.17 295.41 103.94 289.15C106.71 282.89 112.65 277.52 119.49 277.58L98.2799 277.44Z" fill="black"/>
</g>
<path d="M88.54 321.81L90.27 360.41L106.52 359.24L110.16 318.74L88.54 321.81Z" fill="#FFBE9D"/>
<path d="M107.09 352.141C107.09 352.141 95.6501 360.261 90.0901 353.231L88.6401 356.641L82.1401 380.891C81.9164 381.652 81.979 382.469 82.3161 383.187C82.6532 383.906 83.2415 384.476 83.9701 384.791C84.5263 385.015 85.1356 385.075 85.7247 384.961C86.3138 384.848 86.8574 384.566 87.2901 384.151C92.0001 379.681 109.22 363.151 109.05 360.891L108.99 354.891C108.988 354.285 108.802 353.695 108.457 353.197C108.113 352.699 107.626 352.317 107.06 352.101L107.09 352.141Z" fill="#455A64"/>
<path d="M84.5601 385L109.09 358.86V360.16C109.21 361.57 108.59 362.16 107.92 363.04C105.92 365.71 100.44 371.7 87.4201 384.2C87.0464 384.559 86.5896 384.82 86.0906 384.96C85.5916 385.099 85.0658 385.113 84.5601 385Z" fill="#263238"/>
<path d="M105.5 354.94C105.122 355.216 104.859 355.621 104.761 356.079C104.663 356.536 104.737 357.014 104.97 357.42C105.23 357.809 105.629 358.083 106.085 358.185C106.541 358.288 107.019 358.21 107.42 357.97C107.822 357.678 108.101 357.247 108.202 356.761C108.304 356.275 108.221 355.768 107.97 355.34C107.657 354.96 107.208 354.717 106.719 354.663C106.23 354.609 105.738 354.748 105.35 355.05" fill="#263238"/>
<path d="M91.6301 371.57C91.4601 371.65 90.7701 370.04 88.9501 369.17C87.1301 368.3 85.4501 368.66 85.4201 368.48C85.3901 368.3 85.7801 368.16 86.5001 368.06C87.4456 367.962 88.3996 368.135 89.2501 368.56C90.0862 368.982 90.7812 369.639 91.2501 370.45C91.6601 371.09 91.7101 371.54 91.6301 371.57Z" fill="#263238"/>
<path d="M89.4302 375.67C89.2802 375.8 88.3002 374.8 86.7102 374.34C85.1202 373.88 83.7602 374.13 83.7102 373.94C83.6602 373.75 85.1102 373.14 86.9102 373.69C88.7102 374.24 89.5902 375.59 89.4302 375.67Z" fill="#263238"/>
<path d="M95.72 366.311C95.58 366.461 94.08 364.911 91.72 363.971C89.36 363.031 87.18 363.101 87.17 362.891C87.16 362.681 89.41 362.311 91.97 363.351C94.53 364.391 95.87 366.231 95.72 366.311Z" fill="#263238"/>
<path d="M96.27 358.931C96.19 359.111 94.49 358.401 92.27 358.311C90.05 358.221 88.27 358.741 88.27 358.551C88.27 358.361 89.96 357.551 92.33 357.631C94.7 357.711 96.37 358.781 96.27 358.931Z" fill="#263238"/>
<path d="M91 358.24C90.9709 357.849 91.0289 357.456 91.17 357.09C91.4664 356.061 91.9662 355.103 92.64 354.27C93.0754 353.615 93.7154 353.123 94.46 352.87C94.7133 352.813 94.978 352.834 95.2191 352.93C95.4603 353.027 95.6663 353.194 95.81 353.41C96.0588 353.85 96.1371 354.366 96.03 354.86C95.7716 355.863 95.1719 356.743 94.3341 357.351C93.4964 357.959 92.473 358.256 91.44 358.19C90.43 358.096 89.4701 357.706 88.6804 357.07C87.8908 356.433 87.3063 355.577 87 354.61C86.9227 354.365 86.8997 354.105 86.9325 353.849C86.9653 353.594 87.0531 353.349 87.19 353.13C87.352 352.925 87.5738 352.776 87.8247 352.702C88.0755 352.629 88.343 352.635 88.59 352.72C89.3009 353.024 89.9185 353.51 90.38 354.13C91.0794 354.936 91.6282 355.861 92 356.86C92.1716 357.213 92.2637 357.598 92.27 357.99C91.6959 356.703 90.9306 355.509 90 354.45C89.5733 353.927 89.0236 353.519 88.4 353.26C88.2668 353.208 88.1201 353.202 87.9827 353.241C87.8453 353.281 87.7248 353.365 87.64 353.48C87.5588 353.633 87.5106 353.801 87.4985 353.973C87.4865 354.145 87.5108 354.318 87.57 354.48C87.8643 355.313 88.3909 356.043 89.0874 356.585C89.7838 357.128 90.6211 357.459 91.5 357.54C92.3718 357.591 93.2352 357.345 93.949 356.842C94.6628 356.339 95.1849 355.609 95.43 354.77C95.5096 354.434 95.4707 354.081 95.32 353.77C95.2444 353.648 95.1324 353.552 94.9997 353.497C94.867 353.441 94.7203 353.428 94.58 353.46C93.9521 353.665 93.4011 354.056 93 354.58C92.1229 355.673 91.4458 356.912 91 358.24Z" fill="#263238"/>
<path d="M54.7799 287.71L34.8999 325.45L50.7699 334.96L76.4399 298.8L54.7799 287.71Z" fill="#FFBE9D"/>
<path d="M37.3801 320.401L36.7301 321.451C36.7301 321.451 14.5701 317.671 12.3101 320.931L47.7201 342.421L54.3901 330.351C51.0071 330.009 47.7373 328.944 44.8024 327.227C41.8674 325.51 39.3361 323.182 37.3801 320.401Z" fill="#455A64"/>
<path d="M48.5201 331.94C48.797 332.252 48.95 332.654 48.95 333.07C48.95 333.487 48.797 333.889 48.5201 334.2C48.2174 334.487 47.8167 334.646 47.4001 334.646C46.9835 334.646 46.5828 334.487 46.2801 334.2C45.9836 333.873 45.8193 333.447 45.8193 333.005C45.8193 332.564 45.9836 332.138 46.2801 331.81C46.6252 331.544 47.0594 331.42 47.493 331.465C47.9267 331.51 48.3266 331.719 48.6101 332.05" fill="#263238"/>
<path d="M47.7201 342.42L49.3301 339.52L14.8001 320C14.8001 320 12.8001 319.73 12.3101 320.95L47.7201 342.42Z" fill="#263238"/>
<path d="M36.5499 321.471C36.4499 321.651 37.2699 322.251 37.7799 323.321C38.2899 324.391 38.3099 325.401 38.5099 325.431C38.7099 325.461 39.0599 324.301 38.4099 323.011C37.7599 321.721 36.6099 321.291 36.5499 321.471Z" fill="#263238"/>
<path d="M31.8999 320.751C31.7599 320.901 32.3299 321.641 32.4799 322.751C32.6299 323.861 32.3199 324.751 32.4799 324.811C32.6399 324.871 33.3599 324.001 33.1499 322.651C32.9399 321.301 31.9999 320.591 31.8999 320.751Z" fill="#263238"/>
<path d="M27.0899 323.921C27.2299 324.051 27.9899 323.331 28.0899 322.121C28.1899 320.911 27.6399 320.031 27.4799 320.121C27.3199 320.211 27.4799 321.031 27.3899 322.031C27.2999 323.031 26.9299 323.801 27.0899 323.921Z" fill="#263238"/>
<path d="M148.72 233.48C148.72 233.48 160.31 249.48 158.4 264.25C156.95 275.52 154.2 277.44 154.2 277.44H118.66L111.07 229.75L122.07 230.61L148.72 233.48Z" fill="#263238"/>
<path d="M92.8302 255.001L92.6002 255.141C90.0719 256.665 88.0023 258.844 86.61 261.447C85.2177 264.051 84.5544 266.982 84.6902 269.931L88.9102 330.221L109.46 330.841L113.23 277.841L123.8 277.241L106.27 257.001C104.615 255.153 102.365 253.941 99.911 253.576C97.4568 253.211 94.9521 253.715 92.8302 255.001Z" fill="#263238"/>
<path d="M44.9399 306.001L78.7499 236.001C78.7499 236.001 83.4899 229.001 90.1399 229.351C96.7899 229.701 138.23 243.001 138.23 243.001V276.851L123.67 276.531L90.7699 273.371L78.2399 297.151L63.5399 318.151L44.9399 306.001Z" fill="#263238"/>
<path d="M146.16 247.551C145.997 247.523 145.839 247.473 145.69 247.401L144.37 246.871L139.53 244.871C135.44 243.221 129.76 241.011 123.41 238.801C117.06 236.591 111.23 234.801 107 233.541L102 232.091L100.64 231.681C100.476 231.645 100.318 231.588 100.17 231.511C100.336 231.519 100.5 231.546 100.66 231.591L102.04 231.921C103.24 232.201 104.97 232.651 107.1 233.241C111.36 234.401 117.21 236.161 123.58 238.371C129.95 240.581 135.58 242.851 139.67 244.581C141.67 245.441 143.34 246.171 144.46 246.691L145.74 247.291C145.888 247.363 146.029 247.45 146.16 247.551Z" fill="#455A64"/>
<path d="M147.16 240.29C146.132 240.317 145.103 240.277 144.08 240.17C142.18 240.05 139.56 239.92 136.65 239.85L129.21 239.7C128.181 239.722 127.151 239.668 126.13 239.54C126.398 239.472 126.674 239.442 126.95 239.45L129.21 239.38C131.12 239.38 133.75 239.38 136.66 239.38C139.57 239.38 142.21 239.64 144.11 239.83C145.06 239.93 145.82 240.02 146.35 240.1C146.628 240.123 146.901 240.187 147.16 240.29Z" fill="#455A64"/>
<path d="M102.1 253C101.2 252.799 100.282 252.688 99.3599 252.67C96.8409 252.699 94.3938 253.514 92.3599 255C89.3793 257.276 87.2631 260.5 86.3599 264.14C85.1799 268.14 85.1999 272.9 85.5699 277.76C86.2999 287.5 86.9599 296.31 87.4499 302.76C87.6599 305.91 87.8299 308.49 87.9599 310.34C87.9599 311.19 88.0399 311.88 88.0699 312.4C88.0962 312.639 88.0962 312.881 88.0699 313.12C88.0185 312.886 87.9851 312.649 87.9699 312.41C87.9099 311.89 87.8399 311.21 87.7599 310.35C87.5899 308.51 87.3599 305.94 87.0799 302.79C86.5599 296.34 85.8399 287.53 85.0799 277.79C84.7099 272.92 84.6999 268.14 85.9299 264.01C86.8694 260.283 89.0664 256.995 92.1499 254.7C94.2552 253.202 96.7864 252.42 99.3699 252.47C100.065 252.489 100.756 252.587 101.43 252.76C101.661 252.816 101.886 252.896 102.1 253Z" fill="#455A64"/>
<path d="M136.11 277.19C135.958 277.191 135.806 277.171 135.66 277.13C135.36 277.07 134.93 276.99 134.38 276.84C132.828 276.442 131.305 275.941 129.82 275.34C124.935 273.308 120.382 270.558 116.31 267.18C112.252 263.798 108.448 260.121 104.93 256.18C103.56 254.69 102.48 253.46 101.74 252.61C101.336 252.182 100.965 251.724 100.63 251.24C101.081 251.617 101.502 252.028 101.89 252.47L105.2 256C108.785 259.838 112.606 263.448 116.64 266.81C120.692 270.146 125.189 272.902 130 275C131.46 275.629 132.952 276.18 134.47 276.65C135.027 276.797 135.575 276.977 136.11 277.19Z" fill="#455A64"/>
<path d="M113.33 267.91C113.47 267.91 113.21 274.53 112.74 282.67C112.27 290.81 111.74 297.4 111.63 297.4C111.52 297.4 111.75 290.78 112.22 282.64C112.69 274.5 113.18 267.9 113.33 267.91Z" fill="#455A64"/>
<path d="M112.29 154.75C112.44 154.334 112.498 153.89 112.46 153.45C112.411 152.939 112.254 152.445 112 152C111.614 151.421 111.168 150.885 110.67 150.4C110.036 149.797 109.5 149.098 109.08 148.33C108.613 147.429 108.334 146.442 108.26 145.43C108.17 144.308 108.345 143.182 108.77 142.14C109.228 141.055 109.784 140.014 110.43 139.03C111.052 138.068 111.568 137.042 111.97 135.97C112.322 134.982 112.401 133.919 112.2 132.89C111.78 130.89 110.71 129.32 110.2 127.81C109.71 126.632 109.616 125.326 109.93 124.09C110.026 123.757 110.171 123.44 110.36 123.15C110.42 123.047 110.498 122.955 110.59 122.88C110.404 123.288 110.247 123.709 110.12 124.14C109.898 125.335 110.045 126.57 110.54 127.68C111.07 129.13 112.18 130.68 112.66 132.79C112.896 133.902 112.819 135.058 112.44 136.13C112.029 137.24 111.499 138.303 110.86 139.3C110.232 140.251 109.687 141.255 109.23 142.3C108.834 143.273 108.66 144.321 108.72 145.37C108.784 146.32 109.035 147.248 109.46 148.1C109.846 148.837 110.342 149.511 110.93 150.1C111.429 150.616 111.869 151.186 112.24 151.8C112.508 152.283 112.668 152.819 112.71 153.37C112.725 153.712 112.663 154.054 112.53 154.37C112.39 154.67 112.3 154.76 112.29 154.75Z" fill="#263238"/>
<path d="M140 146.86C140.317 147.722 140.879 148.472 141.616 149.019C142.353 149.566 143.234 149.886 144.15 149.94C145.069 149.969 145.981 149.775 146.808 149.374C147.635 148.974 148.353 148.379 148.9 147.64C149.979 146.14 150.437 144.281 150.18 142.45C150.003 141.647 149.943 140.822 150 140C150.2 138.84 151.1 137.93 151.46 136.81C152.09 134.81 150.72 132.55 148.82 131.62C146.847 130.815 144.661 130.692 142.61 131.27" fill="#263238"/>
<path d="M111.65 121.531C109.65 123.311 110.25 125.831 111.03 127.531C111.81 129.231 112.76 131.021 112.68 132.911C112.6 134.801 111.43 136.541 110.79 138.371C109.992 140.704 110.048 143.245 110.95 145.541C111.63 147.251 112.75 148.751 113.44 150.461C114.13 152.171 114.3 154.271 113.15 155.711C113.658 155.632 114.141 155.436 114.56 155.137C114.978 154.838 115.321 154.446 115.56 153.991C116.038 153.063 116.285 152.034 116.28 150.991C116.41 147.091 114.76 143.211 115.45 139.371C115.84 137.141 117.02 135.041 117 132.771C116.98 130.501 115.76 128.431 114.91 126.321C114.06 124.211 113.64 121.611 115.03 119.811" fill="#263238"/>
<path d="M116.68 114.411C115.517 114.454 114.38 114.767 113.358 115.324C112.336 115.881 111.457 116.667 110.79 117.621C110.164 118.6 109.903 119.768 110.053 120.92C110.203 122.072 110.754 123.135 111.61 123.921C113.33 125.281 115.89 125.011 117.79 123.921C119.229 123.152 120.356 121.908 120.98 120.401C121.281 119.649 121.397 118.837 121.319 118.031C121.24 117.225 120.97 116.45 120.53 115.771C120.068 115.105 119.412 114.599 118.652 114.319C117.891 114.04 117.063 114.002 116.28 114.211" fill="#263238"/>
<path d="M114.81 114.07C115.447 112.72 116.37 111.524 117.514 110.566C118.659 109.608 119.999 108.91 121.44 108.52C124.338 107.765 127.383 107.786 130.27 108.58C133.139 109.382 135.933 110.433 138.62 111.72C140.652 112.489 142.536 113.602 144.19 115.01C145.701 116.547 146.796 118.443 147.37 120.52C148.54 124.38 148.45 127.14 146.61 130.73C145.81 132.29 146.29 134.12 145.56 135.73C144.83 137.34 141.78 139.1 142.61 140.64" fill="#263238"/>
<path d="M138.3 117.291C139.071 117.373 139.783 117.741 140.295 118.322C140.808 118.904 141.084 119.656 141.07 120.431L139.22 162.271C139.14 167.211 131.92 169.991 126.63 169.861C121.29 169.741 121.12 167.121 121.05 162.421C120.94 154.561 120.95 151.621 120.95 151.661C120.95 151.701 114.2 150.531 112.82 141.721C112.13 137.331 112.37 130.151 112.75 124.281C113.1 119.001 116.61 112.531 121.87 113.091L138.3 117.291Z" fill="#FFBE9D"/>
<path d="M114.73 130.3C114.727 130.593 114.838 130.875 115.04 131.088C115.241 131.301 115.517 131.427 115.81 131.44C116.098 131.462 116.382 131.369 116.602 131.182C116.821 130.994 116.957 130.727 116.98 130.44C116.98 130.146 116.867 129.863 116.664 129.651C116.461 129.439 116.184 129.313 115.89 129.3C115.748 129.288 115.605 129.304 115.469 129.348C115.333 129.392 115.207 129.462 115.099 129.555C114.991 129.649 114.903 129.763 114.839 129.89C114.776 130.018 114.739 130.157 114.73 130.3Z" fill="#263238"/>
<path d="M114.3 127.451C114.44 127.601 115.3 126.971 116.51 126.971C117.72 126.971 118.62 127.591 118.75 127.441C118.88 127.291 118.67 127.111 118.29 126.831C117.763 126.462 117.133 126.266 116.49 126.271C115.859 126.268 115.243 126.463 114.73 126.831C114.36 127.121 114.23 127.391 114.3 127.451Z" fill="#263238"/>
<path d="M126.23 130.3C126.227 130.594 126.34 130.879 126.543 131.092C126.747 131.304 127.026 131.429 127.32 131.44C127.462 131.451 127.605 131.434 127.74 131.389C127.875 131.345 128 131.274 128.108 131.181C128.216 131.088 128.304 130.975 128.368 130.848C128.432 130.72 128.47 130.582 128.48 130.44C128.485 130.146 128.375 129.862 128.173 129.649C127.971 129.436 127.694 129.31 127.4 129.3C127.257 129.288 127.114 129.304 126.977 129.348C126.841 129.391 126.715 129.462 126.606 129.555C126.497 129.648 126.407 129.762 126.343 129.89C126.279 130.018 126.24 130.157 126.23 130.3Z" fill="#263238"/>
<path d="M126.25 128.28C126.39 128.42 127.25 127.79 128.46 127.8C129.67 127.81 130.57 128.41 130.7 128.27C130.83 128.13 130.62 127.93 130.23 127.65C129.705 127.283 129.08 127.088 128.44 127.09C127.808 127.09 127.192 127.289 126.68 127.66C126.31 127.94 126.18 128.21 126.25 128.28Z" fill="#263238"/>
<path d="M121.82 137.28C121.171 137.078 120.499 136.957 119.82 136.92C119.51 136.92 119.22 136.82 119.17 136.61C119.142 136.289 119.215 135.968 119.38 135.69L120.3 133.33C121.159 131.331 121.851 129.264 122.37 127.15C121.362 129.081 120.506 131.087 119.81 133.15C119.5 133.98 119.2 134.77 118.92 135.53C118.723 135.901 118.666 136.331 118.76 136.74C118.803 136.851 118.872 136.951 118.961 137.03C119.049 137.11 119.155 137.168 119.27 137.2C119.443 137.246 119.621 137.269 119.8 137.27C120.47 137.36 121.149 137.363 121.82 137.28Z" fill="#263238"/>
<path d="M121 151.66C125.147 151.735 129.232 150.655 132.8 148.54C132.8 148.54 129.8 154.59 121 153.75V151.66Z" fill="#EB996E"/>
<path d="M125.71 124.72C125.83 125.05 127.05 124.89 128.47 125.07C129.89 125.25 131.05 125.64 131.24 125.34C131.33 125.2 131.13 124.89 130.66 124.57C130.059 124.175 129.374 123.925 128.66 123.84C127.93 123.754 127.191 123.84 126.5 124.09C125.93 124.3 125.66 124.56 125.71 124.72Z" fill="#263238"/>
<path d="M114.76 124.511C114.97 124.781 115.76 124.511 116.76 124.511C117.76 124.511 118.62 124.701 118.82 124.411C118.91 124.271 118.77 123.991 118.4 123.731C117.9 123.419 117.32 123.261 116.731 123.277C116.143 123.293 115.572 123.482 115.09 123.821C114.78 124.091 114.66 124.371 114.76 124.511Z" fill="#263238"/>
<path d="M122.33 140.08C122.543 139.805 122.824 139.591 123.145 139.458C123.465 139.324 123.815 139.277 124.16 139.32C124.412 139.343 124.655 139.417 124.877 139.538C125.099 139.658 125.294 139.822 125.45 140.02C125.602 140.209 125.692 140.44 125.708 140.681C125.724 140.923 125.666 141.163 125.54 141.37C125.356 141.572 125.117 141.716 124.851 141.782C124.586 141.847 124.307 141.833 124.05 141.74C123.515 141.546 123.023 141.251 122.6 140.87C122.474 140.777 122.366 140.662 122.28 140.53C122.241 140.467 122.221 140.394 122.221 140.32C122.221 140.246 122.241 140.173 122.28 140.11" fill="#EB996E"/>
<path d="M125.19 138.13C125.01 138.13 125 139.35 123.95 140.22C122.9 141.09 121.58 140.96 121.57 141.13C121.56 141.3 121.87 141.37 122.42 141.39C123.147 141.403 123.856 141.159 124.42 140.7C124.965 140.266 125.323 139.64 125.42 138.95C125.41 138.43 125.28 138.13 125.19 138.13Z" fill="#263238"/>
<path d="M114.53 116.42C114.95 119.2 119.36 119.66 122.12 119.12C123.045 120.305 124.254 121.238 125.635 121.833C127.015 122.427 128.524 122.663 130.02 122.52C130.417 122.42 130.833 122.42 131.23 122.52C131.601 122.74 131.91 123.05 132.13 123.42C133.3 124.98 135.007 126.049 136.92 126.42C137.136 127.811 137.761 129.107 138.715 130.141C139.67 131.176 140.911 131.903 142.28 132.23C142.28 132.23 143.19 131.78 142.87 128.23C142.55 124.68 142.94 117.23 142.94 117.23L133.3 112.85L121.77 110.7C121.77 110.7 113.82 111.7 114.53 116.42Z" fill="#263238"/>
<path d="M146.45 131.13C146.362 130.283 146.16 129.452 145.85 128.66C145.407 127.636 144.699 126.75 143.799 126.091C142.899 125.431 141.84 125.024 140.73 124.91H140.57V124.75C140.224 123.22 139.43 121.828 138.29 120.75C137.649 120.163 136.852 119.774 135.995 119.63C135.138 119.487 134.257 119.594 133.46 119.94L133.2 120.07L133.1 119.78L132.98 119.46C132.529 118.278 131.761 117.243 130.761 116.469C129.761 115.695 128.567 115.211 127.31 115.07C126.745 115.005 126.175 115.005 125.61 115.07C125.032 115.178 124.436 115.151 123.87 114.99C123.353 114.777 122.902 114.432 122.56 113.99C122.267 113.618 121.932 113.283 121.56 112.99C120.988 112.582 120.334 112.301 119.644 112.169C118.954 112.036 118.243 112.053 117.56 112.22C117.063 112.367 116.58 112.561 116.12 112.8C116.12 112.8 116.21 112.69 116.43 112.53C116.764 112.311 117.128 112.143 117.51 112.03C118.223 111.817 118.974 111.765 119.71 111.88C120.445 111.994 121.145 112.271 121.76 112.69C122.57 113.21 123.06 114.23 123.97 114.54C124.88 114.85 126.07 114.36 127.33 114.54C128.684 114.681 129.972 115.195 131.051 116.025C132.13 116.854 132.957 117.968 133.44 119.24C133.487 119.35 133.527 119.464 133.56 119.58L133.2 119.43C134.088 119.043 135.069 118.922 136.024 119.082C136.979 119.241 137.867 119.675 138.58 120.33C139.8 121.486 140.632 122.992 140.96 124.64L140.77 124.47C142.106 124.626 143.363 125.188 144.37 126.08C145.136 126.755 145.726 127.606 146.09 128.56C146.323 129.164 146.459 129.803 146.49 130.45C146.514 130.677 146.501 130.907 146.45 131.13Z" fill="#455A64"/>
<path d="M131.23 121.821C131.006 121.95 130.757 122.031 130.5 122.061C129.815 122.195 129.115 122.232 128.42 122.171C127.251 122.075 126.115 121.738 125.083 121.183C124.05 120.627 123.144 119.864 122.42 118.941L122.74 119.021L122.45 119.151C121.203 119.665 119.83 119.79 118.51 119.511C117.439 119.278 116.447 118.772 115.63 118.041C115.084 117.56 114.63 116.984 114.29 116.341C114.145 116.114 114.053 115.858 114.02 115.591C114.527 116.401 115.15 117.132 115.87 117.761C116.664 118.392 117.602 118.818 118.6 119.001C119.823 119.237 121.089 119.109 122.24 118.631L122.51 118.511L122.7 118.421L122.83 118.581C124.218 120.339 126.239 121.484 128.46 121.771C129.381 121.859 130.307 121.876 131.23 121.821Z" fill="#455A64"/>
<path d="M126.27 116.611C126.27 116.761 124.98 116.611 123.48 117.001C121.98 117.391 120.88 118.001 120.79 117.861C121.461 117.12 122.37 116.638 123.36 116.501C124.312 116.19 125.344 116.229 126.27 116.611Z" fill="#455A64"/>
<path d="M122.94 116.32C122.82 116.41 122.37 116.04 121.8 115.63C121.23 115.22 120.74 114.91 120.8 114.77C120.86 114.63 121.48 114.77 122.11 115.21C122.74 115.65 123.05 116.24 122.94 116.32Z" fill="#455A64"/>
<path d="M136.62 121.441C136.57 121.581 135.45 121.221 134.05 121.271C132.65 121.321 131.55 121.721 131.49 121.581C132.24 121.064 133.124 120.776 134.034 120.751C134.945 120.726 135.843 120.966 136.62 121.441Z" fill="#455A64"/>
<path d="M139.06 126.161C137.848 126.331 136.613 126.165 135.49 125.681C134.307 125.361 133.236 124.717 132.4 123.821C132.49 123.691 133.83 124.561 135.66 125.191C137.49 125.821 139.07 126.001 139.06 126.161Z" fill="#455A64"/>
<path d="M145.08 129.53C144.347 129.042 143.578 128.611 142.78 128.24C141.93 128.022 141.064 127.871 140.19 127.79C140.621 127.58 141.095 127.471 141.575 127.471C142.055 127.471 142.529 127.58 142.96 127.79C144.48 128.29 145.2 129.47 145.08 129.53Z" fill="#455A64"/>
<path d="M144.9 116.881C144.9 116.881 144.76 116.581 144.45 116.111C143.982 115.465 143.374 114.935 142.67 114.561C140.28 113.393 137.65 112.801 134.99 112.831C132.319 112.835 129.659 113.171 127.07 113.831C125.07 114.331 123.85 114.711 123.83 114.641C124.084 114.475 124.36 114.347 124.65 114.261C125.19 114.051 125.98 113.771 126.97 113.481C129.563 112.686 132.258 112.275 134.97 112.261C137.716 112.218 140.426 112.883 142.84 114.191C143.573 114.615 144.18 115.226 144.6 115.961C144.792 116.229 144.897 116.551 144.9 116.881Z" fill="#455A64"/>
<path d="M145.62 121.65C145.248 120.782 144.793 119.951 144.26 119.17C142.851 117.378 140.907 116.082 138.71 115.47C136.494 114.908 134.197 114.732 131.92 114.95C130.968 115.072 130.01 115.139 129.05 115.15C129.967 114.846 130.917 114.655 131.88 114.58C134.217 114.249 136.595 114.381 138.88 114.97C141.184 115.608 143.197 117.021 144.58 118.97C144.987 119.562 145.301 120.213 145.51 120.9C145.594 121.141 145.632 121.396 145.62 121.65Z" fill="#455A64"/>
<path d="M112.63 125.33C111.967 125.114 111.394 124.685 111 124.11C110.453 123.462 110.072 122.691 109.888 121.863C109.704 121.035 109.724 120.175 109.945 119.356C110.166 118.537 110.582 117.784 111.158 117.162C111.733 116.539 112.451 116.065 113.25 115.78C113.874 115.49 114.575 115.405 115.25 115.54C114.611 115.691 113.983 115.885 113.37 116.12C112.654 116.421 112.017 116.88 111.506 117.465C110.994 118.049 110.624 118.742 110.421 119.492C110.218 120.241 110.19 121.027 110.337 121.789C110.484 122.551 110.803 123.27 111.27 123.89C111.69 124.4 112.145 124.881 112.63 125.33Z" fill="#455A64"/>
<path d="M148.57 139.16C148.57 139.08 149.44 138.66 150.75 137.78C151.508 137.283 152.15 136.628 152.63 135.86C152.919 135.407 153.1 134.893 153.157 134.359C153.214 133.825 153.147 133.284 152.96 132.78C152.775 132.271 152.49 131.804 152.123 131.405C151.756 131.007 151.313 130.686 150.82 130.46C149.996 130.103 149.086 129.992 148.2 130.14C147.372 130.319 146.571 130.608 145.82 131C145.82 131 145.97 130.79 146.34 130.53C146.884 130.169 147.492 129.915 148.13 129.78C149.088 129.567 150.087 129.644 151 130C151.559 130.243 152.063 130.597 152.481 131.04C152.898 131.484 153.222 132.008 153.43 132.58C153.641 133.157 153.713 133.774 153.642 134.384C153.571 134.993 153.358 135.578 153.02 136.09C152.49 136.911 151.774 137.596 150.93 138.09C150.385 138.423 149.813 138.711 149.22 138.95C149.018 139.06 148.798 139.131 148.57 139.16Z" fill="#263238"/>
<path d="M149 139.23C149.157 139.472 149.278 139.735 149.36 140.01C149.635 140.743 149.869 141.491 150.06 142.25C150.352 143.386 150.474 144.559 150.42 145.73C150.359 147.201 149.865 148.62 149 149.81C148.551 150.402 147.984 150.894 147.335 151.255C146.686 151.616 145.969 151.84 145.23 151.91C144.622 151.964 144.011 151.873 143.445 151.643C142.88 151.414 142.378 151.053 141.98 150.59C141.427 149.987 141.105 149.208 141.07 148.39C141.031 148.094 141.087 147.793 141.23 147.53C141.23 147.53 141.23 147.85 141.23 148.38C141.376 149.291 141.861 150.112 142.589 150.678C143.316 151.244 144.232 151.513 145.15 151.43C145.818 151.352 146.463 151.14 147.048 150.807C147.632 150.474 148.143 150.026 148.55 149.49C149.348 148.38 149.816 147.066 149.9 145.7C149.972 144.571 149.891 143.438 149.66 142.33C149.29 140.42 148.89 139.26 149 139.23Z" fill="#263238"/>
<path d="M106.58 168.32C106.58 168.32 100.38 172.22 99.6501 181.91C98.9201 191.6 96.7901 211.84 96.7901 211.84L73.1401 217.62L75.7701 231.81L114.77 220.93L106.58 168.32Z" fill="#FF8300"/>
<path d="M156.19 164.78C154.01 163.85 140.44 161.37 140.44 161.37L139.77 154.11L121 155.73L120.35 163.57L106.61 168.32L106.29 182.91L109.58 230.65L147.81 234.05C148.557 234.118 149.31 234.027 150.019 233.784C150.729 233.541 151.379 233.151 151.927 232.64C152.475 232.128 152.91 231.506 153.201 230.816C153.493 230.125 153.636 229.38 153.62 228.63L152.79 186.31C152.79 186.31 158.38 165.72 156.19 164.78Z" fill="#FF8300"/>
<path d="M156.19 164.78C156.19 164.78 163.98 167.78 164.65 179.52C165.08 187.26 167.8 200.47 169.65 208.59C170.65 213.15 170.4 218.27 167.88 222.21C164.23 226.45 159.25 230.14 152.83 230.65H136.68L129.68 219.52L148.25 214.1L152.66 187.32L156.19 164.78Z" fill="#FF8300"/>
<path d="M159.55 220.52C159.442 220.099 159.361 219.672 159.31 219.24C159.101 218.077 158.765 216.941 158.31 215.85C157.65 214.246 156.551 212.86 155.14 211.85C154.313 211.267 153.367 210.874 152.37 210.7C151.286 210.566 150.186 210.62 149.12 210.86C145.294 211.678 141.518 212.713 137.81 213.96L134.44 215.1C134.031 215.258 133.61 215.382 133.18 215.47C133.563 215.256 133.964 215.079 134.38 214.94L137.71 213.66C141.403 212.315 145.185 211.232 149.03 210.42C150.149 210.172 151.303 210.121 152.44 210.27C153.502 210.454 154.508 210.878 155.38 211.51C156.843 212.576 157.963 214.046 158.6 215.74C159.038 216.858 159.327 218.028 159.46 219.22C159.538 219.649 159.568 220.085 159.55 220.52Z" fill="#263238"/>
<path d="M149.07 187.36C149.154 187.643 149.201 187.936 149.21 188.23C149.27 188.79 149.32 189.6 149.38 190.61C149.47 192.73 149.59 195.45 149.73 198.45C149.849 201.06 150.14 203.659 150.6 206.23C150.98 208.23 151.38 209.37 151.3 209.4C151.149 209.146 151.032 208.874 150.95 208.59C150.85 208.33 150.75 208 150.64 207.59C150.53 207.18 150.4 206.77 150.29 206.27C149.732 203.701 149.397 201.088 149.29 198.46C149.12 195.39 149.1 192.61 149.07 190.6C149.07 189.67 149.07 188.88 149.07 188.22C149.036 187.935 149.036 187.646 149.07 187.36Z" fill="#263238"/>
<path d="M165.59 224.641C165.327 224.963 165.032 225.258 164.71 225.521C163.852 226.26 162.936 226.929 161.97 227.521C158.744 229.474 155.094 230.619 151.33 230.861C149.265 230.994 147.192 230.839 145.17 230.401C143.29 230.001 141.71 229.331 140.34 229.011C139.244 228.772 138.13 228.618 137.01 228.551C136.593 228.528 136.182 228.444 135.79 228.301C136.204 228.301 136.618 228.324 137.03 228.371C138.164 228.38 139.295 228.49 140.41 228.701C141.83 228.991 143.41 229.631 145.25 229.991C147.238 230.405 149.274 230.546 151.3 230.411C154.998 230.171 158.593 229.091 161.81 227.251C163.116 226.449 164.378 225.578 165.59 224.641Z" fill="#263238"/>
<path d="M109.84 177.45C109.937 177.822 109.981 178.206 109.97 178.59C109.994 179.63 109.937 180.669 109.8 181.7C109.63 183 109.33 184.54 108.95 186.22C108.57 187.9 108.16 189.76 107.95 191.72C107.697 193.552 107.744 195.413 108.09 197.23C108.394 198.705 109 200.101 109.87 201.33C110.703 202.45 111.767 203.377 112.99 204.05C112.889 204.043 112.79 204.016 112.7 203.97C112.431 203.874 112.171 203.757 111.92 203.62C111.006 203.095 110.206 202.391 109.57 201.55C108.608 200.307 107.925 198.871 107.57 197.34C107.189 195.471 107.124 193.551 107.38 191.66C107.642 189.796 108.003 187.947 108.46 186.12C108.86 184.44 109.2 182.93 109.46 181.64C109.87 179.08 109.75 177.45 109.84 177.45Z" fill="#263238"/>
<path d="M152.47 164C152.47 164.08 151.71 164.51 150.63 165.47C149.221 166.713 148.116 168.263 147.4 170C146.703 171.738 146.405 173.611 146.53 175.48C146.63 176.92 146.9 177.79 146.81 177.82C146.437 177.107 146.219 176.323 146.17 175.52C145.92 173.581 146.179 171.61 146.92 169.801C147.662 167.991 148.861 166.406 150.4 165.2C150.997 164.658 151.703 164.249 152.47 164Z" fill="#263238"/>
<path d="M123 164.191C122.606 162.833 122.423 161.423 122.46 160.011C122.322 158.606 122.406 157.189 122.71 155.811C122.931 157.196 123.028 158.598 123 160.001C123.132 161.394 123.132 162.797 123 164.191Z" fill="#263238"/>
<path d="M128.4 163.55C127.908 162.27 127.624 160.92 127.56 159.55C127.339 158.182 127.339 156.788 127.56 155.42C127.868 156.757 128.053 158.119 128.11 159.49C128.324 160.832 128.421 162.191 128.4 163.55Z" fill="#263238"/>
<path d="M134.21 163.14C133.709 161.752 133.422 160.295 133.36 158.82C133.138 157.359 133.138 155.872 133.36 154.41C133.663 155.842 133.844 157.297 133.9 158.76C134.124 160.209 134.227 161.674 134.21 163.14Z" fill="#263238"/>
<path d="M139.78 202.251C139.78 202.251 139.58 202.421 139.16 202.601C138.571 202.857 137.953 203.041 137.32 203.151C135.202 203.556 133.01 203.274 131.062 202.348C129.115 201.422 127.513 199.899 126.49 198.001C126.177 197.435 125.932 196.834 125.76 196.211C125.673 195.988 125.632 195.75 125.64 195.511C125.73 195.511 125.98 196.461 126.81 197.811C127.867 199.58 129.422 200.998 131.281 201.888C133.14 202.777 135.22 203.098 137.26 202.811C138.83 202.591 139.75 202.171 139.78 202.251Z" fill="#263238"/>
<path d="M147.27 168.761L146.84 168.591L145.63 168.091C144.153 167.461 142.644 166.907 141.11 166.431C138.852 165.707 136.473 165.438 134.11 165.641C131.226 166.06 128.43 166.945 125.83 168.261C123.235 169.585 120.564 170.753 117.83 171.761C115.563 172.57 113.145 172.867 110.75 172.631C109.135 172.461 107.579 171.928 106.2 171.071C105.698 170.756 105.238 170.38 104.83 169.951C104.83 169.951 104.96 170.041 105.19 170.241C105.52 170.525 105.875 170.78 106.25 171.001C107.628 171.824 109.172 172.33 110.77 172.481C113.141 172.694 115.53 172.387 117.77 171.581C120.504 170.569 123.175 169.397 125.77 168.071C128.389 166.741 131.211 165.855 134.12 165.451C136.516 165.246 138.928 165.532 141.21 166.291C142.746 166.778 144.252 167.356 145.72 168.021L146.92 168.561C147.13 168.681 147.27 168.761 147.27 168.761Z" fill="#FAFAFA"/>
<path d="M164.18 174L164.01 174.09L163.52 174.31C162.917 174.572 162.3 174.799 161.67 174.99C159.596 175.651 157.437 176.011 155.26 176.06C153.085 176.105 150.914 175.846 148.81 175.29C148.172 175.128 147.544 174.927 146.93 174.69L146.43 174.49C146.369 174.475 146.311 174.448 146.26 174.41C146.32 174.401 146.381 174.401 146.44 174.41L146.95 174.57C147.39 174.72 148.04 174.91 148.84 175.11C150.941 175.617 153.099 175.852 155.26 175.81C157.418 175.759 159.56 175.423 161.63 174.81C162.43 174.58 163.06 174.36 163.49 174.19L164 174C164.11 174 164.17 174 164.18 174Z" fill="#FAFAFA"/>
<path d="M165.18 187.93C164.952 187.929 164.724 187.906 164.5 187.86C163.883 187.78 163.262 187.733 162.64 187.72C158.496 187.611 154.441 188.935 151.16 191.47C150.666 191.845 150.195 192.249 149.75 192.68C149.595 192.852 149.42 193.007 149.23 193.14C149.23 193.14 149.39 192.95 149.69 192.63C150.122 192.174 150.583 191.747 151.07 191.35C152.694 190.052 154.536 189.053 156.51 188.4C158.487 187.759 160.563 187.477 162.64 187.57C163.268 187.594 163.893 187.664 164.51 187.78C164.737 187.811 164.961 187.861 165.18 187.93Z" fill="#FAFAFA"/>
<path d="M169.73 212.58C169.729 212.312 169.702 212.044 169.65 211.78C169.444 211.072 169.012 210.45 168.42 210.01C167.546 209.378 166.499 209.029 165.42 209.01C164.19 208.95 162.82 209.1 161.42 209.01C158.956 208.952 156.51 208.562 154.15 207.85C153.438 207.639 152.737 207.392 152.05 207.11L151.49 206.87C151.424 206.847 151.361 206.816 151.3 206.78L151.5 206.83L152.07 207.04C152.57 207.21 153.29 207.46 154.19 207.71C156.546 208.373 158.974 208.739 161.42 208.8C162.85 208.8 164.22 208.7 165.42 208.8C166.549 208.807 167.646 209.175 168.55 209.85C169.155 210.315 169.584 210.971 169.77 211.71C169.823 212 169.81 212.297 169.73 212.58Z" fill="#FAFAFA"/>
<path d="M152.7 230.14C152.7 230.14 152.76 229.84 152.86 229.31C153.01 228.552 153.104 227.783 153.14 227.01C153.287 224.465 152.838 221.921 151.83 219.58C150.791 217.257 149.231 215.203 147.27 213.58C146.673 213.09 146.045 212.639 145.39 212.23C145.14 212.096 144.9 211.946 144.67 211.78C145.634 212.229 146.537 212.797 147.36 213.47C149.379 215.069 150.975 217.139 152.008 219.497C153.042 221.856 153.482 224.432 153.29 227C153.233 228.068 153.034 229.124 152.7 230.14Z" fill="#FAFAFA"/>
<path d="M147.76 188.86C147.76 188.86 147.54 188.31 146.95 187.44C146.082 186.239 144.927 185.273 143.59 184.63C141.605 183.682 139.419 183.233 137.22 183.32C134.533 183.52 131.89 184.12 129.38 185.1C126.68 186.1 124.13 187.1 121.7 187.69C119.556 188.255 117.331 188.455 115.12 188.28C113.626 188.152 112.172 187.731 110.84 187.04C110.491 186.849 110.157 186.632 109.84 186.39L109.51 186.14C109.51 186.14 109.98 186.49 110.91 186.97C112.241 187.622 113.683 188.016 115.16 188.13C117.357 188.284 119.564 188.071 121.69 187.5C124.09 186.9 126.63 185.86 129.34 184.9C131.869 183.916 134.533 183.319 137.24 183.13C139.467 183.048 141.68 183.519 143.68 184.5C145.033 185.163 146.193 186.161 147.05 187.4C147.276 187.739 147.47 188.097 147.63 188.47C147.71 188.72 147.76 188.86 147.76 188.86Z" fill="#FAFAFA"/>
<path d="M112.19 203.61C112.19 203.61 111.9 203.87 111.48 204.07C111.06 204.27 110.71 204.41 110.68 204.36C110.65 204.31 110.97 204.1 111.39 203.89C111.81 203.68 112.17 203.55 112.19 203.61Z" fill="#FAFAFA"/>
<path d="M135.28 203.7C134.294 204.037 133.262 204.226 132.22 204.26C129.704 204.306 127.191 204.064 124.73 203.54C122.282 203.031 119.771 202.89 117.28 203.12C116.529 203.213 115.788 203.38 115.07 203.62C114.56 203.79 114.29 203.9 114.28 203.89C115.219 203.412 116.234 203.1 117.28 202.97C119.784 202.699 122.315 202.824 124.78 203.34C127.231 203.849 129.727 204.11 132.23 204.12C132.986 204.095 133.739 204.008 134.48 203.86C134.743 203.791 135.011 203.738 135.28 203.7Z" fill="#FAFAFA"/>
<path d="M149.66 202.8C149.66 202.8 149.01 202.5 147.92 202.13C146.493 201.656 145.003 201.396 143.5 201.36C141.997 201.334 140.5 201.539 139.06 201.97C137.96 202.3 137.31 202.61 137.29 202.58C137.429 202.48 137.58 202.4 137.74 202.34C138.152 202.136 138.58 201.965 139.02 201.83C140.467 201.351 141.986 201.121 143.51 201.15C145.043 201.184 146.56 201.471 148 202C148.431 202.16 148.852 202.347 149.26 202.56C149.402 202.625 149.536 202.705 149.66 202.8Z" fill="#FAFAFA"/>
<path d="M132.13 215.53C132.077 215.577 132.016 215.615 131.95 215.64L131.43 215.9C130.778 216.208 130.111 216.482 129.43 216.72C124.939 218.328 120.083 218.623 115.43 217.57C114.73 217.416 114.039 217.222 113.36 216.99L112.81 216.8L112.62 216.72C112.62 216.72 112.69 216.72 112.82 216.72L113.39 216.88C113.87 217.02 114.58 217.2 115.46 217.39C120.09 218.345 124.891 218.052 129.37 216.54C130.22 216.25 130.9 215.99 131.37 215.78L131.9 215.56L132.13 215.53Z" fill="#FAFAFA"/>
<path d="M109.61 183.86C109.61 183.86 109.09 183.6 108.21 183.3C105.909 182.541 103.404 182.691 101.21 183.72C100.37 184.12 99.9099 184.48 99.8799 184.45C99.9778 184.35 100.085 184.26 100.2 184.18C100.496 183.957 100.811 183.76 101.14 183.59C102.24 183.025 103.445 182.695 104.68 182.62C105.914 182.546 107.15 182.73 108.31 183.16C108.656 183.291 108.991 183.452 109.31 183.64C109.416 183.705 109.516 183.779 109.61 183.86Z" fill="#FAFAFA"/>
<g opacity="0.4">
<path d="M126.15 196.75C125.526 198.247 125.466 199.919 125.981 201.456C126.496 202.993 127.551 204.292 128.95 205.11C130.493 206.001 132.256 206.439 134.037 206.376C135.817 206.312 137.544 205.749 139.02 204.75C139.56 204.35 140.02 203.64 139.6 203.17C139.18 202.7 138.6 202.88 138.05 202.96C135.616 203.297 133.138 202.867 130.96 201.73C128.838 200.673 127.157 198.903 126.21 196.73" fill="black"/>
</g>
<path d="M103.41 225.881L126.18 225.471L113.49 231.531L103.41 225.881Z" fill="#263238"/>
<path d="M56.1803 193.08L65.0003 231.63C65.1603 232.33 65.5552 232.954 66.1192 233.398C66.6833 233.842 67.3825 234.079 68.1003 234.07L113.65 233.55L126.15 227.4L125.95 225.65L115.1 230.53L108.3 190.4C108.251 189.629 107.917 188.904 107.362 188.366C106.807 187.828 106.072 187.516 105.3 187.49L58.4603 190.08C58.1016 190.098 57.7511 190.193 57.4333 190.361C57.1156 190.528 56.8384 190.763 56.6211 191.049C56.4038 191.335 56.2517 191.665 56.1756 192.016C56.0994 192.367 56.101 192.73 56.1803 193.08Z" fill="#455A64"/>
<path d="M115.6 225.921C117.04 227.921 118.27 226.271 119.93 225.641C120.73 225.34 121.489 224.94 122.19 224.451L121.81 230.351L118.29 232.851C118.29 232.851 118.29 234.441 120.6 234.601C121.695 234.749 122.809 234.668 123.87 234.361L123.99 235.141C124.058 235.568 124.273 235.958 124.598 236.243C124.923 236.528 125.338 236.69 125.77 236.701C126.143 236.728 126.516 236.666 126.86 236.521C127.573 236.892 128.366 237.086 129.17 237.086C129.974 237.086 130.767 236.892 131.48 236.521C132.143 236.155 132.693 235.614 133.067 234.955C133.441 234.297 133.626 233.548 133.6 232.791L137.21 225.571L138.21 225.271C138.812 224.206 139.048 222.974 138.884 221.763C138.72 220.551 138.164 219.426 137.3 218.561C136.484 217.771 135.464 217.225 134.355 216.983C133.246 216.741 132.091 216.813 131.02 217.191L126.24 218.771C125.038 218.641 123.83 218.962 122.85 219.671C122.06 220.251 118.96 222.431 118.96 222.431L115.6 225.921Z" fill="#FFBE9D"/>
<path d="M126.4 229.12C126.47 229.12 126.54 229.5 126.62 230.12C126.762 230.934 126.762 231.766 126.62 232.58C126.525 233.056 126.3 233.495 125.97 233.85C125.697 234.139 125.351 234.349 124.97 234.46C124.3 234.63 123.91 234.35 123.97 234.31C124.03 234.27 124.37 234.38 124.9 234.16C125.239 234.008 125.535 233.775 125.763 233.483C125.992 233.19 126.145 232.846 126.21 232.48C126.337 231.704 126.38 230.916 126.34 230.13C126.31 229.51 126.34 229.13 126.4 229.12Z" fill="#EB996E"/>
<path d="M122.19 224.45C122.348 225.444 122.348 226.456 122.19 227.45C122.198 228.445 122.06 229.436 121.78 230.39C121.622 229.396 121.622 228.384 121.78 227.39C121.77 226.395 121.908 225.404 122.19 224.45Z" fill="#EB996E"/>
<path d="M130.39 230.53C130.553 230.891 130.631 231.284 130.62 231.68C130.73 232.651 130.549 233.633 130.1 234.5C129.58 235.333 128.794 235.967 127.87 236.3C127.515 236.482 127.119 236.568 126.72 236.55C126.72 236.48 127.12 236.33 127.72 236.01C128.537 235.629 129.23 235.026 129.72 234.27C130.12 233.47 130.319 232.585 130.3 231.69C130.271 231.301 130.302 230.91 130.39 230.53Z" fill="#EB996E"/>
<path d="M136.88 228C137.19 227.254 137.561 226.535 137.99 225.85C138.379 225.082 138.616 224.247 138.69 223.39C138.803 222.352 138.648 221.302 138.241 220.341C137.833 219.38 137.185 218.54 136.36 217.9C135.68 217.383 134.911 216.996 134.09 216.76C133.309 216.583 132.518 216.456 131.72 216.38C131.929 216.306 132.149 216.272 132.37 216.28C132.975 216.256 133.581 216.313 134.17 216.45C135.049 216.661 135.878 217.041 136.61 217.57C137.497 218.243 138.187 219.14 138.61 220.17C139.047 221.201 139.202 222.329 139.06 223.44C138.961 224.338 138.678 225.206 138.23 225.99C137.932 226.512 137.598 227.013 137.23 227.49C137.137 227.675 137.019 227.846 136.88 228Z" fill="#263238"/>
<path d="M85.6801 210.611C85.6801 211.117 85.5299 211.612 85.2486 212.033C84.9673 212.454 84.5675 212.782 84.0997 212.976C83.6319 213.17 83.1172 213.22 82.6206 213.122C82.124 213.023 81.6679 212.779 81.3099 212.421C80.9518 212.063 80.708 211.607 80.6093 211.11C80.5105 210.614 80.5612 210.099 80.7549 209.631C80.9487 209.163 81.2768 208.764 81.6978 208.482C82.1188 208.201 82.6137 208.051 83.1201 208.051C83.799 208.051 84.4502 208.32 84.9302 208.801C85.4103 209.281 85.6801 209.932 85.6801 210.611Z" fill="#FAFAFA"/>
<path d="M136.79 126.5C135.6 128.56 136.27 131.18 137.25 133.35C138.23 135.52 139.5 137.69 139.45 140.06C139.38 144.06 135.63 147.36 135.9 151.34C136.009 152.522 136.467 153.645 137.214 154.567C137.962 155.489 138.966 156.169 140.1 156.52C138.29 155.15 138.28 152.37 139.1 150.27C139.92 148.17 143.73 142.69 144.36 140.51C146.47 133.19 145.8 132.28 143.36 129.51" fill="#263238"/>
<path d="M143.64 132.19C143.191 132.329 142.71 132.329 142.26 132.19C141.148 131.952 140.132 131.388 139.341 130.571C138.551 129.753 138.021 128.719 137.82 127.6C137.67 126.74 137.82 126.21 137.82 126.22C137.964 126.644 138.074 127.079 138.15 127.52C138.431 128.533 138.962 129.46 139.694 130.214C140.426 130.969 141.336 131.528 142.34 131.84C142.782 131.924 143.216 132.041 143.64 132.19Z" fill="#455A64"/>
<path d="M139.31 154.11C139.31 154.11 139.21 154.06 139.06 153.92C138.833 153.721 138.635 153.492 138.47 153.24C137.841 152.301 137.548 151.177 137.64 150.05C137.689 149.267 137.929 148.508 138.34 147.84C138.836 147.096 139.432 146.423 140.11 145.84C140.811 145.237 141.397 144.512 141.84 143.7C142.283 142.818 142.519 141.847 142.53 140.86C142.547 139.875 142.323 138.9 141.88 138.02C141.435 137.196 140.924 136.41 140.35 135.67C139.324 134.399 138.492 132.984 137.88 131.47C137.479 130.436 137.269 129.339 137.26 128.23C137.232 127.827 137.287 127.422 137.42 127.04C137.394 128.51 137.669 129.97 138.23 131.33C138.869 132.791 139.711 134.154 140.73 135.38C141.335 136.133 141.87 136.94 142.33 137.79C142.819 138.742 143.066 139.8 143.05 140.87C143.042 141.936 142.782 142.985 142.29 143.93C141.817 144.791 141.19 145.557 140.44 146.19C139.787 146.723 139.205 147.338 138.71 148.02C138.319 148.621 138.079 149.307 138.01 150.02C137.905 151.061 138.125 152.109 138.64 153.02C139 153.78 139.35 154.07 139.31 154.11Z" fill="#455A64"/>
<path d="M144.53 132C144.53 132 144.75 132.14 145.05 132.49C145.471 132.997 145.808 133.567 146.05 134.18C146.777 136.24 146.745 138.492 145.96 140.53C145.161 142.524 143.963 144.335 142.44 145.85C141.858 146.52 141.184 147.106 140.44 147.59C140.966 146.89 141.534 146.222 142.14 145.59C143.541 144.048 144.658 142.271 145.44 140.34C146.167 138.418 146.248 136.312 145.67 134.34C145.361 133.527 144.979 132.744 144.53 132Z" fill="#455A64"/>
<path d="M113.63 233.551C113.598 233.474 113.578 233.393 113.57 233.311L113.45 232.611C113.35 231.951 113.21 231.051 113.04 229.911C112.67 227.521 112.16 224.131 111.53 219.971C110.9 215.811 110.09 210.781 109.11 205.261C108.61 202.501 108.11 199.601 107.44 196.621C107.13 195.131 106.77 193.621 106.44 192.091C106.267 191.355 105.925 190.67 105.44 190.091C104.91 189.547 104.197 189.219 103.44 189.171C102.655 189.101 101.865 189.101 101.08 189.171L98.6999 189.321L94.0499 189.631L85.2599 190.191L70.3699 191.121L60.3699 191.691L57.6399 191.821H56.9299H56.6899C56.6899 191.821 56.7699 191.821 56.9299 191.771L57.6299 191.701L60.3599 191.471L70.3599 190.731L85.2399 189.731L94.0299 189.141L98.6799 188.831L101.06 188.671C101.878 188.595 102.702 188.595 103.52 188.671C104.389 188.748 105.202 189.135 105.81 189.761C106.345 190.407 106.719 191.171 106.9 191.991C107.29 193.531 107.64 194.991 107.9 196.541C108.53 199.541 109.05 202.441 109.54 205.201C110.54 210.741 111.25 215.741 111.85 219.941C112.45 224.141 112.85 227.551 113.2 229.941C113.33 231.091 113.44 231.991 113.51 232.661C113.51 232.941 113.51 233.181 113.58 233.371C113.602 233.429 113.619 233.489 113.63 233.551Z" fill="#263238"/>
<path d="M399.25 177.21C399.25 177.21 399.25 177.05 399.33 176.76C399.41 176.47 399.48 176.02 399.6 175.46C399.86 174.3 400.23 172.63 400.7 170.46C401.7 166.11 403.1 159.86 404.85 152.13C408.41 136.64 413.32 115.24 418.76 91.54L419 90.5L419.25 91.57C419.34 91.99 419.45 92.45 419.55 92.91L433.41 154.47C435.15 162.33 436.57 168.7 437.55 173.13C438.03 175.32 438.4 177.03 438.65 178.21C438.77 178.78 438.86 179.21 438.93 179.54C438.962 179.689 438.985 179.839 439 179.99C439 179.99 438.95 179.84 438.88 179.55C438.81 179.26 438.69 178.8 438.56 178.23C438.28 177.06 437.88 175.35 437.36 173.17L433.06 154.54C429.48 138.78 424.53 117.04 419.06 93.02C418.96 92.56 418.85 92.1 418.76 91.68H419.25C413.75 115.36 408.79 136.74 405.19 152.23C403.38 159.94 401.91 166.23 400.89 170.52C400.38 172.66 399.98 174.33 399.7 175.52C399.56 176.06 399.45 176.52 399.38 176.8C399.31 177.08 399.25 177.21 399.25 177.21Z" fill="#263238"/>
<path d="M399.24 195.2V180H439.82V195.2C439.82 197.526 439.362 199.829 438.472 201.977C437.582 204.126 436.277 206.078 434.633 207.723C432.988 209.367 431.036 210.672 428.887 211.562C426.738 212.452 424.435 212.91 422.11 212.91H417C414.67 212.917 412.362 212.463 410.207 211.576C408.053 210.689 406.094 209.386 404.445 207.741C402.795 206.095 401.486 204.141 400.593 201.989C399.699 199.837 399.24 197.53 399.24 195.2Z" fill="#455A64"/>
<path d="M399.24 180C399.409 180.202 399.562 180.416 399.7 180.64L400.94 182.52C402.02 184.21 403.54 186.59 405.41 189.52L420 212.61L420.11 212.78H419.68L433.84 189.53C435.65 186.61 437.12 184.22 438.17 182.53L439.37 180.64C439.498 180.412 439.648 180.198 439.82 180C439.718 180.239 439.598 180.47 439.46 180.69L438.34 182.64C437.34 184.35 435.89 186.76 434.14 189.73L420.14 213.05L419.93 213.4L419.71 213.05L419.61 212.89C413.97 203.89 408.87 195.66 405.14 189.69L400.8 182.63L399.64 180.69C399.481 180.476 399.347 180.244 399.24 180Z" fill="#263238"/>
<path d="M423.56 91.43C423.56 92.3062 423.3 93.1627 422.813 93.8912C422.326 94.6197 421.634 95.1875 420.825 95.5228C420.016 95.8581 419.125 95.9458 418.265 95.7749C417.406 95.6039 416.617 95.182 415.997 94.5625C415.378 93.9429 414.956 93.1536 414.785 92.2943C414.614 91.4349 414.702 90.5442 415.037 89.7347C415.372 88.9252 415.94 88.2334 416.669 87.7466C417.397 87.2598 418.254 87 419.13 87C420.305 87 421.431 87.4667 422.262 88.2975C423.093 89.1283 423.56 90.2551 423.56 91.43Z" fill="#263238"/>
<path d="M419.13 16C419.27 16 419.38 33.07 419.38 54.12C419.38 75.17 419.27 92.25 419.13 92.25C418.99 92.25 418.88 75.18 418.88 54.12C418.88 33.06 419 16 419.13 16Z" fill="#263238"/>
<path d="M421.43 214.56C421.43 214.936 421.318 215.303 421.11 215.616C420.901 215.928 420.604 216.172 420.257 216.316C419.91 216.459 419.528 216.497 419.159 216.424C418.791 216.35 418.452 216.169 418.186 215.904C417.921 215.638 417.74 215.299 417.666 214.931C417.593 214.562 417.631 214.18 417.775 213.833C417.918 213.486 418.162 213.189 418.474 212.98C418.787 212.772 419.154 212.66 419.53 212.66C420.034 212.66 420.517 212.86 420.873 213.217C421.23 213.573 421.43 214.056 421.43 214.56Z" fill="#263238"/>
<path d="M418.69 215.27L418.99 215.12C418.455 215.464 418.005 215.926 417.674 216.47C417.343 217.014 417.14 217.626 417.08 218.26C416.971 219.525 417.08 220.8 417.4 222.03C417.49 222.43 417.69 222.92 418.1 222.9C418.51 222.88 418.63 222.44 418.7 222.08C418.821 221.329 418.838 220.565 418.75 219.81C418.708 220.78 419.021 221.733 419.63 222.49C419.75 222.64 419.92 222.79 420.1 222.74C420.28 222.69 420.35 222.5 420.4 222.32C420.568 221.683 420.662 221.028 420.68 220.37C420.725 220.947 420.937 221.5 421.29 221.96C421.381 222.068 421.493 222.156 421.619 222.22C421.745 222.284 421.883 222.321 422.024 222.331C422.165 222.34 422.306 222.321 422.439 222.274C422.573 222.228 422.695 222.155 422.8 222.06C422.999 221.745 423.071 221.365 423 221C422.678 218.726 421.764 216.578 420.35 214.77" fill="#263238"/>
<path d="M401.79 180C401.79 180 383.56 159 385.59 158.23C387.62 157.46 403.82 169.11 403.82 169.11C403.82 169.11 389.89 138 392.68 135.68C395.47 133.36 410.15 163.28 410.15 163.28C410.15 163.28 407.87 119.73 410.15 119.22C412.43 118.71 420.78 162.77 420.78 162.77C420.78 162.77 433.19 122.51 436.78 122.51C440.37 122.51 432.98 161.25 432.98 161.25C432.98 161.25 447.66 136.44 449.98 139.73C452.3 143.02 439.6 169.86 439.6 169.86C439.6 169.86 458.09 154.42 458.85 156.44C459.61 158.46 438.85 179.99 438.85 179.99L401.79 180Z" fill="#2CCC54"/>
<path d="M399.25 148.34C399.38 148.28 402.61 155.22 406.47 163.82C410.33 172.42 413.36 179.46 413.24 179.51C413.12 179.56 409.88 172.64 406 164C402.12 155.36 399.12 148.4 399.25 148.34Z" fill="#263238"/>
<path d="M414 152.21C414.14 152.21 414.67 158.31 415.2 165.86C415.73 173.41 416.04 179.53 415.9 179.54C415.76 179.55 415.22 173.44 414.7 165.89C414.18 158.34 413.84 152.22 414 152.21Z" fill="#263238"/>
<path d="M434.29 132.71C434.279 132.877 434.245 133.042 434.19 133.2C434.08 133.57 433.95 134.03 433.79 134.59C433.4 135.86 432.89 137.59 432.26 139.66C430.97 143.94 429.26 149.88 427.49 156.47C425.72 163.06 424.27 169.07 423.25 173.42C422.76 175.55 422.35 177.29 422.05 178.58C421.91 179.14 421.8 179.58 421.7 179.98C421.676 180.147 421.625 180.309 421.55 180.46C421.542 180.292 421.559 180.123 421.6 179.96C421.67 179.58 421.75 179.11 421.86 178.54C422.08 177.31 422.44 175.54 422.91 173.34C423.84 168.97 425.24 162.94 427 156.34C428.76 149.74 430.55 143.82 431.92 139.56C432.61 137.42 433.18 135.71 433.6 134.56L434.09 133.2C434.138 133.03 434.205 132.865 434.29 132.71Z" fill="#263238"/>
<path d="M443.08 155.16C443.19 155.24 439.63 160.54 435.13 167.01C430.63 173.48 426.88 178.65 426.77 178.57C426.66 178.49 430.22 173.19 434.77 166.72C439.32 160.25 443 155.08 443.08 155.16Z" fill="#263238"/>
<path d="M408 179.55C407.416 179.245 406.878 178.862 406.4 178.41C405.189 177.4 404.031 176.328 402.93 175.2C401.827 174.076 400.789 172.891 399.82 171.65C399.376 171.166 399.005 170.621 398.72 170.03C398.83 169.94 400.72 172.24 403.29 174.85C405.86 177.46 408 179.43 408 179.55Z" fill="#263238"/>
<path d="M419 171.2C419.384 172.613 419.602 174.067 419.65 175.53C419.861 176.98 419.908 178.45 419.79 179.91C419.421 178.494 419.206 177.042 419.15 175.58C418.933 174.131 418.883 172.661 419 171.2Z" fill="#263238"/>
<path d="M439.82 189.47C439.306 189.619 438.781 189.726 438.25 189.79C437.25 189.97 435.76 190.2 433.94 190.46C429.184 191.127 424.398 191.551 419.6 191.73C414.795 191.91 409.983 191.709 405.21 191.13C403.38 190.89 401.91 190.65 400.9 190.44C400.371 190.355 399.85 190.232 399.34 190.07C399.874 190.081 400.406 190.138 400.93 190.24C401.93 190.4 403.42 190.59 405.25 190.78C410.011 191.254 414.798 191.404 419.58 191.23C425.19 191.04 430.24 190.52 433.9 190.1L438.22 189.6C438.748 189.507 439.284 189.464 439.82 189.47Z" fill="white"/>
<path d="M439.82 194C439.305 194.142 438.78 194.249 438.25 194.32C437.25 194.5 435.76 194.73 433.94 194.98C429.185 195.65 424.399 196.077 419.6 196.26C414.795 196.439 409.983 196.239 405.21 195.66C403.38 195.42 401.91 195.18 400.9 194.96C400.369 194.887 399.847 194.763 399.34 194.59C399.873 194.614 400.404 194.674 400.93 194.77C401.93 194.93 403.42 195.12 405.25 195.31C410.011 195.778 414.798 195.928 419.58 195.76C425.19 195.56 430.24 195.05 433.9 194.63L438.22 194.13C438.748 194.037 439.284 193.993 439.82 194Z" fill="white"/>
</svg>
