<svg width="1484" height="348" viewBox="0 0 1484 348" fill="none" xmlns="http://www.w3.org/2000/svg">
<path d="M48.5791 1.41455L0 348H74.3558L104.098 135.593L48.5791 1.41455Z" fill="#13599E"/>
<path d="M235.956 134.39L201.256 348H281.56L312.507 133.683L276.391 106.805L235.956 134.39Z" fill="#13599E"/>
<path d="M128.883 1.41455H48.5791L104.098 135.593L201.256 348H281.56L128.883 1.41455Z" fill="#1976D2"/>
<path d="M277.099 0L291.476 43.4975H338L300.361 70.3805L314.738 113.878L277.099 86.9951L239.46 113.878L253.837 70.3805L216.198 43.4975H262.722L277.099 0Z" fill="#145EA8"/>
<path d="M537.68 105.92V130.78H496.76V259.48H465.96V130.78H425.04V105.92H537.68Z" fill="#222222"/>
<path d="M614.273 261.46C602.539 261.46 591.979 258.893 582.593 253.76C573.206 248.48 565.799 241.073 560.373 231.54C555.093 222.007 552.453 211.007 552.453 198.54C552.453 186.073 555.166 175.073 560.593 165.54C566.166 156.007 573.719 148.673 583.253 143.54C592.786 138.26 603.419 135.62 615.153 135.62C626.886 135.62 637.519 138.26 647.053 143.54C656.586 148.673 664.066 156.007 669.493 165.54C675.066 175.073 677.853 186.073 677.853 198.54C677.853 211.007 674.993 222.007 669.273 231.54C663.699 241.073 656.073 248.48 646.393 253.76C636.859 258.893 626.153 261.46 614.273 261.46ZM614.273 234.62C619.846 234.62 625.053 233.3 629.893 230.66C634.879 227.873 638.839 223.767 641.773 218.34C644.706 212.913 646.173 206.313 646.173 198.54C646.173 186.953 643.093 178.08 636.933 171.92C630.919 165.613 623.513 162.46 614.713 162.46C605.913 162.46 598.506 165.613 592.493 171.92C586.626 178.08 583.693 186.953 583.693 198.54C583.693 210.127 586.553 219.073 592.273 225.38C598.139 231.54 605.473 234.62 614.273 234.62Z" fill="#222222"/>
<path d="M772.606 259.48L731.246 207.56V259.48H700.446V96.68H731.246V189.3L772.166 137.6H812.206L758.526 198.76L812.646 259.48H772.606Z" fill="#222222"/>
<path d="M883.042 261.46C871.309 261.46 860.749 258.893 851.362 253.76C841.975 248.48 834.569 241.073 829.142 231.54C823.862 222.007 821.222 211.007 821.222 198.54C821.222 186.073 823.935 175.073 829.362 165.54C834.935 156.007 842.489 148.673 852.022 143.54C861.555 138.26 872.189 135.62 883.922 135.62C895.656 135.62 906.289 138.26 915.822 143.54C925.355 148.673 932.835 156.007 938.262 165.54C943.835 175.073 946.622 186.073 946.622 198.54C946.622 211.007 943.762 222.007 938.042 231.54C932.469 241.073 924.842 248.48 915.162 253.76C905.629 258.893 894.922 261.46 883.042 261.46ZM883.042 234.62C888.616 234.62 893.822 233.3 898.662 230.66C903.649 227.873 907.609 223.767 910.542 218.34C913.475 212.913 914.942 206.313 914.942 198.54C914.942 186.953 911.862 178.08 905.702 171.92C899.689 165.613 892.282 162.46 883.482 162.46C874.682 162.46 867.276 165.613 861.262 171.92C855.396 178.08 852.462 186.953 852.462 198.54C852.462 210.127 855.322 219.073 861.042 225.38C866.909 231.54 874.242 234.62 883.042 234.62Z" fill="#222222"/>
<path d="M1152.98 259.48H1122.18L1052.44 154.1V259.48H1021.64V105.7H1052.44L1122.18 211.3V105.7H1152.98V259.48Z" fill="#222222"/>
<path d="M1199.03 123.08C1193.61 123.08 1189.06 121.393 1185.39 118.02C1181.87 114.5 1180.11 110.173 1180.11 105.04C1180.11 99.9067 1181.87 95.6533 1185.39 92.28C1189.06 88.76 1193.61 87 1199.03 87C1204.46 87 1208.93 88.76 1212.45 92.28C1216.12 95.6533 1217.95 99.9067 1217.95 105.04C1217.95 110.173 1216.12 114.5 1212.45 118.02C1208.93 121.393 1204.46 123.08 1199.03 123.08ZM1214.21 137.6V259.48H1183.41V137.6H1214.21Z" fill="#222222"/>
<path d="M1291.28 261.46C1281.31 261.46 1272.36 259.7 1264.44 256.18C1256.52 252.513 1250.22 247.6 1245.52 241.44C1240.98 235.28 1238.48 228.46 1238.04 220.98H1269.06C1269.65 225.673 1271.92 229.56 1275.88 232.64C1279.99 235.72 1285.05 237.26 1291.06 237.26C1296.93 237.26 1301.48 236.087 1304.7 233.74C1308.08 231.393 1309.76 228.387 1309.76 224.72C1309.76 220.76 1307.71 217.827 1303.6 215.92C1299.64 213.867 1293.26 211.667 1284.46 209.32C1275.37 207.12 1267.89 204.847 1262.02 202.5C1256.3 200.153 1251.32 196.56 1247.06 191.72C1242.96 186.88 1240.9 180.353 1240.9 172.14C1240.9 165.393 1242.81 159.233 1246.62 153.66C1250.58 148.087 1256.16 143.687 1263.34 140.46C1270.68 137.233 1279.26 135.62 1289.08 135.62C1303.6 135.62 1315.19 139.287 1323.84 146.62C1332.5 153.807 1337.26 163.56 1338.14 175.88H1308.66C1308.22 171.04 1306.17 167.227 1302.5 164.44C1298.98 161.507 1294.22 160.04 1288.2 160.04C1282.63 160.04 1278.3 161.067 1275.22 163.12C1272.29 165.173 1270.82 168.033 1270.82 171.7C1270.82 175.807 1272.88 178.96 1276.98 181.16C1281.09 183.213 1287.47 185.34 1296.12 187.54C1304.92 189.74 1312.18 192.013 1317.9 194.36C1323.62 196.707 1328.54 200.373 1332.64 205.36C1336.9 210.2 1339.1 216.653 1339.24 224.72C1339.24 231.76 1337.26 238.067 1333.3 243.64C1329.49 249.213 1323.92 253.613 1316.58 256.84C1309.4 259.92 1300.96 261.46 1291.28 261.46Z" fill="#222222"/>
<path d="M1356.61 198.1C1356.61 185.78 1359.03 174.853 1363.87 165.32C1368.85 155.787 1375.53 148.453 1383.89 143.32C1392.39 138.187 1401.85 135.62 1412.27 135.62C1421.36 135.62 1429.28 137.453 1436.03 141.12C1442.92 144.787 1448.42 149.407 1452.53 154.98V137.6H1483.55V259.48H1452.53V241.66C1448.57 247.38 1443.07 252.147 1436.03 255.96C1429.13 259.627 1421.14 261.46 1412.05 261.46C1401.78 261.46 1392.39 258.82 1383.89 253.54C1375.53 248.26 1368.85 240.853 1363.87 231.32C1359.03 221.64 1356.61 210.567 1356.61 198.1ZM1452.53 198.54C1452.53 191.06 1451.06 184.68 1448.13 179.4C1445.19 173.973 1441.23 169.867 1436.25 167.08C1431.26 164.147 1425.91 162.68 1420.19 162.68C1414.47 162.68 1409.19 164.073 1404.35 166.86C1399.51 169.647 1395.55 173.753 1392.47 179.18C1389.53 184.46 1388.07 190.767 1388.07 198.1C1388.07 205.433 1389.53 211.887 1392.47 217.46C1395.55 222.887 1399.51 227.067 1404.35 230C1409.33 232.933 1414.61 234.4 1420.19 234.4C1425.91 234.4 1431.26 233.007 1436.25 230.22C1441.23 227.287 1445.19 223.18 1448.13 217.9C1451.06 212.473 1452.53 206.02 1452.53 198.54Z" fill="#222222"/>
</svg>
