<svg width="32" height="32" viewBox="0 0 32 32" fill="none" xmlns="http://www.w3.org/2000/svg">
<path d="M5.33333 8.00008L13.4768 14.1498L13.4796 14.152C14.3838 14.8151 14.8362 15.1469 15.3317 15.275C15.7696 15.3883 16.23 15.3883 16.668 15.275C17.1639 15.1468 17.6176 14.814 18.5234 14.1498C18.5234 14.1498 23.7468 10.1413 26.6667 8.00008M4 21.067V10.9337C4 9.4402 4 8.69291 4.29065 8.12248C4.54631 7.62071 4.95396 7.21306 5.45573 6.9574C6.02616 6.66675 6.77345 6.66675 8.26693 6.66675H23.7336C25.2271 6.66675 25.9728 6.66675 26.5432 6.9574C27.045 7.21306 27.454 7.62071 27.7096 8.12248C28 8.69235 28 9.43874 28 10.9293V21.0715C28 22.5621 28 23.3074 27.7096 23.8773C27.454 24.379 27.045 24.7874 26.5432 25.0431C25.9733 25.3334 25.228 25.3334 23.7375 25.3334H8.26255C6.77199 25.3334 6.0256 25.3334 5.45573 25.0431C4.95396 24.7874 4.54631 24.379 4.29065 23.8773C4 23.3068 4 22.5605 4 21.067Z" stroke="#1976D2" stroke-width="2" stroke-linecap="round" stroke-linejoin="round"/>
</svg>
