<svg width="32" height="32" viewBox="0 0 32 32" fill="none" xmlns="http://www.w3.org/2000/svg">
<path d="M6.6665 13.2305C6.6665 19.6996 12.3258 25.0492 14.8308 27.1003C15.1893 27.3938 15.3707 27.5423 15.6381 27.6176C15.8464 27.6763 16.1529 27.6763 16.3612 27.6176C16.6291 27.5422 16.8093 27.3951 17.1691 27.1005C19.6741 25.0494 25.3331 19.7002 25.3331 13.2311C25.3331 10.7829 24.3498 8.43473 22.5994 6.70363C20.8491 4.97252 18.4753 4 15.9999 4C13.5246 4 11.1505 4.97267 9.40017 6.70378C7.64983 8.43488 6.6665 10.7823 6.6665 13.2305Z" stroke="#1976D2" stroke-width="2" stroke-linecap="round" stroke-linejoin="round"/>
<path d="M13.3332 12C13.3332 13.4728 14.5271 14.6667 15.9998 14.6667C17.4726 14.6667 18.6665 13.4728 18.6665 12C18.6665 10.5272 17.4726 9.33333 15.9998 9.33333C14.5271 9.33333 13.3332 10.5272 13.3332 12Z" stroke="#1976D2" stroke-width="2" stroke-linecap="round" stroke-linejoin="round"/>
</svg>
