<svg width="18" height="18" viewBox="0 0 18 18" fill="none" xmlns="http://www.w3.org/2000/svg">
<path d="M13.4995 1.3252C13.8497 1.3252 14.1709 1.52155 14.3267 1.83594V1.83691L17.1392 7.46191C17.3673 7.9184 17.1824 8.47274 16.7261 8.70117C16.2694 8.92951 15.7142 8.74476 15.4858 8.28809L15.2329 7.78516L15.1772 7.6748H11.8228L11.7671 7.78516L11.5142 8.28809C11.2858 8.74476 10.7306 8.92951 10.2739 8.70117C9.81757 8.47276 9.6327 7.91844 9.86084 7.46191L12.6733 1.83691V1.83594C12.829 1.52168 13.1495 1.32536 13.4995 1.3252ZM12.6108 6.09766L12.4663 6.3877H14.5337L14.3892 6.09766L13.6792 4.67773L13.4995 4.32031L12.6108 6.09766Z" fill="#222222" stroke="white" stroke-width="0.4"/>
<path d="M5.15674 16.4043C4.79552 16.7655 4.20855 16.7653 3.84717 16.4043L3.78857 16.3457H3.78467L1.03076 13.5918C0.669479 13.2305 0.669609 12.6436 1.03076 12.2822C1.39211 11.9209 1.97898 11.9209 2.34033 12.2822L3.57471 13.5166L3.57471 2.25098C3.57471 1.73927 3.98784 1.32633 4.49951 1.32617C5.01132 1.32617 5.42529 1.73917 5.42529 2.25098L5.42529 13.5166L5.76611 13.1748L6.65967 12.2822C7.02102 11.9209 7.60789 11.9209 7.96924 12.2822C8.3302 12.6436 8.33046 13.2306 7.96924 13.5918L5.15674 16.4043Z" fill="#222222" stroke="white" stroke-width="0.4"/>
<path d="M11.2502 10.3252H15.7502C16.1268 10.3253 16.4611 10.5476 16.6057 10.8945C16.7504 11.2417 16.6726 11.6373 16.4065 11.9033L13.4846 14.8252H15.7502C16.262 14.8253 16.675 15.2383 16.675 15.75C16.675 16.2617 16.262 16.6747 15.7502 16.6748H11.2502C10.8768 16.6748 10.5383 16.4522 10.3938 16.1055C10.2492 15.7584 10.3271 15.3627 10.593 15.0967L13.1741 12.5166L13.5149 12.1748H11.2502C10.7384 12.1748 10.3254 11.7618 10.3254 11.25C10.3254 10.7382 10.7384 10.3252 11.2502 10.3252Z" fill="#222222" stroke="white" stroke-width="0.4"/>
</svg>
