<svg width="18" height="18" viewBox="0 0 18 18" fill="none" xmlns="http://www.w3.org/2000/svg">
<path d="M3.84302 1.59668C4.20425 1.23545 4.79121 1.23567 5.15259 1.59668L5.21118 1.65527H5.21509L7.96899 4.40918C8.33029 4.77048 8.3302 5.35739 7.96899 5.71875C7.60765 6.0801 7.02077 6.0801 6.65942 5.71875L5.42505 4.48438V15.75C5.42505 16.2617 5.01192 16.6746 4.50024 16.6748C3.98844 16.6748 3.57446 16.2618 3.57446 15.75V4.48438L3.23364 4.82617L2.34009 5.71875C1.97874 6.08005 1.39185 6.08008 1.03052 5.71875C0.669527 5.35739 0.669332 4.77042 1.03052 4.40918L3.84302 1.59668ZM13.5002 9.2002C13.8503 9.2003 14.1707 9.39664 14.3264 9.71094V9.71191L17.1389 15.3369C17.3671 15.7935 17.1823 16.3478 16.7258 16.5762C16.2692 16.8045 15.7139 16.6198 15.4856 16.1631L15.2327 15.6602L15.177 15.5498H11.8225L11.7678 15.6602L11.5139 16.1631C11.2856 16.6198 10.7304 16.8045 10.2737 16.5762C9.8175 16.3477 9.63256 15.7934 9.8606 15.3369L12.6731 9.71191L12.6741 9.71094C12.8299 9.39669 13.1502 9.2002 13.5002 9.2002ZM13.3215 12.5527L12.6106 13.9727L12.4661 14.2627H14.5334L14.3889 13.9727L13.5002 12.1953L13.3215 12.5527ZM11.2502 1.3252H15.7502C16.1268 1.32531 16.4611 1.54764 16.6057 1.89453C16.7504 2.24168 16.6726 2.63725 16.4065 2.90332L13.4846 5.8252H15.7502C16.2619 5.82535 16.675 6.23829 16.675 6.75C16.675 7.26171 16.2619 7.67465 15.7502 7.6748H11.2502C10.8768 7.6748 10.5383 7.45215 10.3938 7.10547C10.2492 6.75836 10.327 6.36272 10.593 6.09668L13.1741 3.5166L13.5149 3.1748H11.2502C10.7384 3.1748 10.3254 2.76181 10.3254 2.25C10.3254 1.73819 10.7384 1.3252 11.2502 1.3252Z" fill="#222222" stroke="white" stroke-width="0.4"/>
</svg>
